SeanSans-NormalExtrabold.ufo
<glyph name="exclam" format="1">
  <advance width="264"/>
  <unicode hex="0021"/>
  <outline>
    <contour>
      <point x="190" y="229" type="line"/>
      <point x="204" y="722" type="line"/>
      <point x="60" y="722" type="line"/>
      <point x="73" y="229" type="line"/>
    </contour>
    <contour>
      <point x="208" y="57" type="curve"/>
      <point x="208" y="102"/>
      <point x="175" y="123"/>
      <point x="131" y="123" type="curve"/>
      <point x="86" y="123"/>
      <point x="56" y="99"/>
      <point x="56" y="57" type="curve"/>
      <point x="207" y="57"/>
      <point x="58" y="57"/>
      <point x="208" y="57" type="curve"/>
      <point x="208" y="11"/>
      <point x="176" y="-9"/>
      <point x="131" y="-9" type="curve"/>
      <point x="86" y="-9"/>
      <point x="56" y="13"/>
      <point x="56" y="57" type="curve"/>
      <point x="207" y="57"/>
      <point x="58" y="57"/>
    </contour>
  </outline>
</glyph>
<glyph name="quotedbl" format="1">
  <advance width="444"/>
  <unicode hex="0022"/>
  <outline>
    <contour>
      <point x="179" y="618" type="line"/>
      <point x="188" y="840" type="line"/>
      <point x="43" y="840" type="line"/>
      <point x="52" y="618" type="line"/>
    </contour>
    <contour>
      <point x="392" y="618" type="line"/>
      <point x="401" y="840" type="line"/>
      <point x="256" y="840" type="line"/>
      <point x="265" y="618" type="line"/>
    </contour>
  </outline>
</glyph>
<glyph name="numbersign" format="1">
  <advance width="714"/>
  <unicode hex="0023"/>
  <outline>
    <contour>
      <point x="33" y="220" type="curve"/>
      <point x="578" y="220" type="curve"/>
      <point x="613" y="322" type="curve"/>
      <point x="68" y="322" type="curve"/>
    </contour>
    <contour>
      <point x="101" y="435" type="curve"/>
      <point x="651" y="435" type="curve"/>
      <point x="685" y="537" type="curve"/>
      <point x="135" y="537" type="curve"/>
    </contour>
    <contour>
      <point x="455" y="39" type="curve"/>
      <point x="681" y="722" type="curve"/>
      <point x="545" y="722" type="curve"/>
      <point x="320" y="39" type="curve"/>
    </contour>
    <contour>
      <point x="173" y="46" type="curve"/>
      <point x="397" y="722" type="curve"/>
      <point x="262" y="722" type="curve"/>
      <point x="44" y="46" type="curve"/>
    </contour>
  </outline>
</glyph>
<glyph name="dollar" format="1">
  <advance width="593"/>
  <unicode hex="0024"/>
  <outline>
    <contour>
      <point x="340" y="-40" type="curve"/>
      <point x="340" y="-10"/>
      <point x="340" y="63"/>
      <point x="340" y="93" type="curve"/>
      <point x="205" y="93"/>
      <point x="340" y="93"/>
      <point x="205" y="93" type="curve"/>
      <point x="205" y="63"/>
      <point x="205" y="-10"/>
      <point x="205" y="-40" type="curve"/>
      <point x="340" y="-40"/>
      <point x="205" y="-40"/>
    </contour>
    <contour>
      <point x="352" y="636" type="curve"/>
      <point x="352" y="666"/>
      <point x="352" y="743"/>
      <point x="352" y="773" type="curve"/>
      <point x="217" y="773"/>
      <point x="352" y="773"/>
      <point x="217" y="773" type="curve"/>
      <point x="217" y="743"/>
      <point x="217" y="666"/>
      <point x="217" y="636" type="curve"/>
      <point x="352" y="636"/>
      <point x="217" y="636"/>
    </contour>
    <contour>
      <point x="38" y="92" type="curve"/>
      <point x="103" y="65"/>
      <point x="179" y="42"/>
      <point x="266" y="42" type="curve"/>
      <point x="429" y="42"/>
      <point x="564" y="90"/>
      <point x="564" y="219" type="curve"/>
      <point x="564" y="332"/>
      <point x="449" y="374"/>
      <point x="327" y="419" type="curve"/>
      <point x="249" y="448"/>
      <point x="174" y="464"/>
      <point x="174" y="522" type="curve"/>
      <point x="174" y="569"/>
      <point x="225" y="586"/>
      <point x="287" y="586" type="curve"/>
      <point x="351" y="586"/>
      <point x="395" y="574"/>
      <point x="458" y="548" type="curve"/>
      <point x="519" y="635"/>
      <point x="458" y="548"/>
      <point x="519" y="635" type="curve"/>
      <point x="442" y="669"/>
      <point x="381" y="687"/>
      <point x="293" y="687" type="curve"/>
      <point x="150" y="687"/>
      <point x="38" y="638"/>
      <point x="38" y="522" type="curve"/>
      <point x="38" y="414"/>
      <point x="131" y="370"/>
      <point x="247" y="328" type="curve"/>
      <point x="332" y="297"/>
      <point x="428" y="281"/>
      <point x="428" y="214" type="curve"/>
      <point x="428" y="161"/>
      <point x="358" y="144"/>
      <point x="279" y="144" type="curve"/>
      <point x="215" y="144"/>
      <point x="159" y="164"/>
      <point x="104" y="185" type="curve"/>
      <point x="38" y="92"/>
      <point x="104" y="185"/>
    </contour>
  </outline>
</glyph>
<glyph name="percent" format="1">
  <advance width="1155"/>
  <unicode hex="0025"/>
  <outline>
    <contour>
      <point x="422" y="-41" type="line"/>
      <point x="866" y="712" type="line"/>
      <point x="743" y="712" type="line"/>
      <point x="298" y="-41" type="line"/>
    </contour>
    <contour>
      <point x="149" y="495" type="curve"/>
      <point x="149" y="567"/>
      <point x="181" y="618"/>
      <point x="249" y="618" type="curve"/>
      <point x="318" y="619"/>
      <point x="351" y="567"/>
      <point x="351" y="494" type="curve"/>
      <point x="351" y="421"/>
      <point x="323" y="368"/>
      <point x="256" y="368" type="curve"/>
      <point x="184" y="368"/>
      <point x="149" y="420"/>
      <point x="149" y="495" type="curve"/>
      <point x="104" y="495"/>
      <point x="73" y="495"/>
      <point x="27" y="495" type="curve"/>
      <point x="27" y="356"/>
      <point x="112" y="271"/>
      <point x="250" y="271" type="curve"/>
      <point x="391" y="271"/>
      <point x="479" y="357"/>
      <point x="479" y="498" type="curve"/>
      <point x="479" y="634"/>
      <point x="392" y="715"/>
      <point x="255" y="715" type="curve"/>
      <point x="115" y="715"/>
      <point x="27" y="633"/>
      <point x="27" y="495" type="curve"/>
      <point x="73" y="495"/>
      <point x="104" y="495"/>
    </contour>
    <contour>
      <point x="799" y="179" type="curve"/>
      <point x="799" y="251"/>
      <point x="831" y="301"/>
      <point x="899" y="301" type="curve"/>
      <point x="968" y="302"/>
      <point x="1000" y="251"/>
      <point x="1000" y="177" type="curve"/>
      <point x="1000" y="105"/>
      <point x="973" y="52"/>
      <point x="906" y="52" type="curve"/>
      <point x="834" y="52"/>
      <point x="799" y="103"/>
      <point x="799" y="179" type="curve"/>
      <point x="754" y="179"/>
      <point x="722" y="179"/>
      <point x="677" y="179" type="curve"/>
      <point x="677" y="40"/>
      <point x="761" y="-45"/>
      <point x="900" y="-45" type="curve"/>
      <point x="1041" y="-45"/>
      <point x="1128" y="41"/>
      <point x="1128" y="182" type="curve"/>
      <point x="1128" y="318"/>
      <point x="1042" y="398"/>
      <point x="904" y="398" type="curve"/>
      <point x="765" y="398"/>
      <point x="677" y="317"/>
      <point x="677" y="179" type="curve"/>
      <point x="722" y="179"/>
      <point x="754" y="179"/>
    </contour>
  </outline>
</glyph>
<glyph name="ampersand" format="1">
  <advance width="750"/>
  <unicode hex="0026"/>
  <outline>
    <contour>
      <point x="720" y="59" type="line"/>
      <point x="616" y="154"/>
      <point x="493" y="275"/>
      <point x="384" y="375" type="curve"/>
      <point x="326" y="431"/>
      <point x="247" y="469"/>
      <point x="247" y="552" type="curve"/>
      <point x="247" y="595"/>
      <point x="272" y="625"/>
      <point x="315" y="625" type="curve"/>
      <point x="364" y="625"/>
      <point x="397" y="601"/>
      <point x="397" y="554" type="curve"/>
      <point x="397" y="478"/>
      <point x="334" y="451"/>
      <point x="264" y="417" type="curve"/>
      <point x="153" y="360"/>
      <point x="45" y="320"/>
      <point x="45" y="198" type="curve"/>
      <point x="45" y="61"/>
      <point x="162" y="-5"/>
      <point x="309" y="-5" type="curve"/>
      <point x="510" y="-5"/>
      <point x="633" y="120"/>
      <point x="704" y="312" type="curve"/>
      <point x="587" y="338"/>
      <point x="704" y="312"/>
      <point x="587" y="338" type="curve"/>
      <point x="535" y="199"/>
      <point x="459" y="97"/>
      <point x="315" y="97" type="curve"/>
      <point x="239" y="97"/>
      <point x="181" y="127"/>
      <point x="181" y="198" type="curve"/>
      <point x="181" y="276"/>
      <point x="249" y="299"/>
      <point x="320" y="336" type="curve"/>
      <point x="429" y="391"/>
      <point x="531" y="435"/>
      <point x="533" y="554" type="curve"/>
      <point x="533" y="668"/>
      <point x="441" y="727"/>
      <point x="321" y="727" type="curve"/>
      <point x="203" y="727"/>
      <point x="116" y="664"/>
      <point x="116" y="552" type="curve"/>
      <point x="116" y="442"/>
      <point x="209" y="386"/>
      <point x="290" y="314" type="curve"/>
      <point x="396" y="214"/>
      <point x="537" y="80"/>
      <point x="639" y="-15" type="curve"/>
    </contour>
  </outline>
</glyph>
<glyph name="parenleft" format="1">
  <advance width="397"/>
  <unicode hex="0028"/>
  <outline>
    <contour>
      <point x="396" y="-207" type="curve"/>
      <point x="236" y="-53"/>
      <point x="168" y="102"/>
      <point x="168" y="326" type="curve"/>
      <point x="168" y="551"/>
      <point x="236" y="705"/>
      <point x="395" y="863" type="curve"/>
      <point x="314" y="928"/>
      <point x="395" y="863"/>
      <point x="314" y="928" type="curve"/>
      <point x="130" y="751"/>
      <point x="35" y="584"/>
      <point x="35" y="326" type="curve"/>
      <point x="35" y="67"/>
      <point x="131" y="-100"/>
      <point x="315" y="-279" type="curve"/>
      <point x="396" y="-207"/>
      <point x="315" y="-279"/>
    </contour>
  </outline>
</glyph>
<glyph name="parenright" format="1">
  <advance width="409"/>
  <unicode hex="0029"/>
  <outline>
    <contour>
      <point x="79" y="-292" type="curve"/>
      <point x="267" y="-105"/>
      <point x="374" y="61"/>
      <point x="374" y="329" type="curve"/>
      <point x="374" y="590"/>
      <point x="274" y="755"/>
      <point x="83" y="931" type="curve"/>
      <point x="3" y="859"/>
      <point x="83" y="931"/>
      <point x="3" y="859" type="curve"/>
      <point x="166" y="703"/>
      <point x="241" y="551"/>
      <point x="241" y="324" type="curve"/>
      <point x="241" y="93"/>
      <point x="158" y="-60"/>
      <point x="-1" y="-227" type="curve"/>
      <point x="79" y="-292"/>
      <point x="-1" y="-227"/>
    </contour>
  </outline>
</glyph>
<glyph name="asterisk" format="1">
  <advance width="553"/>
  <unicode hex="002A"/>
  <outline>
    <contour>
      <point x="320" y="581" type="line"/>
      <point x="327" y="804" type="line"/>
      <point x="224" y="804" type="line"/>
      <point x="230" y="581" type="line"/>
    </contour>
    <contour>
      <point x="301" y="532" type="line"/>
      <point x="512" y="601" type="line"/>
      <point x="477" y="698" type="line"/>
      <point x="270" y="617" type="line"/>
    </contour>
    <contour>
      <point x="248" y="534" type="line"/>
      <point x="385" y="359" type="line"/>
      <point x="463" y="425" type="line"/>
      <point x="317" y="592" type="line"/>
    </contour>
    <contour>
      <point x="236" y="591" type="line"/>
      <point x="89" y="424" type="line"/>
      <point x="168" y="358" type="line"/>
      <point x="305" y="534" type="line"/>
    </contour>
    <contour>
      <point x="281" y="616" type="line"/>
      <point x="74" y="697" type="line"/>
      <point x="39" y="601" type="line"/>
      <point x="251" y="531" type="line"/>
    </contour>
  </outline>
</glyph>
<glyph name="plus" format="1">
  <advance width="633"/>
  <unicode hex="002B"/>
  <outline>
    <contour>
      <point x="34" y="258" type="curve"/>
      <point x="599" y="258" type="line"/>
      <point x="599" y="369"/>
      <point x="599" y="258"/>
      <point x="599" y="369" type="curve"/>
      <point x="34" y="369" type="line"/>
      <point x="34" y="258"/>
      <point x="34" y="369"/>
    </contour>
    <contour>
      <point x="382" y="34" type="curve"/>
      <point x="382" y="584" type="line"/>
      <point x="247" y="584"/>
      <point x="390" y="584"/>
      <point x="255" y="584" type="curve"/>
      <point x="255" y="34" type="line"/>
      <point x="390" y="34"/>
      <point x="247" y="34"/>
    </contour>
  </outline>
</glyph>
<glyph name="comma" format="1">
  <advance width="228"/>
  <unicode hex="002C"/>
  <outline>
    <contour>
      <point x="14" y="-120" type="line"/>
      <point x="114" y="-117"/>
      <point x="183" y="-50"/>
      <point x="183" y="52" type="curve"/>
      <point x="183" y="128"/>
      <point x="148" y="179"/>
      <point x="95" y="179" type="curve"/>
      <point x="51" y="179"/>
      <point x="20" y="156"/>
      <point x="20" y="112" type="curve"/>
      <point x="20" y="71"/>
      <point x="48" y="46"/>
      <point x="92" y="46" type="curve"/>
      <point x="91" y="9"/>
      <point x="80" y="-36"/>
      <point x="12" y="-48" type="curve"/>
    </contour>
  </outline>
</glyph>
<glyph name="hyphen" format="1">
  <advance width="414"/>
  <unicode hex="002D"/>
  <outline>
    <contour>
      <point x="55" y="227" type="curve"/>
      <point x="156" y="227"/>
      <point x="258" y="227"/>
      <point x="359" y="227" type="curve"/>
      <point x="359" y="338"/>
      <point x="359" y="227"/>
      <point x="359" y="338" type="curve"/>
      <point x="258" y="338"/>
      <point x="156" y="338"/>
      <point x="55" y="338" type="curve"/>
      <point x="55" y="227"/>
      <point x="55" y="338"/>
    </contour>
  </outline>
</glyph>
<glyph name="period" format="1">
  <advance width="248"/>
  <unicode hex="002E"/>
  <outline>
    <contour>
      <point x="200" y="57" type="curve"/>
      <point x="200" y="102"/>
      <point x="167" y="123"/>
      <point x="123" y="123" type="curve"/>
      <point x="78" y="123"/>
      <point x="48" y="99"/>
      <point x="48" y="57" type="curve"/>
      <point x="198" y="57"/>
      <point x="50" y="57"/>
      <point x="200" y="57" type="curve"/>
      <point x="200" y="11"/>
      <point x="167" y="-9"/>
      <point x="122" y="-9" type="curve"/>
      <point x="77" y="-9"/>
      <point x="48" y="13"/>
      <point x="48" y="57" type="curve"/>
      <point x="198" y="57"/>
      <point x="50" y="57"/>
    </contour>
  </outline>
</glyph>
<glyph name="slash" format="1">
  <advance width="618"/>
  <unicode hex="002F"/>
  <outline>
    <contour>
      <point x="155" y="-18" type="curve"/>
      <point x="303" y="250"/>
      <point x="451" y="519"/>
      <point x="599" y="788" type="curve"/>
      <point x="463" y="788"/>
      <point x="599" y="788"/>
      <point x="463" y="788" type="curve"/>
      <point x="315" y="519"/>
      <point x="168" y="250"/>
      <point x="20" y="-18" type="curve"/>
      <point x="155" y="-18"/>
      <point x="20" y="-18"/>
    </contour>
  </outline>
</glyph>
<glyph name="zero" format="1">
  <advance width="758"/>
  <unicode hex="0030"/>
  <outline>
    <contour>
      <point x="180" y="360" type="curve"/>
      <point x="180" y="515"/>
      <point x="241" y="620"/>
      <point x="375" y="620" type="curve"/>
      <point x="512" y="620"/>
      <point x="579" y="518"/>
      <point x="579" y="363" type="curve"/>
      <point x="579" y="208"/>
      <point x="518" y="102"/>
      <point x="386" y="102" type="curve"/>
      <point x="247" y="102"/>
      <point x="180" y="204"/>
      <point x="180" y="360" type="curve"/>
      <point x="44" y="360"/>
      <point x="179" y="360"/>
      <point x="44" y="360" type="curve"/>
      <point x="44" y="135"/>
      <point x="164" y="-5"/>
      <point x="380" y="-5" type="curve"/>
      <point x="597" y="-5"/>
      <point x="715" y="136"/>
      <point x="715" y="363" type="curve"/>
      <point x="715" y="587"/>
      <point x="600" y="727"/>
      <point x="388" y="727" type="curve"/>
      <point x="168" y="727"/>
      <point x="44" y="588"/>
      <point x="44" y="360" type="curve"/>
      <point x="179" y="360"/>
      <point x="44" y="360"/>
    </contour>
  </outline>
</glyph>
<glyph name="one" format="1">
  <advance width="405"/>
  <unicode hex="0031"/>
  <outline>
    <contour>
      <point x="76" y="473" type="curve"/>
      <point x="309" y="654"/>
      <point x="76" y="473"/>
      <point x="309" y="654" type="curve"/>
      <point x="210" y="722"/>
      <point x="309" y="654"/>
      <point x="210" y="722" type="curve"/>
      <point x="8" y="566"/>
      <point x="210" y="722"/>
      <point x="8" y="566" type="curve"/>
      <point x="76" y="473"/>
      <point x="8" y="566"/>
    </contour>
    <contour>
      <point x="343" y="0" type="curve"/>
      <point x="343" y="241"/>
      <point x="343" y="481"/>
      <point x="343" y="722" type="curve"/>
      <point x="210" y="722"/>
      <point x="343" y="722"/>
      <point x="210" y="722" type="curve"/>
      <point x="210" y="481"/>
      <point x="210" y="241"/>
      <point x="210" y="0" type="curve"/>
      <point x="343" y="0"/>
      <point x="210" y="0"/>
    </contour>
  </outline>
</glyph>
<glyph name="two" format="1">
  <advance width="615"/>
  <unicode hex="0032"/>
  <outline>
    <contour>
      <point x="36" y="0" type="curve"/>
      <point x="249" y="0"/>
      <point x="428" y="0"/>
      <point x="578" y="0" type="curve"/>
      <point x="578" y="102"/>
      <point x="578" y="0"/>
      <point x="578" y="102" type="curve"/>
      <point x="406" y="102"/>
      <point x="208" y="102"/>
      <point x="36" y="102" type="curve"/>
      <point x="36" y="0"/>
      <point x="36" y="102"/>
    </contour>
    <contour>
      <point x="132" y="517" type="curve"/>
      <point x="185" y="581"/>
      <point x="225" y="621"/>
      <point x="298" y="621" type="curve"/>
      <point x="375" y="621"/>
      <point x="422" y="583"/>
      <point x="422" y="505" type="curve"/>
      <point x="422" y="405"/>
      <point x="349" y="345"/>
      <point x="265" y="281" type="curve"/>
      <point x="189" y="220"/>
      <point x="114" y="163"/>
      <point x="36" y="102" type="curve"/>
      <point x="38" y="0"/>
      <point x="36" y="102"/>
      <point x="38" y="0" type="curve"/>
      <point x="187" y="63"/>
      <point x="268" y="135"/>
      <point x="352" y="203" type="curve"/>
      <point x="465" y="289"/>
      <point x="549" y="364"/>
      <point x="549" y="510" type="curve"/>
      <point x="549" y="656"/>
      <point x="454" y="727"/>
      <point x="304" y="727" type="curve"/>
      <point x="185" y="727"/>
      <point x="99" y="675"/>
      <point x="42" y="576" type="curve"/>
      <point x="132" y="517"/>
      <point x="42" y="576"/>
    </contour>
  </outline>
</glyph>
<glyph name="three" format="1">
  <advance width="574"/>
  <unicode hex="0033"/>
  <outline>
    <contour>
      <point x="33" y="56" type="curve"/>
      <point x="88" y="20"/>
      <point x="158" y="-5"/>
      <point x="243" y="-5" type="curve"/>
      <point x="412" y="-5"/>
      <point x="532" y="53"/>
      <point x="532" y="215" type="curve"/>
      <point x="532" y="355"/>
      <point x="377" y="412"/>
      <point x="160" y="412" type="curve"/>
      <point x="160" y="326"/>
      <point x="160" y="411"/>
      <point x="160" y="326" type="curve"/>
      <point x="285" y="326"/>
      <point x="403" y="294"/>
      <point x="403" y="211" type="curve"/>
      <point x="403" y="124"/>
      <point x="328" y="102"/>
      <point x="248" y="102" type="curve"/>
      <point x="201" y="102"/>
      <point x="149" y="115"/>
      <point x="97" y="140" type="curve"/>
      <point x="33" y="56"/>
      <point x="97" y="140"/>
    </contour>
    <contour>
      <point x="108" y="565" type="curve"/>
      <point x="137" y="592"/>
      <point x="188" y="621"/>
      <point x="240" y="621" type="curve"/>
      <point x="315" y="621"/>
      <point x="368" y="598"/>
      <point x="368" y="527" type="curve"/>
      <point x="368" y="453"/>
      <point x="270" y="425"/>
      <point x="160" y="425" type="curve"/>
      <point x="160" y="340"/>
      <point x="160" y="424"/>
      <point x="160" y="339" type="curve"/>
      <point x="347" y="339"/>
      <point x="497" y="394"/>
      <point x="497" y="531" type="curve"/>
      <point x="497" y="669"/>
      <point x="394" y="727"/>
      <point x="251" y="727" type="curve"/>
      <point x="158" y="727"/>
      <point x="75" y="686"/>
      <point x="33" y="639" type="curve"/>
      <point x="108" y="565"/>
      <point x="33" y="639"/>
    </contour>
  </outline>
</glyph>
<glyph name="four" format="1">
  <advance width="628"/>
  <unicode hex="0034"/>
  <outline>
    <contour>
      <point x="62" y="245" type="line"/>
      <point x="431" y="672" type="line"/>
      <point x="324" y="699" type="line"/>
      <point x="11" y="342" type="line"/>
    </contour>
    <contour>
      <point x="596" y="342" type="line"/>
      <point x="11" y="342" type="line"/>
      <point x="11" y="230" type="line"/>
      <point x="596" y="230" type="line"/>
    </contour>
    <contour>
      <point x="459" y="0" type="line"/>
      <point x="459" y="699" type="line"/>
      <point x="325" y="699" type="line"/>
      <point x="325" y="0" type="line"/>
    </contour>
  </outline>
</glyph>
<glyph name="five" format="1">
  <advance width="574"/>
  <unicode hex="0035"/>
  <outline>
    <contour>
      <point x="69" y="722" type="curve"/>
      <point x="69" y="626"/>
      <point x="69" y="516"/>
      <point x="69" y="378" type="curve"/>
      <point x="198" y="343"/>
      <point x="69" y="378"/>
      <point x="198" y="343" type="curve"/>
      <point x="198" y="431"/>
      <point x="198" y="533"/>
      <point x="198" y="620" type="curve"/>
      <point x="69" y="722"/>
      <point x="198" y="620"/>
    </contour>
    <contour>
      <point x="198" y="343" type="curve"/>
      <point x="215" y="357"/>
      <point x="251" y="366"/>
      <point x="277" y="366" type="curve"/>
      <point x="360" y="366"/>
      <point x="404" y="320"/>
      <point x="404" y="239" type="curve"/>
      <point x="404" y="156"/>
      <point x="342" y="101"/>
      <point x="256" y="101" type="curve"/>
      <point x="200" y="101"/>
      <point x="157" y="110"/>
      <point x="102" y="135" type="curve"/>
      <point x="40" y="43"/>
      <point x="102" y="135"/>
      <point x="40" y="43" type="curve"/>
      <point x="105" y="12"/>
      <point x="176" y="-5"/>
      <point x="256" y="-5" type="curve"/>
      <point x="413" y="-5"/>
      <point x="537" y="85"/>
      <point x="537" y="240" type="curve"/>
      <point x="537" y="386"/>
      <point x="438" y="475"/>
      <point x="288" y="475" type="curve"/>
      <point x="220" y="475"/>
      <point x="143" y="451"/>
      <point x="84" y="378" type="curve"/>
      <point x="200" y="347"/>
      <point x="82" y="374"/>
    </contour>
    <contour>
      <point x="504" y="722" type="curve"/>
      <point x="355" y="722"/>
      <point x="205" y="722"/>
      <point x="69" y="722" type="curve"/>
      <point x="198" y="620"/>
      <point x="69" y="722"/>
      <point x="198" y="620" type="curve"/>
      <point x="291" y="620"/>
      <point x="398" y="620"/>
      <point x="504" y="620" type="curve"/>
      <point x="504" y="722"/>
      <point x="504" y="620"/>
    </contour>
  </outline>
</glyph>
<glyph name="six" format="1">
  <advance width="632"/>
  <unicode hex="0036"/>
  <outline>
    <contour>
      <point x="149" y="218" type="curve"/>
      <point x="185" y="298"/>
      <point x="245" y="340"/>
      <point x="333" y="340" type="curve"/>
      <point x="413" y="340"/>
      <point x="462" y="302"/>
      <point x="462" y="223" type="curve"/>
      <point x="462" y="147"/>
      <point x="411" y="109"/>
      <point x="334" y="109" type="curve"/>
      <point x="233" y="109"/>
      <point x="169" y="161"/>
      <point x="169" y="258" type="curve"/>
      <point x="169" y="479"/>
      <point x="341" y="568"/>
      <point x="569" y="629" type="curve"/>
      <point x="537" y="729"/>
      <point x="569" y="629"/>
      <point x="537" y="729" type="curve"/>
      <point x="267" y="662"/>
      <point x="39" y="537"/>
      <point x="39" y="253" type="curve"/>
      <point x="39" y="82"/>
      <point x="153" y="-11"/>
      <point x="329" y="-11" type="curve"/>
      <point x="490" y="-11"/>
      <point x="598" y="70"/>
      <point x="598" y="223" type="curve"/>
      <point x="598" y="373"/>
      <point x="496" y="447"/>
      <point x="348" y="447" type="curve"/>
      <point x="209" y="447"/>
      <point x="115" y="352"/>
      <point x="69" y="258" type="curve"/>
      <point x="149" y="218"/>
      <point x="69" y="258"/>
    </contour>
  </outline>
</glyph>
<glyph name="eight" format="1">
  <advance width="623"/>
  <unicode hex="0038"/>
  <outline>
    <contour>
      <point x="64" y="539" type="curve"/>
      <point x="64" y="419"/>
      <point x="159" y="390"/>
      <point x="273" y="342" type="curve"/>
      <point x="365" y="302"/>
      <point x="445" y="283"/>
      <point x="445" y="192" type="curve"/>
      <point x="445" y="125"/>
      <point x="391" y="100"/>
      <point x="312" y="100" type="curve"/>
      <point x="233" y="100"/>
      <point x="178" y="124"/>
      <point x="178" y="192" type="curve"/>
      <point x="178" y="285"/>
      <point x="261" y="302"/>
      <point x="355" y="343" type="curve"/>
      <point x="465" y="392"/>
      <point x="560" y="420"/>
      <point x="560" y="537" type="curve"/>
      <point x="560" y="674"/>
      <point x="461" y="727"/>
      <point x="312" y="727" type="curve"/>
      <point x="166" y="727"/>
      <point x="64" y="672"/>
      <point x="64" y="539" type="curve"/>
      <point x="198" y="539"/>
      <point x="64" y="539"/>
      <point x="198" y="539" type="curve"/>
      <point x="198" y="596"/>
      <point x="241" y="622"/>
      <point x="307" y="622" type="curve"/>
      <point x="378" y="622"/>
      <point x="426" y="599"/>
      <point x="426" y="537" type="curve"/>
      <point x="426" y="459"/>
      <point x="351" y="447"/>
      <point x="271" y="413" type="curve"/>
      <point x="146" y="358"/>
      <point x="44" y="324"/>
      <point x="44" y="192" type="curve"/>
      <point x="44" y="50"/>
      <point x="151" y="-5"/>
      <point x="306" y="-5" type="curve"/>
      <point x="465" y="-5"/>
      <point x="579" y="47"/>
      <point x="579" y="192" type="curve"/>
      <point x="579" y="322"/>
      <point x="477" y="359"/>
      <point x="355" y="413" type="curve"/>
      <point x="274" y="449"/>
      <point x="198" y="461"/>
      <point x="198" y="539" type="curve"/>
      <point x="64" y="539"/>
      <point x="198" y="539"/>
    </contour>
  </outline>
</glyph>
<glyph name="nine" format="1">
  <advance width="632"/>
  <unicode hex="0039"/>
  <outline>
    <contour>
      <point x="486" y="488" type="curve"/>
      <point x="447" y="411"/>
      <point x="393" y="382"/>
      <point x="308" y="382" type="curve"/>
      <point x="223" y="382"/>
      <point x="166" y="422"/>
      <point x="166" y="504" type="curve"/>
      <point x="166" y="577"/>
      <point x="219" y="612"/>
      <point x="296" y="612" type="curve"/>
      <point x="398" y="612"/>
      <point x="462" y="563"/>
      <point x="462" y="464" type="curve"/>
      <point x="462" y="244"/>
      <point x="296" y="155"/>
      <point x="67" y="94" type="curve"/>
      <point x="106" y="-10"/>
      <point x="66" y="94"/>
      <point x="105" y="-10" type="curve"/>
      <point x="377" y="50"/>
      <point x="591" y="185"/>
      <point x="591" y="469" type="curve"/>
      <point x="591" y="640"/>
      <point x="477" y="733"/>
      <point x="301" y="733" type="curve"/>
      <point x="140" y="733"/>
      <point x="33" y="652"/>
      <point x="33" y="499" type="curve"/>
      <point x="33" y="349"/>
      <point x="140" y="275"/>
      <point x="296" y="275" type="curve"/>
      <point x="428" y="275"/>
      <point x="505" y="352"/>
      <point x="551" y="457" type="curve"/>
      <point x="486" y="488"/>
      <point x="551" y="457"/>
    </contour>
  </outline>
</glyph>
<glyph name="colon" format="1">
  <advance width="262"/>
  <unicode hex="003A"/>
  <outline>
    <contour>
      <point x="206" y="377" type="curve"/>
      <point x="206" y="422"/>
      <point x="174" y="444"/>
      <point x="129" y="444" type="curve"/>
      <point x="84" y="444"/>
      <point x="54" y="420"/>
      <point x="54" y="377" type="curve"/>
      <point x="205" y="377"/>
      <point x="56" y="377"/>
      <point x="206" y="377" type="curve"/>
      <point x="206" y="331"/>
      <point x="174" y="311"/>
      <point x="129" y="311" type="curve"/>
      <point x="84" y="311"/>
      <point x="54" y="333"/>
      <point x="54" y="377" type="curve"/>
      <point x="205" y="377"/>
      <point x="56" y="377"/>
    </contour>
    <contour>
      <point x="206" y="58" type="curve"/>
      <point x="206" y="103"/>
      <point x="173" y="125"/>
      <point x="129" y="125" type="curve"/>
      <point x="84" y="125"/>
      <point x="54" y="101"/>
      <point x="54" y="58" type="curve"/>
      <point x="204" y="58"/>
      <point x="56" y="58"/>
      <point x="206" y="58" type="curve"/>
      <point x="206" y="13"/>
      <point x="173" y="-7"/>
      <point x="128" y="-7" type="curve"/>
      <point x="83" y="-7"/>
      <point x="54" y="15"/>
      <point x="54" y="58" type="curve"/>
      <point x="204" y="58"/>
      <point x="56" y="58"/>
    </contour>
  </outline>
</glyph>
<glyph name="semicolon" format="1">
  <advance width="254"/>
  <unicode hex="003B"/>
  <outline>
    <contour>
      <point x="27" y="-179" type="line"/>
      <point x="131" y="-175"/>
      <point x="202" y="-108"/>
      <point x="202" y="-7" type="curve"/>
      <point x="202" y="69"/>
      <point x="166" y="120"/>
      <point x="111" y="120" type="curve"/>
      <point x="65" y="120"/>
      <point x="33" y="97"/>
      <point x="33" y="54" type="curve"/>
      <point x="33" y="13"/>
      <point x="62" y="-12"/>
      <point x="108" y="-13" type="curve"/>
      <point x="107" y="-49"/>
      <point x="95" y="-94"/>
      <point x="25" y="-107" type="curve"/>
    </contour>
    <contour>
      <point x="185" y="382" type="curve"/>
      <point x="185" y="427"/>
      <point x="152" y="449"/>
      <point x="107" y="449" type="curve"/>
      <point x="63" y="449"/>
      <point x="32" y="425"/>
      <point x="32" y="382" type="curve"/>
      <point x="183" y="382"/>
      <point x="34" y="382"/>
      <point x="185" y="382" type="curve"/>
      <point x="185" y="337"/>
      <point x="152" y="317"/>
      <point x="107" y="317" type="curve"/>
      <point x="62" y="317"/>
      <point x="32" y="339"/>
      <point x="32" y="382" type="curve"/>
      <point x="183" y="382"/>
      <point x="34" y="382"/>
    </contour>
  </outline>
</glyph>
<glyph name="less" format="1">
  <advance width="717"/>
  <unicode hex="003C"/>
  <outline>
    <contour>
      <point x="661" y="626" type="curve"/>
      <point x="450" y="536"/>
      <point x="238" y="446"/>
      <point x="27" y="356" type="curve"/>
      <point x="27" y="244"/>
      <point x="27" y="356"/>
      <point x="27" y="244" type="curve"/>
      <point x="238" y="334"/>
      <point x="450" y="424"/>
      <point x="661" y="514" type="curve"/>
      <point x="661" y="626"/>
      <point x="661" y="514"/>
    </contour>
    <contour>
      <point x="672" y="92" type="curve"/>
      <point x="457" y="180"/>
      <point x="242" y="268"/>
      <point x="27" y="356" type="curve"/>
      <point x="27" y="244"/>
      <point x="27" y="356"/>
      <point x="27" y="244" type="curve"/>
      <point x="242" y="156"/>
      <point x="457" y="68"/>
      <point x="672" y="-20" type="curve"/>
      <point x="672" y="92"/>
      <point x="672" y="-20"/>
    </contour>
  </outline>
</glyph>
<glyph name="equal" format="1">
  <advance width="759"/>
  <unicode hex="003D"/>
  <outline>
    <contour>
      <point x="54" y="164" type="curve"/>
      <point x="272" y="164"/>
      <point x="491" y="164"/>
      <point x="709" y="164" type="curve"/>
      <point x="709" y="271"/>
      <point x="709" y="164"/>
      <point x="709" y="271" type="curve"/>
      <point x="491" y="271"/>
      <point x="272" y="271"/>
      <point x="54" y="271" type="curve"/>
      <point x="54" y="164"/>
      <point x="54" y="271"/>
    </contour>
    <contour>
      <point x="54" y="386" type="curve"/>
      <point x="272" y="386"/>
      <point x="491" y="386"/>
      <point x="709" y="386" type="curve"/>
      <point x="709" y="493"/>
      <point x="709" y="386"/>
      <point x="709" y="493" type="curve"/>
      <point x="491" y="493"/>
      <point x="272" y="493"/>
      <point x="54" y="493" type="curve"/>
      <point x="54" y="386"/>
      <point x="54" y="493"/>
    </contour>
  </outline>
</glyph>
<glyph name="greater" format="1">
  <advance width="719"/>
  <unicode hex="003E"/>
  <outline>
    <contour>
      <point x="56" y="-20" type="curve"/>
      <point x="267" y="70"/>
      <point x="479" y="160"/>
      <point x="690" y="250" type="curve"/>
      <point x="690" y="362"/>
      <point x="690" y="250"/>
      <point x="690" y="362" type="curve"/>
      <point x="479" y="272"/>
      <point x="267" y="182"/>
      <point x="56" y="92" type="curve"/>
      <point x="56" y="-20"/>
      <point x="56" y="92"/>
    </contour>
    <contour>
      <point x="45" y="514" type="curve"/>
      <point x="260" y="426"/>
      <point x="475" y="338"/>
      <point x="690" y="250" type="curve"/>
      <point x="690" y="362"/>
      <point x="690" y="250"/>
      <point x="690" y="362" type="curve"/>
      <point x="475" y="450"/>
      <point x="260" y="538"/>
      <point x="45" y="626" type="curve"/>
      <point x="45" y="514"/>
      <point x="45" y="626"/>
    </contour>
  </outline>
</glyph>
<glyph name="question" format="1">
  <advance width="556"/>
  <unicode hex="003F"/>
  <outline>
    <contour>
      <point x="195" y="376" type="curve"/>
      <point x="195" y="339"/>
      <point x="195" y="258"/>
      <point x="195" y="221" type="curve"/>
      <point x="325" y="221"/>
      <point x="195" y="221"/>
      <point x="325" y="221" type="curve"/>
      <point x="325" y="258"/>
      <point x="325" y="339"/>
      <point x="325" y="376" type="curve"/>
      <point x="195" y="376"/>
      <point x="325" y="376"/>
    </contour>
    <contour>
      <point x="109" y="577" type="line"/>
      <point x="145" y="614"/>
      <point x="195" y="642"/>
      <point x="257" y="642" type="curve"/>
      <point x="339" y="642"/>
      <point x="396" y="599"/>
      <point x="396" y="519" type="curve"/>
      <point x="396" y="426"/>
      <point x="318" y="376"/>
      <point x="209" y="376" type="curve"/>
      <point x="209" y="338"/>
      <point x="209" y="313"/>
      <point x="209" y="276" type="curve"/>
      <point x="392" y="276"/>
      <point x="525" y="361"/>
      <point x="525" y="519" type="curve"/>
      <point x="525" y="668"/>
      <point x="415" y="749"/>
      <point x="263" y="749" type="curve"/>
      <point x="170" y="749"/>
      <point x="99" y="718"/>
      <point x="39" y="657" type="curve"/>
    </contour>
    <contour>
      <point x="337" y="35" type="curve"/>
      <point x="337" y="80"/>
      <point x="304" y="101"/>
      <point x="260" y="101" type="curve"/>
      <point x="216" y="101"/>
      <point x="186" y="78"/>
      <point x="186" y="35" type="curve"/>
      <point x="337" y="35"/>
      <point x="186" y="35"/>
      <point x="337" y="35" type="curve"/>
      <point x="337" y="-11"/>
      <point x="305" y="-30"/>
      <point x="260" y="-30" type="curve"/>
      <point x="215" y="-30"/>
      <point x="186" y="-8"/>
      <point x="186" y="35" type="curve"/>
      <point x="337" y="35"/>
      <point x="186" y="35"/>
    </contour>
  </outline>
</glyph>
<glyph name="at" format="1">
  <advance width="895"/>
  <unicode hex="0040"/>
  <outline>
    <contour>
      <point x="608" y="-10" type="curve"/>
      <point x="556" y="-31"/>
      <point x="518" y="-40"/>
      <point x="464" y="-40" type="curve"/>
      <point x="286" y="-40"/>
      <point x="163" y="43"/>
      <point x="163" y="213" type="curve"/>
      <point x="163" y="378"/>
      <point x="283" y="456"/>
      <point x="455" y="456" type="curve"/>
      <point x="620" y="456"/>
      <point x="731" y="373"/>
      <point x="731" y="214" type="curve"/>
      <point x="731" y="163"/>
      <point x="727" y="121"/>
      <point x="694" y="121" type="curve"/>
      <point x="658" y="121"/>
      <point x="649" y="163"/>
      <point x="649" y="218" type="curve"/>
      <point x="649" y="339"/>
      <point x="571" y="410"/>
      <point x="448" y="410" type="curve"/>
      <point x="312" y="410"/>
      <point x="232" y="343"/>
      <point x="232" y="214" type="curve"/>
      <point x="232" y="85"/>
      <point x="305" y="12"/>
      <point x="434" y="12" type="curve"/>
      <point x="548" y="12"/>
      <point x="609" y="82"/>
      <point x="630" y="198" type="curve"/>
      <point x="544" y="219"/>
      <point x="630" y="198"/>
      <point x="544" y="219" type="curve"/>
      <point x="527" y="159"/>
      <point x="510" y="113"/>
      <point x="451" y="113" type="curve"/>
      <point x="390" y="113"/>
      <point x="357" y="154"/>
      <point x="357" y="219" type="curve"/>
      <point x="357" y="275"/>
      <point x="385" y="308"/>
      <point x="438" y="308" type="curve"/>
      <point x="499" y="308"/>
      <point x="526" y="272"/>
      <point x="526" y="213" type="curve"/>
      <point x="526" y="101"/>
      <point x="576" y="24"/>
      <point x="683" y="24" type="curve"/>
      <point x="797" y="24"/>
      <point x="853" y="101"/>
      <point x="853" y="219" type="curve"/>
      <point x="853" y="446"/>
      <point x="696" y="562"/>
      <point x="461" y="562" type="curve"/>
      <point x="208" y="562"/>
      <point x="39" y="448"/>
      <point x="39" y="208" type="curve"/>
      <point x="39" y="-28"/>
      <point x="208" y="-142"/>
      <point x="458" y="-142" type="curve"/>
      <point x="538" y="-142"/>
      <point x="596" y="-127"/>
      <point x="655" y="-96" type="curve"/>
      <point x="608" y="-10"/>
      <point x="655" y="-96"/>
    </contour>
  </outline>
</glyph>
<glyph name="B" format="1">
  <advance width="662"/>
  <unicode hex="0042"/>
  <outline>
    <contour>
      <point x="132" y="620" type="curve"/>
      <point x="204" y="620"/>
      <point x="270" y="620"/>
      <point x="343" y="620" type="curve"/>
      <point x="403" y="620"/>
      <point x="442" y="591"/>
      <point x="442" y="535" type="curve"/>
      <point x="442" y="478"/>
      <point x="392" y="455"/>
      <point x="331" y="455" type="curve"/>
      <point x="262" y="455"/>
      <point x="200" y="455"/>
      <point x="132" y="455" type="curve"/>
      <point x="132" y="382"/>
      <point x="132" y="426"/>
      <point x="132" y="353" type="curve"/>
      <point x="180" y="353"/>
      <point x="224" y="353"/>
      <point x="273" y="353" type="curve"/>
      <point x="399" y="353"/>
      <point x="577" y="390"/>
      <point x="577" y="532" type="curve"/>
      <point x="577" y="661"/>
      <point x="483" y="722"/>
      <point x="347" y="722" type="curve"/>
      <point x="272" y="722"/>
      <point x="206" y="722"/>
      <point x="132" y="722" type="curve"/>
      <point x="132" y="649"/>
      <point x="132" y="693"/>
    </contour>
    <contour>
      <point x="214" y="0" type="curve"/>
      <point x="214" y="241"/>
      <point x="214" y="481"/>
      <point x="214" y="722" type="curve"/>
      <point x="72" y="722"/>
      <point x="214" y="722"/>
      <point x="72" y="722" type="curve"/>
      <point x="72" y="481"/>
      <point x="73" y="241"/>
      <point x="72" y="0" type="curve"/>
      <point x="214" y="0"/>
      <point x="72" y="0"/>
    </contour>
    <contour>
      <point x="132" y="353" type="curve"/>
      <point x="200" y="353"/>
      <point x="262" y="353"/>
      <point x="331" y="353" type="curve"/>
      <point x="425" y="353"/>
      <point x="491" y="313"/>
      <point x="491" y="224" type="curve"/>
      <point x="491" y="140"/>
      <point x="433" y="102"/>
      <point x="343" y="102" type="curve"/>
      <point x="270" y="102"/>
      <point x="205" y="102"/>
      <point x="132" y="102" type="curve"/>
      <point x="132" y="29"/>
      <point x="132" y="73"/>
      <point x="132" y="0" type="curve"/>
      <point x="206" y="0"/>
      <point x="272" y="0"/>
      <point x="347" y="0" type="curve"/>
      <point x="513" y="0"/>
      <point x="626" y="69"/>
      <point x="626" y="222" type="curve"/>
      <point x="626" y="400"/>
      <point x="436" y="455"/>
      <point x="273" y="455" type="curve"/>
      <point x="224" y="455"/>
      <point x="180" y="455"/>
      <point x="132" y="455" type="curve"/>
      <point x="132" y="382"/>
      <point x="132" y="426"/>
    </contour>
  </outline>
</glyph>
<glyph name="D" format="1">
  <advance width="775"/>
  <unicode hex="0044"/>
  <outline>
    <contour>
      <point x="72" y="722" type="curve"/>
      <point x="72" y="481"/>
      <point x="72" y="241"/>
      <point x="72" y="0" type="curve"/>
      <point x="208" y="0"/>
      <point x="72" y="0"/>
      <point x="208" y="0" type="curve"/>
      <point x="208" y="241"/>
      <point x="208" y="481"/>
      <point x="208" y="722" type="curve"/>
      <point x="72" y="722"/>
      <point x="208" y="722"/>
    </contour>
    <contour>
      <point x="142" y="0" type="curve"/>
      <point x="210" y="0"/>
      <point x="276" y="0"/>
      <point x="344" y="0" type="curve"/>
      <point x="592" y="0"/>
      <point x="734" y="114"/>
      <point x="734" y="354" type="curve"/>
      <point x="734" y="602"/>
      <point x="591" y="722"/>
      <point x="338" y="722" type="curve"/>
      <point x="273" y="722"/>
      <point x="208" y="722"/>
      <point x="142" y="722" type="curve"/>
      <point x="142" y="621"/>
      <point x="142" y="721"/>
      <point x="142" y="620" type="curve"/>
      <point x="206" y="620"/>
      <point x="268" y="620"/>
      <point x="332" y="620" type="curve"/>
      <point x="510" y="620"/>
      <point x="599" y="527"/>
      <point x="599" y="351" type="curve"/>
      <point x="599" y="188"/>
      <point x="518" y="102"/>
      <point x="356" y="102" type="curve"/>
      <point x="284" y="102"/>
      <point x="214" y="102"/>
      <point x="142" y="102" type="curve"/>
      <point x="142" y="1"/>
      <point x="142" y="101"/>
    </contour>
    <contour>
      <point x="323" y="786" type="move" name="top"/>
    </contour>
  </outline>
</glyph>
<glyph name="E" format="1">
  <advance width="611"/>
  <unicode hex="0045"/>
  <outline>
    <contour>
      <point x="145" y="322" type="curve"/>
      <point x="259" y="322"/>
      <point x="373" y="322"/>
      <point x="487" y="322" type="curve"/>
      <point x="487" y="424"/>
      <point x="487" y="322"/>
      <point x="487" y="424" type="curve"/>
      <point x="373" y="424"/>
      <point x="259" y="424"/>
      <point x="145" y="424" type="curve"/>
      <point x="145" y="322"/>
      <point x="145" y="424"/>
    </contour>
    <contour>
      <point x="129" y="620" type="curve"/>
      <point x="270" y="620"/>
      <point x="411" y="620"/>
      <point x="552" y="620" type="curve"/>
      <point x="552" y="722"/>
      <point x="552" y="620"/>
      <point x="552" y="722" type="curve"/>
      <point x="411" y="722"/>
      <point x="270" y="722"/>
      <point x="129" y="722" type="curve"/>
      <point x="129" y="620"/>
      <point x="129" y="722"/>
    </contour>
    <contour>
      <point x="208" y="0" type="curve"/>
      <point x="208" y="722" type="line"/>
      <point x="72" y="722"/>
      <point x="208" y="722"/>
      <point x="72" y="722" type="curve"/>
      <point x="72" y="481"/>
      <point x="72" y="241"/>
      <point x="72" y="0" type="curve"/>
      <point x="208" y="0"/>
      <point x="72" y="0"/>
    </contour>
    <contour>
      <point x="129" y="0" type="curve"/>
      <point x="282" y="0"/>
      <point x="434" y="0"/>
      <point x="587" y="0" type="curve"/>
      <point x="587" y="102"/>
      <point x="587" y="0"/>
      <point x="587" y="102" type="curve"/>
      <point x="434" y="102"/>
      <point x="282" y="102"/>
      <point x="129" y="102" type="curve"/>
      <point x="129" y="0"/>
      <point x="129" y="102"/>
    </contour>
    <contour>
      <point x="288" y="786" type="move" name="top"/>
    </contour>
    <contour>
      <point x="538" y="9" type="move" name="bottom"/>
    </contour>
  </outline>
</glyph>
<glyph name="F" format="1">
  <advance width="578"/>
  <unicode hex="0046"/>
  <outline>
    <contour>
      <point x="145" y="322" type="curve"/>
      <point x="256" y="322"/>
      <point x="368" y="322"/>
      <point x="480" y="322" type="curve"/>
      <point x="480" y="424"/>
      <point x="480" y="322"/>
      <point x="480" y="424" type="curve"/>
      <point x="368" y="424"/>
      <point x="256" y="424"/>
      <point x="145" y="424" type="curve"/>
      <point x="145" y="322"/>
      <point x="145" y="424"/>
    </contour>
    <contour>
      <point x="208" y="0" type="curve"/>
      <point x="208" y="722" type="line"/>
      <point x="73" y="722"/>
      <point x="208" y="722"/>
      <point x="73" y="722" type="curve"/>
      <point x="73" y="481"/>
      <point x="73" y="241"/>
      <point x="73" y="0" type="curve"/>
      <point x="208" y="0"/>
      <point x="73" y="0"/>
    </contour>
    <contour>
      <point x="129" y="620" type="curve"/>
      <point x="271" y="620"/>
      <point x="413" y="620"/>
      <point x="556" y="620" type="curve"/>
      <point x="556" y="722"/>
      <point x="556" y="620"/>
      <point x="556" y="722" type="curve"/>
      <point x="413" y="722"/>
      <point x="271" y="722"/>
      <point x="129" y="722" type="curve"/>
      <point x="129" y="620"/>
      <point x="129" y="722"/>
    </contour>
  </outline>
</glyph>
<glyph name="G" format="1">
  <advance width="817"/>
  <unicode hex="0047"/>
  <outline>
    <contour>
      <point x="735" y="365" type="curve"/>
      <point x="658" y="365"/>
      <point x="582" y="365"/>
      <point x="505" y="365" type="curve"/>
      <point x="505" y="264"/>
      <point x="505" y="365"/>
      <point x="505" y="264" type="curve"/>
      <point x="582" y="264"/>
      <point x="658" y="264"/>
      <point x="735" y="264" type="curve"/>
      <point x="735" y="365"/>
      <point x="735" y="264"/>
    </contour>
    <contour>
      <point x="771" y="79" type="curve"/>
      <point x="771" y="174"/>
      <point x="771" y="269"/>
      <point x="771" y="365" type="curve"/>
      <point x="648" y="365"/>
      <point x="771" y="365"/>
      <point x="648" y="365" type="curve"/>
      <point x="648" y="269"/>
      <point x="648" y="174"/>
      <point x="648" y="79" type="curve"/>
      <point x="771" y="79"/>
      <point x="648" y="79"/>
    </contour>
    <contour>
      <point x="753" y="645" type="curve"/>
      <point x="650" y="703"/>
      <point x="557" y="727"/>
      <point x="438" y="727" type="curve"/>
      <point x="193" y="727"/>
      <point x="40" y="600"/>
      <point x="40" y="360" type="curve"/>
      <point x="40" y="117"/>
      <point x="200" y="-5"/>
      <point x="449" y="-5" type="curve"/>
      <point x="576" y="-5"/>
      <point x="658" y="23"/>
      <point x="771" y="79" type="curve"/>
      <point x="703" y="155"/>
      <point x="771" y="79"/>
      <point x="703" y="155" type="curve"/>
      <point x="616" y="113"/>
      <point x="547" y="102"/>
      <point x="449" y="102" type="curve"/>
      <point x="275" y="102"/>
      <point x="175" y="197"/>
      <point x="175" y="370" type="curve"/>
      <point x="175" y="533"/>
      <point x="274" y="621"/>
      <point x="438" y="621" type="curve"/>
      <point x="531" y="621"/>
      <point x="604" y="603"/>
      <point x="694" y="556" type="curve"/>
      <point x="753" y="645"/>
      <point x="694" y="556"/>
    </contour>
    <contour>
      <point x="436" y="786" type="move" name="top"/>
    </contour>
    <contour>
      <point x="489" y="3" type="move" name="bottom"/>
    </contour>
  </outline>
</glyph>
<glyph name="H" format="1">
  <advance width="802"/>
  <unicode hex="0048"/>
  <outline>
    <contour>
      <point x="208" y="0" type="curve"/>
      <point x="208" y="722" type="line"/>
      <point x="72" y="722"/>
      <point x="208" y="722"/>
      <point x="72" y="722" type="curve"/>
      <point x="72" y="481"/>
      <point x="72" y="241"/>
      <point x="72" y="0" type="curve"/>
      <point x="208" y="0"/>
      <point x="72" y="0"/>
    </contour>
    <contour>
      <point x="660" y="414" type="curve"/>
      <point x="487" y="414"/>
      <point x="313" y="414"/>
      <point x="140" y="414" type="curve"/>
      <point x="140" y="312"/>
      <point x="140" y="414"/>
      <point x="140" y="312" type="curve"/>
      <point x="313" y="312"/>
      <point x="487" y="312"/>
      <point x="660" y="312" type="curve"/>
      <point x="660" y="414"/>
      <point x="660" y="312"/>
    </contour>
    <contour>
      <point x="730" y="0" type="curve"/>
      <point x="730" y="212"/>
      <point x="730" y="510"/>
      <point x="730" y="722" type="curve"/>
      <point x="595" y="722"/>
      <point x="730" y="722"/>
      <point x="595" y="722" type="curve"/>
      <point x="595" y="0" type="line"/>
      <point x="730" y="0"/>
      <point x="595" y="0"/>
    </contour>
  </outline>
</glyph>
<glyph name="J" format="1">
  <advance width="464"/>
  <unicode hex="004A"/>
  <outline>
    <contour>
      <point x="0" y="44" type="curve"/>
      <point x="35" y="22"/>
      <point x="86" y="-4"/>
      <point x="148" y="-4" type="curve"/>
      <point x="306" y="-4"/>
      <point x="396" y="78"/>
      <point x="396" y="243" type="curve"/>
      <point x="396" y="402"/>
      <point x="396" y="562"/>
      <point x="396" y="722" type="curve"/>
      <point x="262" y="722"/>
      <point x="395" y="722"/>
      <point x="261" y="722" type="curve"/>
      <point x="261" y="562"/>
      <point x="261" y="402"/>
      <point x="261" y="243" type="curve"/>
      <point x="261" y="157"/>
      <point x="229" y="98"/>
      <point x="148" y="98" type="curve"/>
      <point x="113" y="98"/>
      <point x="91" y="110"/>
      <point x="62" y="125" type="curve"/>
      <point x="1" y="45"/>
      <point x="62" y="125"/>
    </contour>
  </outline>
</glyph>
<glyph name="K" format="1">
  <advance width="718"/>
  <unicode hex="004B"/>
  <outline>
    <contour>
      <point x="513" y="722" type="curve"/>
      <point x="173" y="380" type="line"/>
      <point x="335" y="380"/>
      <point x="177" y="380"/>
      <point x="338" y="380" type="curve"/>
      <point x="683" y="722" type="line"/>
      <point x="527" y="722"/>
      <point x="668" y="722"/>
    </contour>
    <contour>
      <point x="208" y="0" type="curve"/>
      <point x="208" y="722" type="line"/>
      <point x="72" y="722"/>
      <point x="208" y="722"/>
      <point x="72" y="722" type="curve"/>
      <point x="72" y="481"/>
      <point x="72" y="241"/>
      <point x="72" y="0" type="curve"/>
      <point x="208" y="0"/>
      <point x="72" y="0"/>
    </contour>
    <contour>
      <point x="709" y="0" type="curve"/>
      <point x="338" y="380" type="line"/>
      <point x="177" y="380"/>
      <point x="335" y="380"/>
      <point x="173" y="380" type="curve"/>
      <point x="535" y="0" type="line"/>
      <point x="701" y="0"/>
      <point x="543" y="0"/>
    </contour>
    <contour>
      <point x="385" y="-2" type="move" name="bottom"/>
    </contour>
  </outline>
</glyph>
<glyph name="L" format="1">
  <advance width="590"/>
  <unicode hex="004C"/>
  <outline>
    <contour>
      <point x="208" y="0" type="curve"/>
      <point x="208" y="241"/>
      <point x="208" y="481"/>
      <point x="208" y="722" type="curve"/>
      <point x="72" y="722"/>
      <point x="208" y="722"/>
      <point x="72" y="722" type="curve"/>
      <point x="72" y="481"/>
      <point x="72" y="241"/>
      <point x="72" y="0" type="curve"/>
      <point x="208" y="0"/>
      <point x="72" y="0"/>
    </contour>
    <contour>
      <point x="139" y="0" type="curve"/>
      <point x="286" y="0"/>
      <point x="432" y="0"/>
      <point x="578" y="0" type="curve"/>
      <point x="578" y="102"/>
      <point x="578" y="0"/>
      <point x="578" y="102" type="curve"/>
      <point x="432" y="102"/>
      <point x="286" y="102"/>
      <point x="139" y="102" type="curve"/>
      <point x="139" y="0"/>
      <point x="139" y="102"/>
    </contour>
    <contour>
      <point x="140" y="786" type="move" name="top"/>
    </contour>
    <contour>
      <point x="331" y="0" type="move" name="bottom"/>
    </contour>
  </outline>
</glyph>
<glyph name="M" format="1">
  <advance width="950"/>
  <unicode hex="004D"/>
  <outline>
    <contour>
      <point x="903" y="0" type="curve"/>
      <point x="881" y="241"/>
      <point x="855" y="481"/>
      <point x="833" y="722" type="curve"/>
      <point x="710" y="722"/>
      <point x="833" y="722"/>
      <point x="710" y="722" type="curve"/>
      <point x="731" y="481"/>
      <point x="747" y="241"/>
      <point x="768" y="0" type="curve"/>
      <point x="903" y="0"/>
      <point x="768" y="0"/>
    </contour>
    <contour>
      <point x="177" y="0" type="curve"/>
      <point x="197" y="241"/>
      <point x="216" y="481"/>
      <point x="236" y="722" type="curve"/>
      <point x="112" y="722"/>
      <point x="236" y="722"/>
      <point x="112" y="722" type="curve"/>
      <point x="91" y="481"/>
      <point x="71" y="241"/>
      <point x="50" y="0" type="curve"/>
      <point x="177" y="0"/>
      <point x="50" y="0"/>
    </contour>
    <contour>
      <point x="532" y="0" type="curve"/>
      <point x="435" y="241"/>
      <point x="337" y="481"/>
      <point x="239" y="722" type="curve"/>
      <point x="114" y="722"/>
      <point x="239" y="722"/>
      <point x="114" y="722" type="curve"/>
      <point x="211" y="481"/>
      <point x="308" y="241"/>
      <point x="406" y="0" type="curve"/>
      <point x="532" y="0"/>
      <point x="406" y="0"/>
    </contour>
    <contour>
      <point x="542" y="0" type="curve"/>
      <point x="637" y="241"/>
      <point x="733" y="481"/>
      <point x="828" y="722" type="curve"/>
      <point x="703" y="722"/>
      <point x="828" y="722"/>
      <point x="703" y="722" type="curve"/>
      <point x="607" y="481"/>
      <point x="510" y="241"/>
      <point x="414" y="0" type="curve"/>
      <point x="542" y="0"/>
      <point x="414" y="0"/>
    </contour>
  </outline>
</glyph>
<glyph name="N" format="1">
  <advance width="854"/>
  <unicode hex="004E"/>
  <outline>
    <contour>
      <point x="780" y="0" type="curve"/>
      <point x="595" y="240"/>
      <point x="412" y="482"/>
      <point x="228" y="722" type="curve"/>
      <point x="73" y="722"/>
      <point x="227" y="722"/>
      <point x="72" y="722" type="curve"/>
      <point x="257" y="482"/>
      <point x="440" y="240"/>
      <point x="625" y="0" type="curve"/>
      <point x="780" y="0"/>
      <point x="625" y="0"/>
    </contour>
    <contour>
      <point x="647" y="722" type="curve"/>
      <point x="647" y="481"/>
      <point x="647" y="241"/>
      <point x="647" y="0" type="curve"/>
      <point x="782" y="0"/>
      <point x="647" y="0"/>
      <point x="782" y="0" type="curve"/>
      <point x="782" y="241"/>
      <point x="782" y="481"/>
      <point x="782" y="722" type="curve"/>
      <point x="647" y="722"/>
      <point x="782" y="722"/>
    </contour>
    <contour>
      <point x="208" y="0" type="curve"/>
      <point x="208" y="241"/>
      <point x="208" y="481"/>
      <point x="208" y="722" type="curve"/>
      <point x="73" y="722"/>
      <point x="208" y="722"/>
      <point x="73" y="722" type="curve"/>
      <point x="73" y="481"/>
      <point x="73" y="241"/>
      <point x="73" y="0" type="curve"/>
      <point x="208" y="0"/>
      <point x="73" y="0"/>
    </contour>
    <contour>
      <point x="425" y="786" type="move" name="top"/>
    </contour>
    <contour>
      <point x="451" y="-3" type="move" name="bottom"/>
    </contour>
  </outline>
</glyph>
<glyph name="P" format="1">
  <advance width="613"/>
  <unicode hex="0050"/>
  <outline>
    <contour>
      <point x="121" y="297" type="curve"/>
      <point x="183" y="269"/>
      <point x="255" y="251"/>
      <point x="324" y="251" type="curve"/>
      <point x="481" y="254"/>
      <point x="586" y="326"/>
      <point x="586" y="481" type="curve"/>
      <point x="586" y="641"/>
      <point x="457" y="722"/>
      <point x="285" y="722" type="curve"/>
      <point x="238" y="722"/>
      <point x="191" y="722"/>
      <point x="144" y="722" type="curve"/>
      <point x="144" y="620"/>
      <point x="144" y="722"/>
      <point x="144" y="620" type="curve"/>
      <point x="185" y="620"/>
      <point x="226" y="620"/>
      <point x="267" y="620" type="curve"/>
      <point x="372" y="620"/>
      <point x="451" y="577"/>
      <point x="451" y="484" type="curve"/>
      <point x="451" y="397"/>
      <point x="393" y="351"/>
      <point x="310" y="351" type="curve"/>
      <point x="254" y="351"/>
      <point x="215" y="363"/>
      <point x="164" y="385" type="curve"/>
      <point x="122" y="298"/>
      <point x="164" y="385"/>
    </contour>
    <contour>
      <point x="208" y="0" type="curve"/>
      <point x="208" y="241"/>
      <point x="208" y="481"/>
      <point x="208" y="722" type="curve"/>
      <point x="72" y="722"/>
      <point x="208" y="722"/>
      <point x="72" y="722" type="curve"/>
      <point x="72" y="481"/>
      <point x="72" y="241"/>
      <point x="72" y="0" type="curve"/>
      <point x="208" y="0"/>
      <point x="72" y="0"/>
    </contour>
  </outline>
</glyph>
<glyph name="Q" format="1">
  <advance width="850"/>
  <unicode hex="0051"/>
  <outline>
    <contour>
      <point x="357" y="24" type="curve"/>
      <point x="478" y="-160"/>
      <point x="614" y="-214"/>
      <point x="823" y="-214" type="curve"/>
      <point x="823" y="-107"/>
      <point x="823" y="-214"/>
      <point x="823" y="-107" type="curve"/>
      <point x="666" y="-107"/>
      <point x="567" y="-65"/>
      <point x="473" y="75" type="curve"/>
      <point x="357" y="24"/>
      <point x="473" y="75"/>
    </contour>
    <contour>
      <point x="176" y="360" type="curve"/>
      <point x="176" y="513"/>
      <point x="257" y="616"/>
      <point x="404" y="616" type="curve"/>
      <point x="554" y="616"/>
      <point x="636" y="516"/>
      <point x="636" y="360" type="curve"/>
      <point x="636" y="206"/>
      <point x="558" y="101"/>
      <point x="411" y="101" type="curve"/>
      <point x="259" y="102"/>
      <point x="176" y="204"/>
      <point x="176" y="360" type="curve"/>
      <point x="41" y="360"/>
      <point x="176" y="360"/>
      <point x="41" y="360" type="curve"/>
      <point x="41" y="135"/>
      <point x="182" y="-5"/>
      <point x="404" y="-5" type="curve"/>
      <point x="630" y="-5"/>
      <point x="771" y="138"/>
      <point x="771" y="366" type="curve"/>
      <point x="771" y="591"/>
      <point x="635" y="731"/>
      <point x="412" y="731" type="curve"/>
      <point x="185" y="731"/>
      <point x="41" y="589"/>
      <point x="41" y="360" type="curve"/>
      <point x="176" y="360"/>
      <point x="41" y="360"/>
    </contour>
  </outline>
</glyph>
<glyph name="T" format="1">
  <advance width="669"/>
  <unicode hex="0054"/>
  <outline>
    <contour>
      <point x="402" y="0" type="curve"/>
      <point x="402" y="237"/>
      <point x="402" y="473"/>
      <point x="402" y="710" type="curve"/>
      <point x="267" y="710"/>
      <point x="402" y="710"/>
      <point x="267" y="710" type="curve"/>
      <point x="267" y="473"/>
      <point x="267" y="237"/>
      <point x="267" y="0" type="curve"/>
      <point x="402" y="0"/>
      <point x="267" y="0"/>
    </contour>
    <contour>
      <point x="12" y="614" type="curve"/>
      <point x="226" y="614"/>
      <point x="442" y="614"/>
      <point x="658" y="614" type="curve"/>
      <point x="658" y="726"/>
      <point x="658" y="610"/>
      <point x="658" y="722" type="curve"/>
      <point x="442" y="722"/>
      <point x="226" y="722"/>
      <point x="12" y="722" type="curve"/>
      <point x="12" y="610"/>
      <point x="12" y="726"/>
    </contour>
    <contour>
      <point x="332" y="786" type="move" name="top"/>
    </contour>
    <contour>
      <point x="380" y="-2" type="move" name="bottom"/>
    </contour>
  </outline>
</glyph>
<glyph name="U" format="1">
  <advance width="778"/>
  <unicode hex="0055"/>
  <outline>
    <contour>
      <point x="66" y="722" type="curve"/>
      <point x="66" y="584"/>
      <point x="66" y="415"/>
      <point x="66" y="277" type="curve"/>
      <point x="66" y="80"/>
      <point x="180" y="-5"/>
      <point x="386" y="-5" type="curve"/>
      <point x="596" y="-5"/>
      <point x="712" y="85"/>
      <point x="712" y="287" type="curve"/>
      <point x="712" y="422"/>
      <point x="712" y="588"/>
      <point x="712" y="722" type="curve"/>
      <point x="590" y="722"/>
      <point x="711" y="722"/>
      <point x="589" y="722" type="curve"/>
      <point x="589" y="581"/>
      <point x="589" y="416"/>
      <point x="589" y="275" type="curve"/>
      <point x="589" y="160"/>
      <point x="518" y="107"/>
      <point x="397" y="107" type="curve"/>
      <point x="261" y="107"/>
      <point x="189" y="165"/>
      <point x="189" y="297" type="curve"/>
      <point x="189" y="428"/>
      <point x="189" y="591"/>
      <point x="189" y="722" type="curve"/>
      <point x="67" y="722"/>
      <point x="188" y="722"/>
    </contour>
    <contour>
      <point x="391" y="786" type="move" name="top"/>
    </contour>
    <contour>
      <point x="439" y="6" type="move" name="bottom"/>
    </contour>
  </outline>
</glyph>
<glyph name="V" format="1">
  <advance width="739"/>
  <unicode hex="0056"/>
  <outline>
    <contour>
      <point x="595" y="722" type="curve"/>
      <point x="499" y="481"/>
      <point x="405" y="241"/>
      <point x="311" y="0" type="curve"/>
      <point x="450" y="0"/>
      <point x="305" y="0"/>
      <point x="443" y="0" type="curve"/>
      <point x="539" y="241"/>
      <point x="635" y="481"/>
      <point x="732" y="722" type="curve"/>
      <point x="595" y="722"/>
      <point x="732" y="722"/>
    </contour>
    <contour>
      <point x="5" y="722" type="curve"/>
      <point x="102" y="481"/>
      <point x="201" y="241"/>
      <point x="298" y="0" type="curve"/>
      <point x="437" y="0"/>
      <point x="293" y="0"/>
      <point x="431" y="0" type="curve"/>
      <point x="336" y="241"/>
      <point x="240" y="481"/>
      <point x="143" y="722" type="curve"/>
      <point x="5" y="722"/>
      <point x="143" y="722"/>
    </contour>
  </outline>
</glyph>
<glyph name="W" format="1">
  <advance width="962"/>
  <unicode hex="0057"/>
  <outline>
    <contour>
      <point x="339" y="0" type="curve"/>
      <point x="409" y="241"/>
      <point x="476" y="481"/>
      <point x="546" y="722" type="curve"/>
      <point x="420" y="722"/>
      <point x="548" y="722"/>
      <point x="423" y="722" type="curve"/>
      <point x="358" y="481"/>
      <point x="294" y="242"/>
      <point x="229" y="0" type="curve"/>
      <point x="350" y="0"/>
      <point x="218" y="0"/>
    </contour>
    <contour>
      <point x="434" y="722" type="curve"/>
      <point x="497" y="481"/>
      <point x="555" y="241"/>
      <point x="618" y="0" type="curve"/>
      <point x="739" y="0"/>
      <point x="606" y="0"/>
      <point x="727" y="0" type="curve"/>
      <point x="670" y="243"/>
      <point x="615" y="481"/>
      <point x="555" y="722" type="curve"/>
      <point x="430" y="722"/>
      <point x="560" y="722"/>
    </contour>
    <contour>
      <point x="23" y="722" type="curve"/>
      <point x="86" y="481"/>
      <point x="149" y="241"/>
      <point x="212" y="0" type="curve"/>
      <point x="333" y="0"/>
      <point x="208" y="0"/>
      <point x="329" y="0" type="curve"/>
      <point x="268" y="241"/>
      <point x="211" y="481"/>
      <point x="150" y="722" type="curve"/>
      <point x="23" y="722"/>
      <point x="150" y="722"/>
    </contour>
    <contour>
      <point x="815" y="722" type="curve"/>
      <point x="753" y="481"/>
      <point x="693" y="241"/>
      <point x="631" y="0" type="curve"/>
      <point x="752" y="0"/>
      <point x="624" y="0"/>
      <point x="746" y="0" type="curve"/>
      <point x="812" y="241"/>
      <point x="877" y="481"/>
      <point x="943" y="722" type="curve"/>
      <point x="815" y="722"/>
      <point x="943" y="722"/>
    </contour>
  </outline>
</glyph>
<glyph name="X" format="1">
  <advance width="701"/>
  <unicode hex="0058"/>
  <outline>
    <contour>
      <point x="530" y="722" type="curve"/>
      <point x="363" y="488"/>
      <point x="171" y="234"/>
      <point x="4" y="0" type="curve"/>
      <point x="138" y="0"/>
      <point x="27" y="0"/>
      <point x="160" y="0" type="curve"/>
      <point x="326" y="234"/>
      <point x="511" y="488"/>
      <point x="678" y="722" type="curve"/>
      <point x="551" y="722"/>
      <point x="657" y="722"/>
    </contour>
    <contour>
      <point x="36" y="722" type="curve"/>
      <point x="201" y="488"/>
      <point x="381" y="234"/>
      <point x="545" y="0" type="curve"/>
      <point x="680" y="0"/>
      <point x="560" y="0"/>
      <point x="694" y="0" type="curve"/>
      <point x="527" y="236"/>
      <point x="345" y="486"/>
      <point x="178" y="722" type="curve"/>
      <point x="54" y="722"/>
      <point x="161" y="722"/>
    </contour>
  </outline>
</glyph>
<glyph name="Y" format="1">
  <advance width="664"/>
  <unicode hex="0059"/>
  <outline>
    <contour>
      <point x="10" y="722" type="curve"/>
      <point x="87" y="600"/>
      <point x="186" y="460"/>
      <point x="262" y="337" type="curve"/>
      <point x="399" y="337"/>
      <point x="253" y="337"/>
      <point x="390" y="337" type="curve"/>
      <point x="312" y="467"/>
      <point x="236" y="593"/>
      <point x="157" y="722" type="curve"/>
      <point x="34" y="722"/>
      <point x="133" y="722"/>
    </contour>
    <contour>
      <point x="522" y="722" type="curve"/>
      <point x="437" y="592"/>
      <point x="356" y="467"/>
      <point x="271" y="337" type="curve"/>
      <point x="408" y="337"/>
      <point x="266" y="337"/>
      <point x="403" y="337" type="curve"/>
      <point x="484" y="460"/>
      <point x="580" y="600"/>
      <point x="661" y="722" type="curve"/>
      <point x="539" y="722"/>
      <point x="645" y="722"/>
    </contour>
    <contour>
      <point x="406" y="0" type="curve"/>
      <point x="406" y="115"/>
      <point x="406" y="227"/>
      <point x="406" y="342" type="curve"/>
      <point x="258" y="342"/>
      <point x="406" y="342"/>
      <point x="258" y="342" type="curve"/>
      <point x="258" y="227"/>
      <point x="258" y="115"/>
      <point x="258" y="0" type="curve"/>
      <point x="406" y="0"/>
      <point x="258" y="0"/>
    </contour>
    <contour>
      <point x="337" y="786" type="move" name="top"/>
    </contour>
  </outline>
</glyph>
<glyph name="bracketleft" format="1">
  <advance width="319"/>
  <unicode hex="005B"/>
  <outline>
    <contour>
      <point x="280" y="769" type="curve"/>
      <point x="227" y="769"/>
      <point x="174" y="769"/>
      <point x="121" y="769" type="curve"/>
      <point x="105" y="769"/>
      <point x="76" y="769"/>
      <point x="60" y="769" type="curve"/>
      <point x="60" y="755"/>
      <point x="60" y="734"/>
      <point x="60" y="719" type="curve"/>
      <point x="60" y="457"/>
      <point x="60" y="196"/>
      <point x="60" y="-65" type="curve"/>
      <point x="60" y="-81"/>
      <point x="60" y="-97"/>
      <point x="60" y="-114" type="curve"/>
      <point x="75" y="-114"/>
      <point x="103" y="-114"/>
      <point x="120" y="-114" type="curve"/>
      <point x="173" y="-114"/>
      <point x="227" y="-114"/>
      <point x="280" y="-114" type="curve"/>
      <point x="280" y="-2"/>
      <point x="280" y="-114"/>
      <point x="280" y="-2" type="curve"/>
      <point x="227" y="-2"/>
      <point x="173" y="-2"/>
      <point x="120" y="-2" type="curve"/>
      <point x="196" y="-2"/>
      <point x="120" y="-2"/>
      <point x="196" y="-2" type="curve"/>
      <point x="196" y="-65"/>
      <point x="196" y="-2"/>
      <point x="196" y="-65" type="curve"/>
      <point x="196" y="196"/>
      <point x="196" y="457"/>
      <point x="196" y="719" type="curve"/>
      <point x="196" y="658"/>
      <point x="196" y="719"/>
      <point x="196" y="658" type="curve"/>
      <point x="121" y="658"/>
      <point x="196" y="658"/>
      <point x="121" y="658" type="curve"/>
      <point x="174" y="658"/>
      <point x="227" y="658"/>
      <point x="280" y="658" type="curve"/>
      <point x="280" y="769"/>
      <point x="280" y="658"/>
    </contour>
  </outline>
</glyph>
<glyph name="backslash" format="1">
  <advance width="592"/>
  <unicode hex="005C"/>
  <outline>
    <contour>
      <point x="571" y="-68" type="curve"/>
      <point x="435" y="236"/>
      <point x="298" y="540"/>
      <point x="162" y="844" type="curve"/>
      <point x="21" y="844"/>
      <point x="162" y="844"/>
      <point x="21" y="844" type="curve"/>
      <point x="157" y="540"/>
      <point x="293" y="236"/>
      <point x="429" y="-68" type="curve"/>
      <point x="571" y="-68"/>
      <point x="429" y="-68"/>
    </contour>
  </outline>
</glyph>
<glyph name="bracketright" format="1">
  <advance width="318"/>
  <unicode hex="005D"/>
  <outline>
    <contour>
      <point x="39" y="658" type="curve"/>
      <point x="92" y="658"/>
      <point x="144" y="658"/>
      <point x="198" y="658" type="curve"/>
      <point x="185" y="667"/>
      <point x="168" y="672"/>
      <point x="155" y="682" type="curve"/>
      <point x="143" y="692"/>
      <point x="135" y="708"/>
      <point x="123" y="719" type="curve"/>
      <point x="123" y="457"/>
      <point x="122" y="196"/>
      <point x="123" y="-65" type="curve"/>
      <point x="135" y="-54"/>
      <point x="146" y="-40"/>
      <point x="159" y="-29" type="curve"/>
      <point x="171" y="-18"/>
      <point x="187" y="-13"/>
      <point x="199" y="-2" type="curve"/>
      <point x="145" y="-2"/>
      <point x="92" y="-2"/>
      <point x="39" y="-2" type="curve"/>
      <point x="38" y="-114"/>
      <point x="39" y="-2"/>
      <point x="38" y="-114" type="curve"/>
      <point x="92" y="-114"/>
      <point x="145" y="-114"/>
      <point x="199" y="-114" type="curve"/>
      <point x="258" y="-114"/>
      <point x="199" y="-114"/>
      <point x="258" y="-114" type="curve"/>
      <point x="258" y="-65"/>
      <point x="258" y="-114"/>
      <point x="258" y="-65" type="curve"/>
      <point x="258" y="196"/>
      <point x="258" y="457"/>
      <point x="258" y="719" type="curve"/>
      <point x="258" y="769"/>
      <point x="258" y="719"/>
      <point x="258" y="769" type="curve"/>
      <point x="198" y="769"/>
      <point x="258" y="769"/>
      <point x="198" y="769" type="curve"/>
      <point x="144" y="769"/>
      <point x="92" y="769"/>
      <point x="39" y="769" type="curve"/>
      <point x="39" y="658"/>
      <point x="39" y="769"/>
    </contour>
  </outline>
</glyph>
<glyph name="asciicircum" format="1">
  <advance width="565"/>
  <unicode hex="005E"/>
  <outline>
    <contour>
      <point x="168" y="454" type="curve"/>
      <point x="228" y="556"/>
      <point x="289" y="658"/>
      <point x="349" y="759" type="curve"/>
      <point x="214" y="759"/>
      <point x="349" y="759"/>
      <point x="214" y="759" type="curve"/>
      <point x="153" y="658"/>
      <point x="93" y="556"/>
      <point x="32" y="454" type="curve"/>
      <point x="168" y="454"/>
      <point x="33" y="454"/>
    </contour>
    <contour>
      <point x="532" y="454" type="curve"/>
      <point x="472" y="555"/>
      <point x="410" y="658"/>
      <point x="349" y="759" type="curve"/>
      <point x="214" y="759"/>
      <point x="349" y="759"/>
      <point x="214" y="759" type="curve"/>
      <point x="274" y="658"/>
      <point x="337" y="555"/>
      <point x="397" y="454" type="curve"/>
      <point x="532" y="454"/>
      <point x="397" y="454"/>
    </contour>
  </outline>
</glyph>
<glyph name="underscore" format="1">
  <advance width="710"/>
  <unicode hex="005F"/>
  <outline>
    <contour>
      <point x="0" y="-186" type="curve"/>
      <point x="236" y="-186"/>
      <point x="473" y="-186"/>
      <point x="710" y="-186" type="curve"/>
      <point x="710" y="-84"/>
      <point x="710" y="-186"/>
      <point x="710" y="-84" type="curve"/>
      <point x="473" y="-84"/>
      <point x="236" y="-84"/>
      <point x="0" y="-84" type="curve"/>
      <point x="0" y="-186"/>
      <point x="0" y="-84"/>
    </contour>
  </outline>
</glyph>
<glyph name="grave" format="1">
  <advance width="415"/>
  <unicode hex="0060"/>
  <outline>
    <contour>
      <point x="315" y="563" type="line"/>
      <point x="195" y="729" type="line"/>
      <point x="23" y="729" type="line"/>
      <point x="181" y="563" type="line"/>
    </contour>
    <contour>
      <point x="242" y="563" type="move" name="_top"/>
    </contour>
  </outline>
</glyph>
<glyph name="b" format="1">
  <advance width="666"/>
  <unicode hex="0062"/>
  <outline>
    <contour>
      <point x="159" y="336" type="curve"/>
      <point x="203" y="387"/>
      <point x="260" y="432"/>
      <point x="345" y="432" type="curve"/>
      <point x="442" y="432"/>
      <point x="494" y="364"/>
      <point x="494" y="263" type="curve"/>
      <point x="495" y="164"/>
      <point x="440" y="100"/>
      <point x="345" y="101" type="curve"/>
      <point x="270" y="101"/>
      <point x="212" y="133"/>
      <point x="170" y="181" type="curve"/>
      <point x="121" y="148"/>
      <point x="143" y="162"/>
      <point x="94" y="129" type="curve"/>
      <point x="167" y="49"/>
      <point x="244" y="-5"/>
      <point x="366" y="-5" type="curve"/>
      <point x="528" y="-5"/>
      <point x="631" y="97"/>
      <point x="630" y="266" type="curve"/>
      <point x="630" y="435"/>
      <point x="528" y="538"/>
      <point x="365" y="538" type="curve"/>
      <point x="245" y="538"/>
      <point x="168" y="478"/>
      <point x="101" y="398" type="curve"/>
      <point x="140" y="362"/>
      <point x="119" y="372"/>
    </contour>
    <contour>
      <point x="196" y="0" type="curve"/>
      <point x="196" y="286"/>
      <point x="196" y="514"/>
      <point x="196" y="800" type="curve"/>
      <point x="106" y="800"/>
      <point x="150" y="800"/>
      <point x="60" y="800" type="curve"/>
      <point x="60" y="514"/>
      <point x="60" y="286"/>
      <point x="60" y="0" type="curve"/>
      <point x="150" y="0"/>
      <point x="106" y="0"/>
    </contour>
  </outline>
</glyph>
<glyph name="c" format="1">
  <advance width="560"/>
  <unicode hex="0063"/>
  <outline>
    <contour>
      <point x="538" y="470" type="curve"/>
      <point x="481" y="510"/>
      <point x="409" y="538"/>
      <point x="336" y="538" type="curve"/>
      <point x="152" y="538"/>
      <point x="36" y="450"/>
      <point x="36" y="267" type="curve"/>
      <point x="36" y="86"/>
      <point x="149" y="-5"/>
      <point x="332" y="-5" type="curve"/>
      <point x="414" y="-5"/>
      <point x="494" y="22"/>
      <point x="542" y="81" type="curve"/>
      <point x="462" y="156"/>
      <point x="542" y="81"/>
      <point x="462" y="156" type="curve"/>
      <point x="428" y="123"/>
      <point x="386" y="101"/>
      <point x="338" y="101" type="curve"/>
      <point x="232" y="101"/>
      <point x="171" y="158"/>
      <point x="171" y="267" type="curve"/>
      <point x="171" y="374"/>
      <point x="229" y="432"/>
      <point x="333" y="432" type="curve"/>
      <point x="378" y="432"/>
      <point x="422" y="421"/>
      <point x="467" y="396" type="curve"/>
      <point x="538" y="470"/>
      <point x="467" y="396"/>
    </contour>
    <contour>
      <point x="321" y="618" type="move" name="top"/>
    </contour>
    <contour>
      <point x="345" y="8" type="move" name="bottom"/>
    </contour>
  </outline>
</glyph>
<glyph name="f" format="1">
  <advance width="472"/>
  <unicode hex="0066"/>
  <outline>
    <contour>
      <point x="23" y="431" type="curve"/>
      <point x="445" y="431" type="line"/>
      <point x="445" y="533"/>
      <point x="445" y="431"/>
      <point x="445" y="533" type="curve"/>
      <point x="23" y="533" type="line"/>
      <point x="23" y="431"/>
      <point x="23" y="533"/>
    </contour>
    <contour>
      <point x="274" y="0" type="curve"/>
      <point x="274" y="608" type="line"/>
      <point x="273" y="665"/>
      <point x="297" y="705"/>
      <point x="353" y="705" type="curve"/>
      <point x="380" y="705"/>
      <point x="407" y="697"/>
      <point x="432" y="686" type="curve"/>
      <point x="487" y="767"/>
      <point x="432" y="686"/>
      <point x="487" y="767" type="curve"/>
      <point x="445" y="787"/>
      <point x="399" y="803"/>
      <point x="353" y="803" type="curve"/>
      <point x="224" y="803"/>
      <point x="137" y="732"/>
      <point x="138" y="608" type="curve"/>
      <point x="138" y="0" type="line"/>
      <point x="274" y="0"/>
      <point x="138" y="0"/>
    </contour>
  </outline>
</glyph>
<glyph name="g" format="1">
  <advance width="601"/>
  <unicode hex="0067"/>
  <outline>
    <contour>
      <point x="409" y="441" type="curve"/>
      <point x="579" y="510" type="line"/>
      <point x="578" y="511"/>
      <point x="527" y="607"/>
      <point x="526" y="608" type="curve"/>
      <point x="340" y="516" type="line"/>
      <point x="409" y="440"/>
      <point x="340" y="517"/>
    </contour>
    <contour>
      <point x="182" y="339" type="curve"/>
      <point x="182" y="402"/>
      <point x="230" y="437"/>
      <point x="297" y="437" type="curve"/>
      <point x="364" y="437"/>
      <point x="408" y="401"/>
      <point x="408" y="338" type="curve"/>
      <point x="408" y="279"/>
      <point x="363" y="247"/>
      <point x="298" y="247" type="curve"/>
      <point x="233" y="247"/>
      <point x="182" y="276"/>
      <point x="182" y="339" type="curve"/>
      <point x="46" y="334"/>
      <point x="182" y="339"/>
      <point x="46" y="334" type="curve"/>
      <point x="46" y="208"/>
      <point x="153" y="146"/>
      <point x="289" y="146" type="curve"/>
      <point x="431" y="146"/>
      <point x="543" y="210"/>
      <point x="543" y="342" type="curve"/>
      <point x="543" y="471"/>
      <point x="436" y="538"/>
      <point x="297" y="538" type="curve"/>
      <point x="154" y="538"/>
      <point x="46" y="467"/>
      <point x="46" y="334" type="curve"/>
      <point x="182" y="339"/>
      <point x="46" y="334"/>
    </contour>
    <contour>
      <point x="161" y="245" type="curve"/>
      <point x="98" y="216"/>
      <point x="50" y="180"/>
      <point x="50" y="113" type="curve"/>
      <point x="50" y="4"/>
      <point x="159" y="-22"/>
      <point x="279" y="-31" type="curve"/>
      <point x="372" y="-38"/>
      <point x="467" y="-42"/>
      <point x="467" y="-120" type="curve"/>
      <point x="467" y="-188"/>
      <point x="385" y="-203"/>
      <point x="299" y="-203" type="curve"/>
      <point x="217" y="-203"/>
      <point x="145" y="-180"/>
      <point x="145" y="-106" type="curve"/>
      <point x="145" y="-48"/>
      <point x="176" y="-13"/>
      <point x="224" y="4" type="curve"/>
      <point x="156" y="65"/>
      <point x="224" y="4"/>
      <point x="156" y="65" type="curve"/>
      <point x="72" y="36"/>
      <point x="10" y="-16"/>
      <point x="10" y="-111" type="curve"/>
      <point x="10" y="-253"/>
      <point x="139" y="-304"/>
      <point x="293" y="-304" type="curve"/>
      <point x="453" y="-304"/>
      <point x="593" y="-260"/>
      <point x="590" y="-111" type="curve"/>
      <point x="590" y="31"/>
      <point x="453" y="55"/>
      <point x="304" y="65" type="curve"/>
      <point x="245" y="69"/>
      <point x="186" y="77"/>
      <point x="186" y="122" type="curve"/>
      <point x="186" y="151"/>
      <point x="201" y="168"/>
      <point x="226" y="182" type="curve"/>
      <point x="161" y="245"/>
      <point x="226" y="182"/>
    </contour>
    <contour>
      <point x="290" y="618" type="move" name="top"/>
    </contour>
  </outline>
</glyph>
<glyph name="h" format="1">
  <advance width="640"/>
  <unicode hex="0068"/>
  <outline>
    <contour>
      <point x="166" y="292" type="curve"/>
      <point x="195" y="374"/>
      <point x="260" y="434"/>
      <point x="338" y="434" type="curve"/>
      <point x="414" y="434"/>
      <point x="448" y="381"/>
      <point x="448" y="305" type="curve"/>
      <point x="448" y="201"/>
      <point x="448" y="104"/>
      <point x="448" y="0" type="curve"/>
      <point x="584" y="0"/>
      <point x="448" y="0"/>
      <point x="584" y="0" type="curve"/>
      <point x="584" y="107"/>
      <point x="584" y="214"/>
      <point x="584" y="321" type="curve"/>
      <point x="584" y="461"/>
      <point x="510" y="536"/>
      <point x="367" y="536" type="curve"/>
      <point x="253" y="536"/>
      <point x="156" y="460"/>
      <point x="112" y="341" type="curve"/>
      <point x="167" y="290"/>
      <point x="111" y="343"/>
    </contour>
    <contour>
      <point x="196" y="0" type="curve"/>
      <point x="196" y="267"/>
      <point x="196" y="533"/>
      <point x="196" y="800" type="curve"/>
      <point x="60" y="800"/>
      <point x="196" y="800"/>
      <point x="60" y="800" type="curve"/>
      <point x="60" y="533"/>
      <point x="60" y="267"/>
      <point x="60" y="0" type="curve"/>
      <point x="196" y="0"/>
      <point x="60" y="0"/>
    </contour>
  </outline>
</glyph>
<glyph name="i" format="1">
  <advance width="259"/>
  <unicode hex="0069"/>
  <outline>
    <contour>
      <point x="201" y="0" type="curve"/>
      <point x="201" y="178"/>
      <point x="201" y="355"/>
      <point x="201" y="533" type="curve"/>
      <point x="59" y="533"/>
      <point x="201" y="533"/>
      <point x="59" y="533" type="curve"/>
      <point x="59" y="355"/>
      <point x="59" y="178"/>
      <point x="59" y="0" type="curve"/>
      <point x="201" y="0"/>
      <point x="59" y="0"/>
    </contour>
    <contour>
      <point x="204" y="683" type="curve"/>
      <point x="204" y="728"/>
      <point x="171" y="750"/>
      <point x="126" y="750" type="curve"/>
      <point x="82" y="750"/>
      <point x="51" y="726"/>
      <point x="51" y="683" type="curve"/>
      <point x="202" y="683"/>
      <point x="53" y="683"/>
      <point x="204" y="683" type="curve"/>
      <point x="204" y="637"/>
      <point x="171" y="617"/>
      <point x="126" y="617" type="curve"/>
      <point x="81" y="617"/>
      <point x="51" y="639"/>
      <point x="51" y="683" type="curve"/>
      <point x="202" y="683"/>
      <point x="53" y="683"/>
    </contour>
    <contour>
      <point x="126" y="618" type="move" name="top"/>
    </contour>
    <contour>
      <point x="190" y="8" type="move" name="bottom"/>
    </contour>
  </outline>
</glyph>
<glyph name="j" format="1">
  <advance width="291"/>
  <unicode hex="006A"/>
  <outline>
    <contour>
      <point x="-24" y="-303" type="curve"/>
      <point x="-14" y="-304"/>
      <point x="-1" y="-305"/>
      <point x="12" y="-305" type="curve"/>
      <point x="138" y="-305"/>
      <point x="235" y="-242"/>
      <point x="235" y="-122" type="curve"/>
      <point x="235" y="96"/>
      <point x="235" y="315"/>
      <point x="235" y="534" type="curve"/>
      <point x="100" y="534"/>
      <point x="235" y="534"/>
      <point x="100" y="534" type="curve"/>
      <point x="100" y="315"/>
      <point x="100" y="96"/>
      <point x="100" y="-122" type="curve"/>
      <point x="100" y="-173"/>
      <point x="70" y="-207"/>
      <point x="18" y="-207" type="curve"/>
      <point x="10" y="-207"/>
      <point x="1" y="-207"/>
      <point x="-5" y="-206" type="curve"/>
      <point x="-24" y="-302"/>
      <point x="-5" y="-206"/>
    </contour>
    <contour>
      <point x="245" y="680" type="curve"/>
      <point x="245" y="725"/>
      <point x="212" y="746"/>
      <point x="167" y="746" type="curve"/>
      <point x="122" y="746"/>
      <point x="92" y="722"/>
      <point x="92" y="680" type="curve"/>
      <point x="243" y="680"/>
      <point x="94" y="680"/>
      <point x="245" y="680" type="curve"/>
      <point x="245" y="634"/>
      <point x="212" y="614"/>
      <point x="167" y="614" type="curve"/>
      <point x="121" y="614"/>
      <point x="92" y="636"/>
      <point x="92" y="680" type="curve"/>
      <point x="243" y="680"/>
      <point x="94" y="680"/>
    </contour>
  </outline>
</glyph>
<glyph name="k" format="1">
  <advance width="627"/>
  <unicode hex="006B"/>
  <outline>
    <contour>
      <point x="196" y="0" type="curve"/>
      <point x="196" y="800" type="line"/>
      <point x="60" y="800"/>
      <point x="196" y="800"/>
      <point x="60" y="800" type="curve"/>
      <point x="60" y="533"/>
      <point x="60" y="267"/>
      <point x="60" y="0" type="curve"/>
      <point x="196" y="0"/>
      <point x="60" y="0"/>
    </contour>
    <contour>
      <point x="419" y="533" type="curve"/>
      <point x="164" y="275" type="line"/>
      <point x="316" y="275"/>
      <point x="172" y="275"/>
      <point x="323" y="275" type="curve"/>
      <point x="586" y="533" type="line"/>
      <point x="430" y="533"/>
      <point x="575" y="533"/>
    </contour>
    <contour>
      <point x="613" y="0" type="curve"/>
      <point x="323" y="275" type="line"/>
      <point x="172" y="275"/>
      <point x="315" y="275"/>
      <point x="164" y="275" type="curve"/>
      <point x="445" y="0" type="line"/>
      <point x="598" y="0"/>
      <point x="461" y="0"/>
    </contour>
    <contour>
      <point x="359" y="-6" type="move" name="bottom"/>
    </contour>
  </outline>
</glyph>
<glyph name="m" format="1">
  <advance width="945"/>
  <unicode hex="006D"/>
  <outline>
    <contour>
      <point x="511" y="275" type="curve"/>
      <point x="546" y="361"/>
      <point x="585" y="432"/>
      <point x="660" y="432" type="curve"/>
      <point x="734" y="432"/>
      <point x="753" y="389"/>
      <point x="753" y="311" type="curve"/>
      <point x="753" y="208"/>
      <point x="753" y="104"/>
      <point x="753" y="0" type="curve"/>
      <point x="888" y="0"/>
      <point x="753" y="0"/>
      <point x="888" y="0" type="curve"/>
      <point x="888" y="107"/>
      <point x="888" y="214"/>
      <point x="888" y="321" type="curve"/>
      <point x="888" y="464"/>
      <point x="839" y="538"/>
      <point x="697" y="538" type="curve"/>
      <point x="582" y="538"/>
      <point x="510" y="455"/>
      <point x="457" y="330" type="curve"/>
      <point x="513" y="276"/>
      <point x="455" y="329"/>
    </contour>
    <contour>
      <point x="166" y="278" type="curve"/>
      <point x="199" y="363"/>
      <point x="238" y="432"/>
      <point x="314" y="432" type="curve"/>
      <point x="387" y="432"/>
      <point x="407" y="389"/>
      <point x="407" y="311" type="curve"/>
      <point x="407" y="208"/>
      <point x="407" y="104"/>
      <point x="407" y="0" type="curve"/>
      <point x="542" y="0"/>
      <point x="407" y="0"/>
      <point x="542" y="0" type="curve"/>
      <point x="542" y="107"/>
      <point x="542" y="214"/>
      <point x="542" y="321" type="curve"/>
      <point x="542" y="464"/>
      <point x="494" y="538"/>
      <point x="352" y="538" type="curve"/>
      <point x="235" y="538"/>
      <point x="172" y="461"/>
      <point x="111" y="333" type="curve"/>
      <point x="168" y="279"/>
      <point x="109" y="332"/>
    </contour>
    <contour>
      <point x="196" y="0" type="curve"/>
      <point x="196" y="178"/>
      <point x="196" y="355"/>
      <point x="196" y="533" type="curve"/>
      <point x="60" y="533"/>
      <point x="196" y="533"/>
      <point x="60" y="533" type="curve"/>
      <point x="60" y="355"/>
      <point x="60" y="178"/>
      <point x="60" y="0" type="curve"/>
      <point x="196" y="0"/>
      <point x="60" y="0"/>
    </contour>
  </outline>
</glyph>
<glyph name="n" format="1">
  <advance width="639"/>
  <unicode hex="006E"/>
  <outline>
    <contour>
      <point x="167" y="266" type="curve"/>
      <point x="193" y="360"/>
      <point x="249" y="432"/>
      <point x="333" y="432" type="curve"/>
      <point x="408" y="432"/>
      <point x="448" y="386"/>
      <point x="448" y="311" type="curve"/>
      <point x="448" y="203"/>
      <point x="448" y="108"/>
      <point x="448" y="0" type="curve"/>
      <point x="536" y="0"/>
      <point x="495" y="0"/>
      <point x="583" y="0" type="curve"/>
      <point x="583" y="112"/>
      <point x="583" y="210"/>
      <point x="583" y="321" type="curve"/>
      <point x="583" y="460"/>
      <point x="513" y="538"/>
      <point x="372" y="538" type="curve"/>
      <point x="245" y="538"/>
      <point x="153" y="457"/>
      <point x="111" y="317" type="curve"/>
      <point x="142" y="280"/>
      <point x="135" y="302"/>
    </contour>
    <contour>
      <point x="196" y="0" type="curve"/>
      <point x="196" y="178"/>
      <point x="196" y="355"/>
      <point x="196" y="533" type="curve"/>
      <point x="60" y="533"/>
      <point x="196" y="533"/>
      <point x="60" y="533" type="curve"/>
      <point x="60" y="355"/>
      <point x="60" y="178"/>
      <point x="60" y="0" type="curve"/>
      <point x="196" y="0"/>
      <point x="60" y="0"/>
    </contour>
    <contour>
      <point x="329" y="618" type="move" name="top"/>
    </contour>
    <contour>
      <point x="349" y="17" type="move" name="bottom"/>
    </contour>
  </outline>
</glyph>
<glyph name="p" format="1">
  <advance width="667"/>
  <unicode hex="0070"/>
  <outline>
    <contour>
      <point x="157" y="304" type="curve"/>
      <point x="201" y="380"/>
      <point x="263" y="437"/>
      <point x="349" y="437" type="curve"/>
      <point x="448" y="437"/>
      <point x="495" y="365"/>
      <point x="495" y="264" type="curve"/>
      <point x="497" y="164"/>
      <point x="446" y="96"/>
      <point x="347" y="97" type="curve"/>
      <point x="273" y="97"/>
      <point x="214" y="125"/>
      <point x="159" y="173" type="curve"/>
      <point x="121" y="137"/>
      <point x="141" y="146"/>
      <point x="102" y="110" type="curve"/>
      <point x="173" y="36"/>
      <point x="258" y="-5"/>
      <point x="368" y="-5" type="curve"/>
      <point x="535" y="-5"/>
      <point x="631" y="104"/>
      <point x="630" y="269" type="curve"/>
      <point x="630" y="429"/>
      <point x="539" y="539"/>
      <point x="375" y="539" type="curve"/>
      <point x="257" y="539"/>
      <point x="172" y="476"/>
      <point x="111" y="382" type="curve"/>
      <point x="140" y="328"/>
      <point x="127" y="358"/>
    </contour>
    <contour>
      <point x="196" y="-300" type="curve"/>
      <point x="196" y="-22"/>
      <point x="196" y="255"/>
      <point x="196" y="533" type="curve"/>
      <point x="60" y="533"/>
      <point x="196" y="533"/>
      <point x="60" y="533" type="curve"/>
      <point x="60" y="255"/>
      <point x="60" y="-22"/>
      <point x="60" y="-300" type="curve"/>
      <point x="196" y="-300"/>
      <point x="60" y="-300"/>
    </contour>
  </outline>
</glyph>
<glyph name="q" format="1">
  <advance width="673"/>
  <unicode hex="0071"/>
  <outline>
    <contour>
      <point x="561" y="392" type="curve"/>
      <point x="492" y="482"/>
      <point x="409" y="538"/>
      <point x="297" y="538" type="curve"/>
      <point x="129" y="538"/>
      <point x="35" y="429"/>
      <point x="36" y="263" type="curve"/>
      <point x="36" y="99"/>
      <point x="135" y="-5"/>
      <point x="302" y="-5" type="curve"/>
      <point x="416" y="-5"/>
      <point x="498" y="55"/>
      <point x="574" y="141" type="curve"/>
      <point x="539" y="179"/>
      <point x="546" y="161"/>
      <point x="511" y="199" type="curve"/>
      <point x="463" y="133"/>
      <point x="401" y="97"/>
      <point x="322" y="97" type="curve"/>
      <point x="224" y="97"/>
      <point x="171" y="166"/>
      <point x="171" y="269" type="curve"/>
      <point x="171" y="368"/>
      <point x="224" y="435"/>
      <point x="320" y="435" type="curve"/>
      <point x="400" y="435"/>
      <point x="462" y="396"/>
      <point x="515" y="326" type="curve"/>
      <point x="543" y="368"/>
      <point x="534" y="350"/>
    </contour>
    <contour>
      <point x="612" y="-300" type="curve"/>
      <point x="612" y="-8"/>
      <point x="612" y="241"/>
      <point x="612" y="533" type="curve"/>
      <point x="520" y="533"/>
      <point x="563" y="533"/>
      <point x="471" y="533" type="curve"/>
      <point x="471" y="241"/>
      <point x="471" y="-8"/>
      <point x="471" y="-300" type="curve"/>
      <point x="563" y="-300"/>
      <point x="520" y="-300"/>
    </contour>
  </outline>
</glyph>
<glyph name="r" format="1">
  <advance width="407"/>
  <unicode hex="0072"/>
  <outline>
    <contour>
      <point x="196" y="0" type="curve"/>
      <point x="196" y="190"/>
      <point x="196" y="343"/>
      <point x="196" y="533" type="curve"/>
      <point x="106" y="533"/>
      <point x="150" y="533"/>
      <point x="60" y="533" type="curve"/>
      <point x="60" y="343"/>
      <point x="60" y="190"/>
      <point x="60" y="0" type="curve"/>
      <point x="150" y="0"/>
      <point x="106" y="0"/>
    </contour>
    <contour>
      <point x="163" y="277" type="curve"/>
      <point x="215" y="393"/>
      <point x="291" y="423"/>
      <point x="397" y="423" type="curve"/>
      <point x="397" y="498"/>
      <point x="397" y="463"/>
      <point x="397" y="538" type="curve"/>
      <point x="266" y="538"/>
      <point x="180" y="464"/>
      <point x="118" y="341" type="curve"/>
      <point x="149" y="300"/>
      <point x="133" y="318"/>
    </contour>
    <contour>
      <point x="171" y="618" type="move" name="top"/>
    </contour>
    <contour>
      <point x="160" y="12" type="move" name="bottom"/>
    </contour>
  </outline>
</glyph>
<glyph name="t" format="1">
  <advance width="438"/>
  <unicode hex="0074"/>
  <outline>
    <contour>
      <point x="28" y="431" type="curve"/>
      <point x="411" y="431" type="line"/>
      <point x="411" y="533"/>
      <point x="411" y="431"/>
      <point x="411" y="533" type="curve"/>
      <point x="28" y="533" type="line"/>
      <point x="28" y="431"/>
      <point x="28" y="533"/>
    </contour>
    <contour>
      <point x="387" y="117" type="curve"/>
      <point x="363" y="105"/>
      <point x="344" y="101"/>
      <point x="317" y="101" type="curve"/>
      <point x="273" y="101"/>
      <point x="256" y="127"/>
      <point x="256" y="172" type="curve"/>
      <point x="256" y="686" type="line"/>
      <point x="196" y="648"/>
      <point x="181" y="645"/>
      <point x="121" y="608" type="curve"/>
      <point x="121" y="167" type="line"/>
      <point x="121" y="52"/>
      <point x="187" y="-6"/>
      <point x="301" y="-6" type="curve"/>
      <point x="355" y="-6"/>
      <point x="392" y="9"/>
      <point x="430" y="29" type="curve"/>
      <point x="387" y="117"/>
      <point x="430" y="29"/>
    </contour>
    <contour>
      <point x="330" y="3" type="move" name="bottom"/>
    </contour>
  </outline>
</glyph>
<glyph name="v" format="1">
  <advance width="617"/>
  <unicode hex="0076"/>
  <outline>
    <contour>
      <point x="14" y="533" type="curve"/>
      <point x="86" y="355"/>
      <point x="158" y="178"/>
      <point x="231" y="0" type="curve"/>
      <point x="362" y="0"/>
      <point x="231" y="0"/>
      <point x="362" y="0" type="curve"/>
      <point x="291" y="178"/>
      <point x="223" y="355"/>
      <point x="152" y="533" type="curve"/>
      <point x="14" y="533"/>
      <point x="152" y="533"/>
    </contour>
    <contour>
      <point x="470" y="533" type="curve"/>
      <point x="247" y="0" type="line"/>
      <point x="379" y="0"/>
      <point x="247" y="0"/>
      <point x="379" y="0" type="curve"/>
      <point x="456" y="178"/>
      <point x="531" y="355"/>
      <point x="607" y="533" type="curve"/>
      <point x="470" y="533"/>
      <point x="607" y="533"/>
    </contour>
  </outline>
</glyph>
<glyph name="w" format="1">
  <advance width="949"/>
  <unicode hex="0077"/>
  <outline>
    <contour>
      <point x="332" y="0" type="curve"/>
      <point x="402" y="178"/>
      <point x="473" y="355"/>
      <point x="543" y="533" type="curve"/>
      <point x="414" y="533"/>
      <point x="543" y="533"/>
      <point x="414" y="533" type="curve"/>
      <point x="345" y="355"/>
      <point x="275" y="178"/>
      <point x="206" y="0" type="curve"/>
      <point x="332" y="0"/>
      <point x="206" y="0"/>
    </contour>
    <contour>
      <point x="807" y="533" type="curve"/>
      <point x="742" y="355"/>
      <point x="677" y="178"/>
      <point x="612" y="0" type="curve"/>
      <point x="738" y="0"/>
      <point x="612" y="0"/>
      <point x="738" y="0" type="curve"/>
      <point x="804" y="178"/>
      <point x="870" y="355"/>
      <point x="936" y="533" type="curve"/>
      <point x="807" y="533"/>
      <point x="936" y="533"/>
    </contour>
    <contour>
      <point x="421" y="533" type="curve"/>
      <point x="484" y="355"/>
      <point x="547" y="178"/>
      <point x="611" y="0" type="curve"/>
      <point x="737" y="0"/>
      <point x="611" y="0"/>
      <point x="737" y="0" type="curve"/>
      <point x="675" y="178"/>
      <point x="611" y="355"/>
      <point x="548" y="533" type="curve"/>
      <point x="421" y="533"/>
      <point x="548" y="533"/>
    </contour>
    <contour>
      <point x="15" y="533" type="curve"/>
      <point x="78" y="355"/>
      <point x="142" y="178"/>
      <point x="205" y="0" type="curve"/>
      <point x="331" y="0"/>
      <point x="205" y="0"/>
      <point x="331" y="0" type="curve"/>
      <point x="268" y="178"/>
      <point x="206" y="355"/>
      <point x="143" y="533" type="curve"/>
      <point x="15" y="533"/>
      <point x="143" y="533"/>
    </contour>
  </outline>
</glyph>
<glyph name="x" format="1">
  <advance width="643"/>
  <unicode hex="0078"/>
  <outline>
    <contour>
      <point x="632" y="0" type="curve"/>
      <point x="613" y="23"/>
      <point x="176" y="510"/>
      <point x="157" y="533" type="curve"/>
      <point x="-28" y="533"/>
      <point x="200" y="533"/>
      <point x="15" y="533" type="curve"/>
      <point x="34" y="510"/>
      <point x="462" y="23"/>
      <point x="481" y="0" type="curve"/>
      <point x="632" y="0"/>
      <point x="481" y="0"/>
    </contour>
    <contour>
      <point x="490" y="533" type="curve"/>
      <point x="471" y="510"/>
      <point x="28" y="23"/>
      <point x="8" y="0" type="curve"/>
      <point x="161" y="0"/>
      <point x="8" y="0"/>
      <point x="161" y="0" type="curve"/>
      <point x="181" y="23"/>
      <point x="616" y="510"/>
      <point x="635" y="533" type="curve"/>
      <point x="431" y="533"/>
      <point x="695" y="533"/>
    </contour>
  </outline>
</glyph>
<glyph name="y" format="1">
  <advance width="634"/>
  <unicode hex="0079"/>
  <outline>
    <contour>
      <point x="366" y="-12" type="curve"/>
      <point x="334" y="76"/>
      <point x="180" y="444"/>
      <point x="148" y="533" type="curve"/>
      <point x="9" y="533"/>
      <point x="148" y="533"/>
      <point x="9" y="533" type="curve"/>
      <point x="43" y="445"/>
      <point x="210" y="68"/>
      <point x="245" y="-20" type="curve"/>
      <point x="366" y="-20"/>
      <point x="245" y="-12"/>
    </contour>
    <contour>
      <point x="243" y="-300" type="curve"/>
      <point x="297" y="-167"/>
      <point x="578" y="400"/>
      <point x="632" y="533" type="curve"/>
      <point x="494" y="533"/>
      <point x="632" y="533"/>
      <point x="494" y="533" type="curve"/>
      <point x="440" y="400"/>
      <point x="158" y="-167"/>
      <point x="104" y="-300" type="curve"/>
      <point x="243" y="-300"/>
      <point x="104" y="-300"/>
    </contour>
    <contour>
      <point x="318" y="618" type="move" name="top"/>
    </contour>
  </outline>
</glyph>
<glyph name="braceleft" format="1">
  <advance width="314"/>
  <unicode hex="007B"/>
  <outline>
    <contour>
      <point x="273" y="-8" type="curve"/>
      <point x="230" y="-8"/>
      <point x="213" y="20"/>
      <point x="213" y="62" type="curve"/>
      <point x="213" y="114"/>
      <point x="213" y="165"/>
      <point x="213" y="217" type="curve"/>
      <point x="213" y="327"/>
      <point x="142" y="394"/>
      <point x="32" y="394" type="curve"/>
      <point x="32" y="287"/>
      <point x="32" y="394"/>
      <point x="32" y="287" type="curve"/>
      <point x="70" y="287"/>
      <point x="90" y="265"/>
      <point x="90" y="227" type="curve"/>
      <point x="90" y="174"/>
      <point x="90" y="120"/>
      <point x="90" y="67" type="curve"/>
      <point x="90" y="-44"/>
      <point x="161" y="-110"/>
      <point x="273" y="-110" type="curve"/>
      <point x="273" y="-8"/>
      <point x="273" y="-110"/>
    </contour>
    <contour>
      <point x="273" y="791" type="curve"/>
      <point x="161" y="791"/>
      <point x="90" y="727"/>
      <point x="90" y="617" type="curve"/>
      <point x="90" y="562"/>
      <point x="90" y="507"/>
      <point x="90" y="451" type="curve"/>
      <point x="90" y="414"/>
      <point x="70" y="394"/>
      <point x="32" y="394" type="curve"/>
      <point x="32" y="287"/>
      <point x="32" y="394"/>
      <point x="32" y="287" type="curve"/>
      <point x="143" y="287"/>
      <point x="213" y="355"/>
      <point x="213" y="466" type="curve"/>
      <point x="213" y="517"/>
      <point x="213" y="567"/>
      <point x="213" y="617" type="curve"/>
      <point x="213" y="660"/>
      <point x="230" y="689"/>
      <point x="273" y="689" type="curve"/>
      <point x="273" y="791"/>
      <point x="273" y="689"/>
    </contour>
  </outline>
</glyph>
<glyph name="braceright" format="1">
  <advance width="314"/>
  <unicode hex="007D"/>
  <outline>
    <contour>
      <point x="39" y="-110" type="curve"/>
      <point x="151" y="-110"/>
      <point x="221" y="-44"/>
      <point x="221" y="67" type="curve"/>
      <point x="221" y="120"/>
      <point x="221" y="174"/>
      <point x="221" y="227" type="curve"/>
      <point x="221" y="265"/>
      <point x="241" y="287"/>
      <point x="280" y="287" type="curve"/>
      <point x="280" y="394"/>
      <point x="280" y="287"/>
      <point x="280" y="394" type="curve"/>
      <point x="169" y="394"/>
      <point x="98" y="326"/>
      <point x="98" y="217" type="curve"/>
      <point x="98" y="165"/>
      <point x="98" y="114"/>
      <point x="98" y="62" type="curve"/>
      <point x="98" y="20"/>
      <point x="81" y="-8"/>
      <point x="39" y="-8" type="curve"/>
      <point x="39" y="-110"/>
      <point x="39" y="-8"/>
    </contour>
    <contour>
      <point x="39" y="689" type="curve"/>
      <point x="82" y="689"/>
      <point x="98" y="660"/>
      <point x="98" y="617" type="curve"/>
      <point x="98" y="567"/>
      <point x="98" y="517"/>
      <point x="98" y="466" type="curve"/>
      <point x="98" y="355"/>
      <point x="168" y="287"/>
      <point x="280" y="287" type="curve"/>
      <point x="280" y="394"/>
      <point x="280" y="287"/>
      <point x="280" y="394" type="curve"/>
      <point x="242" y="394"/>
      <point x="221" y="414"/>
      <point x="221" y="451" type="curve"/>
      <point x="221" y="507"/>
      <point x="221" y="562"/>
      <point x="221" y="617" type="curve"/>
      <point x="221" y="727"/>
      <point x="151" y="791"/>
      <point x="39" y="791" type="curve"/>
      <point x="39" y="689"/>
      <point x="39" y="791"/>
    </contour>
  </outline>
</glyph>
<glyph name="asciitilde" format="1">
  <advance width="698"/>
  <unicode hex="007E"/>
  <outline>
    <contour>
      <point x="546" y="376" type="curve"/>
      <point x="530" y="334"/>
      <point x="514" y="299"/>
      <point x="476" y="299" type="curve"/>
      <point x="439" y="299"/>
      <point x="417" y="308"/>
      <point x="386" y="328" type="curve"/>
      <point x="332" y="368"/>
      <point x="296" y="388"/>
      <point x="229" y="388" type="curve"/>
      <point x="129" y="388"/>
      <point x="77" y="339"/>
      <point x="46" y="244" type="curve"/>
      <point x="87" y="227"/>
      <point x="106" y="219"/>
      <point x="147" y="203" type="curve"/>
      <point x="162" y="249"/>
      <point x="182" y="283"/>
      <point x="224" y="283" type="curve"/>
      <point x="257" y="283"/>
      <point x="276" y="275"/>
      <point x="303" y="256" type="curve"/>
      <point x="360" y="216"/>
      <point x="399" y="196"/>
      <point x="470" y="195" type="curve"/>
      <point x="568" y="195"/>
      <point x="614" y="244"/>
      <point x="651" y="335" type="curve"/>
      <point x="609" y="352"/>
      <point x="589" y="360"/>
    </contour>
  </outline>
</glyph>
<glyph name="exclamdown" format="1">
  <advance width="262"/>
  <unicode hex="00A1"/>
  <outline>
    <contour>
      <point x="74" y="303" type="line"/>
      <point x="59" y="-190" type="line"/>
      <point x="204" y="-191" type="line"/>
      <point x="191" y="302" type="line"/>
    </contour>
    <contour>
      <point x="56" y="475" type="curve"/>
      <point x="56" y="430"/>
      <point x="89" y="408"/>
      <point x="133" y="408" type="curve"/>
      <point x="178" y="408"/>
      <point x="209" y="432"/>
      <point x="209" y="475" type="curve"/>
      <point x="58" y="475"/>
      <point x="207" y="475"/>
      <point x="56" y="475" type="curve"/>
      <point x="56" y="521"/>
      <point x="89" y="541"/>
      <point x="134" y="540" type="curve"/>
      <point x="179" y="540"/>
      <point x="209" y="518"/>
      <point x="209" y="475" type="curve"/>
      <point x="58" y="475"/>
      <point x="207" y="475"/>
    </contour>
  </outline>
</glyph>
<glyph name="cent" format="1">
  <advance width="677"/>
  <unicode hex="00A2"/>
  <outline>
    <contour>
      <point x="432" y="-53" type="curve"/>
      <point x="432" y="-13"/>
      <point x="432" y="27"/>
      <point x="432" y="67" type="curve"/>
      <point x="296" y="67"/>
      <point x="432" y="67"/>
      <point x="296" y="67" type="curve"/>
      <point x="296" y="27"/>
      <point x="296" y="-13"/>
      <point x="296" y="-53" type="curve"/>
      <point x="432" y="-53"/>
      <point x="296" y="-53"/>
    </contour>
    <contour>
      <point x="318" y="778" type="curve"/>
      <point x="318" y="742"/>
      <point x="318" y="706"/>
      <point x="318" y="670" type="curve"/>
      <point x="454" y="670"/>
      <point x="318" y="670"/>
      <point x="454" y="670" type="curve"/>
      <point x="454" y="706"/>
      <point x="454" y="742"/>
      <point x="454" y="778" type="curve"/>
      <point x="318" y="778"/>
      <point x="454" y="778"/>
    </contour>
    <contour>
      <point x="644" y="614" type="curve"/>
      <point x="560" y="667"/>
      <point x="493" y="686"/>
      <point x="395" y="686" type="curve"/>
      <point x="180" y="686"/>
      <point x="35" y="572"/>
      <point x="35" y="363" type="curve"/>
      <point x="35" y="166"/>
      <point x="158" y="46"/>
      <point x="357" y="46" type="curve"/>
      <point x="471" y="46"/>
      <point x="552" y="72"/>
      <point x="644" y="140" type="curve"/>
      <point x="568" y="225"/>
      <point x="644" y="140"/>
      <point x="568" y="225" type="curve"/>
      <point x="497" y="177"/>
      <point x="447" y="153"/>
      <point x="370" y="153" type="curve"/>
      <point x="243" y="153"/>
      <point x="170" y="238"/>
      <point x="170" y="369" type="curve"/>
      <point x="170" y="501"/>
      <point x="254" y="580"/>
      <point x="383" y="580" type="curve"/>
      <point x="456" y="580"/>
      <point x="507" y="563"/>
      <point x="578" y="525" type="curve"/>
      <point x="644" y="614"/>
      <point x="578" y="525"/>
    </contour>
  </outline>
</glyph>
<glyph name="sterling" format="1">
  <advance width="527"/>
  <unicode hex="00A3"/>
  <outline>
    <contour>
      <point x="464" y="102" type="curve"/>
      <point x="324" y="102"/>
      <point x="180" y="102"/>
      <point x="41" y="102" type="curve"/>
      <point x="41" y="0"/>
      <point x="41" y="102"/>
      <point x="41" y="0" type="curve"/>
      <point x="180" y="0"/>
      <point x="323" y="0"/>
      <point x="464" y="0" type="curve"/>
      <point x="464" y="102"/>
      <point x="464" y="0"/>
    </contour>
    <contour>
      <point x="412" y="426" type="curve"/>
      <point x="300" y="426"/>
      <point x="184" y="426"/>
      <point x="73" y="426" type="curve"/>
      <point x="73" y="324"/>
      <point x="73" y="426"/>
      <point x="73" y="324" type="curve"/>
      <point x="184" y="324"/>
      <point x="300" y="324"/>
      <point x="412" y="324" type="curve"/>
      <point x="412" y="426"/>
      <point x="412" y="324"/>
    </contour>
    <contour>
      <point x="497" y="662" type="curve"/>
      <point x="444" y="707"/>
      <point x="398" y="721"/>
      <point x="334" y="721" type="curve"/>
      <point x="157" y="721"/>
      <point x="80" y="560"/>
      <point x="127" y="364" type="curve"/>
      <point x="159" y="227"/>
      <point x="138" y="102"/>
      <point x="41" y="102" type="curve"/>
      <point x="41" y="0"/>
      <point x="41" y="102"/>
      <point x="41" y="0" type="curve"/>
      <point x="232" y="0"/>
      <point x="304" y="176"/>
      <point x="255" y="385" type="curve"/>
      <point x="226" y="510"/>
      <point x="245" y="624"/>
      <point x="327" y="624" type="curve"/>
      <point x="369" y="624"/>
      <point x="396" y="610"/>
      <point x="431" y="587" type="curve"/>
      <point x="497" y="662"/>
      <point x="431" y="587"/>
    </contour>
  </outline>
</glyph>
<glyph name="currency" format="1">
  <advance width="680"/>
  <unicode hex="00A4"/>
  <outline>
    <contour>
      <point x="252" y="316" type="curve"/>
      <point x="252" y="370"/>
      <point x="283" y="406"/>
      <point x="338" y="406" type="curve"/>
      <point x="396" y="406"/>
      <point x="428" y="372"/>
      <point x="428" y="316" type="curve"/>
      <point x="428" y="260"/>
      <point x="399" y="221"/>
      <point x="345" y="221" type="curve"/>
      <point x="285" y="221"/>
      <point x="252" y="257"/>
      <point x="252" y="316" type="curve"/>
      <point x="116" y="316"/>
      <point x="255" y="316"/>
      <point x="120" y="316" type="curve"/>
      <point x="120" y="188"/>
      <point x="210" y="119"/>
      <point x="342" y="119" type="curve"/>
      <point x="473" y="119"/>
      <point x="561" y="192"/>
      <point x="561" y="319" type="curve"/>
      <point x="561" y="440"/>
      <point x="475" y="507"/>
      <point x="350" y="507" type="curve"/>
      <point x="215" y="507"/>
      <point x="120" y="443"/>
      <point x="120" y="316" type="curve"/>
      <point x="255" y="316"/>
      <point x="116" y="316"/>
    </contour>
    <contour>
      <point x="473" y="325" type="line"/>
      <point x="637" y="476" type="line"/>
      <point x="534" y="578" type="line"/>
      <point x="383" y="415" type="line"/>
    </contour>
    <contour>
      <point x="386" y="218" type="line"/>
      <point x="537" y="55" type="line"/>
      <point x="640" y="157" type="line"/>
      <point x="476" y="308" type="line"/>
    </contour>
    <contour>
      <point x="204" y="309" type="line"/>
      <point x="41" y="158" type="line"/>
      <point x="143" y="56" type="line"/>
      <point x="294" y="219" type="line"/>
    </contour>
    <contour>
      <point x="298" y="416" type="line"/>
      <point x="147" y="580" type="line"/>
      <point x="44" y="477" type="line"/>
      <point x="208" y="327" type="line"/>
    </contour>
  </outline>
</glyph>
<glyph name="yen" format="1">
  <advance width="700"/>
  <unicode hex="00A5"/>
  <outline>
    <contour>
      <point x="585" y="429" type="curve"/>
      <point x="512" y="429"/>
      <point x="438" y="429"/>
      <point x="365" y="429" type="curve"/>
      <point x="365" y="317"/>
      <point x="365" y="429"/>
      <point x="365" y="317" type="curve"/>
      <point x="438" y="317"/>
      <point x="512" y="317"/>
      <point x="585" y="317" type="curve"/>
      <point x="585" y="429"/>
      <point x="585" y="317"/>
    </contour>
    <contour>
      <point x="335" y="429" type="curve"/>
      <point x="263" y="429"/>
      <point x="191" y="429"/>
      <point x="119" y="429" type="curve"/>
      <point x="119" y="317"/>
      <point x="119" y="429"/>
      <point x="119" y="317" type="curve"/>
      <point x="191" y="317"/>
      <point x="263" y="317"/>
      <point x="335" y="317" type="curve"/>
      <point x="335" y="429"/>
      <point x="335" y="317"/>
    </contour>
    <contour>
      <point x="585" y="276" type="curve"/>
      <point x="430" y="276"/>
      <point x="274" y="276"/>
      <point x="119" y="276" type="curve"/>
      <point x="119" y="164"/>
      <point x="119" y="276"/>
      <point x="119" y="164" type="curve"/>
      <point x="274" y="164"/>
      <point x="430" y="164"/>
      <point x="585" y="164" type="curve"/>
      <point x="585" y="276"/>
      <point x="585" y="164"/>
    </contour>
    <contour>
      <point x="26" y="722" type="curve"/>
      <point x="103" y="600"/>
      <point x="201" y="460"/>
      <point x="277" y="337" type="curve"/>
      <point x="415" y="337"/>
      <point x="268" y="337"/>
      <point x="406" y="337" type="curve"/>
      <point x="328" y="467"/>
      <point x="252" y="593"/>
      <point x="172" y="722" type="curve"/>
      <point x="50" y="722"/>
      <point x="148" y="722"/>
    </contour>
    <contour>
      <point x="538" y="722" type="curve"/>
      <point x="453" y="592"/>
      <point x="372" y="467"/>
      <point x="287" y="337" type="curve"/>
      <point x="424" y="337"/>
      <point x="282" y="337"/>
      <point x="419" y="337" type="curve"/>
      <point x="500" y="460"/>
      <point x="596" y="600"/>
      <point x="677" y="722" type="curve"/>
      <point x="554" y="722"/>
      <point x="660" y="722"/>
    </contour>
    <contour>
      <point x="422" y="0" type="curve"/>
      <point x="422" y="115"/>
      <point x="422" y="227"/>
      <point x="422" y="342" type="curve"/>
      <point x="274" y="342"/>
      <point x="422" y="342"/>
      <point x="274" y="342" type="curve"/>
      <point x="274" y="227"/>
      <point x="274" y="115"/>
      <point x="274" y="0" type="curve"/>
      <point x="422" y="0"/>
      <point x="274" y="0"/>
    </contour>
  </outline>
</glyph>
<glyph name="section" format="1">
  <advance width="545"/>
  <unicode hex="00A7"/>
  <outline>
    <contour>
      <point x="451" y="702" type="curve"/>
      <point x="390" y="733"/>
      <point x="344" y="749"/>
      <point x="278" y="749" type="curve"/>
      <point x="158" y="749"/>
      <point x="71" y="701"/>
      <point x="71" y="597" type="curve"/>
      <point x="71" y="505"/>
      <point x="136" y="460"/>
      <point x="228" y="431" type="curve"/>
      <point x="296" y="411"/>
      <point x="377" y="409"/>
      <point x="377" y="357" type="curve"/>
      <point x="377" y="304"/>
      <point x="330" y="286"/>
      <point x="270" y="276" type="curve"/>
      <point x="350" y="195"/>
      <point x="270" y="276"/>
      <point x="350" y="195" type="curve"/>
      <point x="448" y="216"/>
      <point x="512" y="266"/>
      <point x="512" y="361" type="curve"/>
      <point x="511" y="472"/>
      <point x="409" y="497"/>
      <point x="295" y="528" type="curve"/>
      <point x="249" y="542"/>
      <point x="203" y="554"/>
      <point x="203" y="597" type="curve"/>
      <point x="203" y="631"/>
      <point x="231" y="647"/>
      <point x="271" y="647" type="curve"/>
      <point x="319" y="647"/>
      <point x="347" y="638"/>
      <point x="394" y="617" type="curve"/>
      <point x="451" y="702"/>
      <point x="394" y="617"/>
    </contour>
    <contour>
      <point x="194" y="526" type="curve"/>
      <point x="102" y="501"/>
      <point x="36" y="458"/>
      <point x="36" y="366" type="curve"/>
      <point x="36" y="262"/>
      <point x="122" y="226"/>
      <point x="229" y="197" type="curve"/>
      <point x="286" y="180"/>
      <point x="349" y="172"/>
      <point x="349" y="127" type="curve"/>
      <point x="349" y="91"/>
      <point x="316" y="75"/>
      <point x="275" y="75" type="curve"/>
      <point x="223" y="75"/>
      <point x="190" y="88"/>
      <point x="137" y="115" type="curve"/>
      <point x="71" y="36"/>
      <point x="137" y="115"/>
      <point x="71" y="36" type="curve"/>
      <point x="137" y="-9"/>
      <point x="192" y="-26"/>
      <point x="271" y="-26" type="curve"/>
      <point x="390" y="-26"/>
      <point x="482" y="19"/>
      <point x="482" y="130" type="curve"/>
      <point x="480" y="224"/>
      <point x="411" y="267"/>
      <point x="316" y="293" type="curve"/>
      <point x="247" y="313"/>
      <point x="171" y="316"/>
      <point x="171" y="372" type="curve"/>
      <point x="171" y="419"/>
      <point x="210" y="436"/>
      <point x="262" y="451" type="curve"/>
      <point x="194" y="526"/>
      <point x="262" y="451"/>
    </contour>
  </outline>
</glyph>
<glyph name="dieresis" format="1">
  <advance width="420"/>
  <unicode hex="00A8"/>
  <outline>
    <contour>
      <point x="182" y="623" type="curve"/>
      <point x="182" y="668"/>
      <point x="149" y="690"/>
      <point x="105" y="690" type="curve"/>
      <point x="60" y="690"/>
      <point x="30" y="666"/>
      <point x="30" y="623" type="curve"/>
      <point x="180" y="623"/>
      <point x="32" y="623"/>
      <point x="182" y="623" type="curve"/>
      <point x="182" y="577"/>
      <point x="150" y="557"/>
      <point x="104" y="557" type="curve"/>
      <point x="59" y="557"/>
      <point x="30" y="579"/>
      <point x="30" y="623" type="curve"/>
      <point x="180" y="623"/>
      <point x="32" y="623"/>
    </contour>
    <contour>
      <point x="391" y="623" type="curve"/>
      <point x="391" y="668"/>
      <point x="358" y="690"/>
      <point x="314" y="690" type="curve"/>
      <point x="269" y="690"/>
      <point x="239" y="666"/>
      <point x="239" y="623" type="curve"/>
      <point x="389" y="623"/>
      <point x="241" y="623"/>
      <point x="391" y="623" type="curve"/>
      <point x="391" y="577"/>
      <point x="359" y="557"/>
      <point x="313" y="557" type="curve"/>
      <point x="268" y="557"/>
      <point x="239" y="579"/>
      <point x="239" y="623" type="curve"/>
      <point x="389" y="623"/>
      <point x="241" y="623"/>
    </contour>
    <contour>
      <point x="210" y="561" type="move" name="_top"/>
    </contour>
  </outline>
</glyph>
<glyph name="copyright" format="1">
  <advance width="821"/>
  <unicode hex="00A9"/>
  <outline>
    <contour>
      <point x="147" y="324" type="curve"/>
      <point x="147" y="474"/>
      <point x="258" y="563"/>
      <point x="413" y="563" type="curve"/>
      <point x="564" y="563"/>
      <point x="671" y="471"/>
      <point x="671" y="321" type="curve"/>
      <point x="671" y="177"/>
      <point x="567" y="87"/>
      <point x="421" y="87" type="curve"/>
      <point x="266" y="87"/>
      <point x="147" y="173"/>
      <point x="147" y="324" type="curve"/>
      <point x="38" y="324"/>
      <point x="149" y="324"/>
      <point x="39" y="324" type="curve"/>
      <point x="39" y="121"/>
      <point x="202" y="5"/>
      <point x="416" y="5" type="curve"/>
      <point x="624" y="5"/>
      <point x="778" y="125"/>
      <point x="778" y="326" type="curve"/>
      <point x="778" y="527"/>
      <point x="622" y="645"/>
      <point x="413" y="645" type="curve"/>
      <point x="201" y="645"/>
      <point x="39" y="528"/>
      <point x="39" y="324" type="curve"/>
      <point x="149" y="324"/>
      <point x="38" y="324"/>
    </contour>
    <contour>
      <point x="571" y="453" type="curve"/>
      <point x="531" y="491"/>
      <point x="479" y="512"/>
      <point x="419" y="512" type="curve"/>
      <point x="291" y="512"/>
      <point x="208" y="444"/>
      <point x="208" y="322" type="curve"/>
      <point x="208" y="205"/>
      <point x="283" y="139"/>
      <point x="402" y="139" type="curve"/>
      <point x="470" y="139"/>
      <point x="518" y="150"/>
      <point x="570" y="193" type="curve"/>
      <point x="515" y="252"/>
      <point x="570" y="193"/>
      <point x="515" y="252" type="curve"/>
      <point x="476" y="230"/>
      <point x="446" y="221"/>
      <point x="407" y="221" type="curve"/>
      <point x="345" y="221"/>
      <point x="313" y="263"/>
      <point x="313" y="327" type="curve"/>
      <point x="313" y="391"/>
      <point x="349" y="430"/>
      <point x="414" y="430" type="curve"/>
      <point x="442" y="430"/>
      <point x="475" y="423"/>
      <point x="510" y="402" type="curve"/>
      <point x="574" y="454"/>
      <point x="507" y="400"/>
    </contour>
  </outline>
</glyph>
<glyph name="ordfeminine" format="1">
  <advance width="422"/>
  <unicode hex="00AA"/>
  <outline>
    <contour>
      <point x="368" y="425" type="curve"/>
      <point x="368" y="508"/>
      <point x="368" y="585"/>
      <point x="368" y="668" type="curve"/>
      <point x="368" y="752"/>
      <point x="299" y="778"/>
      <point x="210" y="778" type="curve"/>
      <point x="145" y="778"/>
      <point x="96" y="757"/>
      <point x="57" y="728" type="curve"/>
      <point x="91" y="671"/>
      <point x="61" y="724"/>
      <point x="95" y="668" type="curve"/>
      <point x="118" y="688"/>
      <point x="152" y="708"/>
      <point x="198" y="708" type="curve"/>
      <point x="242" y="708"/>
      <point x="278" y="696"/>
      <point x="278" y="654" type="curve"/>
      <point x="278" y="576"/>
      <point x="278" y="503"/>
      <point x="278" y="425" type="curve"/>
      <point x="366" y="425"/>
      <point x="280" y="425"/>
    </contour>
    <contour>
      <point x="320" y="652" type="curve"/>
      <point x="267" y="646"/>
      <point x="235" y="645"/>
      <point x="181" y="638" type="curve"/>
      <point x="98" y="629"/>
      <point x="36" y="608"/>
      <point x="36" y="531" type="curve"/>
      <point x="36" y="456"/>
      <point x="90" y="422"/>
      <point x="171" y="422" type="curve"/>
      <point x="251" y="422"/>
      <point x="288" y="467"/>
      <point x="343" y="525" type="curve"/>
      <point x="301" y="560"/>
      <point x="342" y="525"/>
      <point x="300" y="560" type="curve"/>
      <point x="266" y="520"/>
      <point x="237" y="489"/>
      <point x="188" y="489" type="curve"/>
      <point x="149" y="489"/>
      <point x="125" y="501"/>
      <point x="125" y="533" type="curve"/>
      <point x="125" y="562"/>
      <point x="151" y="574"/>
      <point x="180" y="577" type="curve"/>
      <point x="237" y="584"/>
      <point x="268" y="587"/>
      <point x="324" y="594" type="curve"/>
      <point x="321" y="651"/>
      <point x="324" y="596"/>
    </contour>
  </outline>
</glyph>
<glyph name="guillemotleft" format="1">
  <advance width="563"/>
  <unicode hex="00AB"/>
  <outline>
    <contour>
      <point x="258" y="474" type="curve"/>
      <point x="207" y="444"/>
      <point x="88" y="376"/>
      <point x="37" y="346" type="curve"/>
      <point x="37" y="234"/>
      <point x="37" y="338"/>
      <point x="37" y="226" type="curve"/>
      <point x="88" y="256"/>
      <point x="207" y="328"/>
      <point x="258" y="358" type="curve"/>
      <point x="258" y="470"/>
      <point x="258" y="362"/>
    </contour>
    <contour>
      <point x="258" y="216" type="curve"/>
      <point x="207" y="246"/>
      <point x="88" y="316"/>
      <point x="37" y="346" type="curve"/>
      <point x="37" y="234"/>
      <point x="37" y="338"/>
      <point x="37" y="226" type="curve"/>
      <point x="88" y="196"/>
      <point x="207" y="130"/>
      <point x="258" y="100" type="curve"/>
      <point x="258" y="212"/>
      <point x="258" y="104"/>
    </contour>
    <contour>
      <point x="505" y="474" type="curve"/>
      <point x="454" y="444"/>
      <point x="335" y="376"/>
      <point x="283" y="346" type="curve"/>
      <point x="283" y="234"/>
      <point x="283" y="338"/>
      <point x="283" y="226" type="curve"/>
      <point x="335" y="256"/>
      <point x="454" y="328"/>
      <point x="505" y="358" type="curve"/>
      <point x="505" y="470"/>
      <point x="505" y="362"/>
    </contour>
    <contour>
      <point x="505" y="216" type="curve"/>
      <point x="454" y="246"/>
      <point x="335" y="316"/>
      <point x="283" y="346" type="curve"/>
      <point x="283" y="234"/>
      <point x="283" y="338"/>
      <point x="283" y="226" type="curve"/>
      <point x="335" y="196"/>
      <point x="454" y="130"/>
      <point x="505" y="100" type="curve"/>
      <point x="505" y="212"/>
      <point x="505" y="104"/>
    </contour>
  </outline>
</glyph>
<glyph name="logicalnot" format="1">
  <advance width="641"/>
  <unicode hex="00AC"/>
  <outline>
    <contour>
      <point x="58" y="258" type="curve"/>
      <point x="581" y="258" type="line"/>
      <point x="581" y="369"/>
      <point x="581" y="258"/>
      <point x="581" y="369" type="curve"/>
      <point x="58" y="369" type="line"/>
      <point x="58" y="258"/>
      <point x="58" y="369"/>
    </contour>
    <contour>
      <point x="581" y="140" type="curve"/>
      <point x="581" y="369" type="line"/>
      <point x="446" y="369"/>
      <point x="586" y="369"/>
      <point x="451" y="369" type="curve"/>
      <point x="451" y="140" type="line"/>
      <point x="586" y="140"/>
      <point x="446" y="140"/>
    </contour>
  </outline>
</glyph>
<glyph name="registered" format="1">
  <advance width="824"/>
  <unicode hex="00AE"/>
  <outline>
    <contour>
      <point x="139" y="323" type="curve"/>
      <point x="139" y="485"/>
      <point x="251" y="571"/>
      <point x="416" y="571" type="curve"/>
      <point x="578" y="571"/>
      <point x="685" y="481"/>
      <point x="685" y="321" type="curve"/>
      <point x="685" y="164"/>
      <point x="581" y="77"/>
      <point x="424" y="77" type="curve"/>
      <point x="256" y="77"/>
      <point x="139" y="160"/>
      <point x="139" y="323" type="curve"/>
      <point x="102" y="323"/>
      <point x="80" y="323"/>
      <point x="43" y="323" type="curve"/>
      <point x="43" y="111"/>
      <point x="199" y="4"/>
      <point x="419" y="4" type="curve"/>
      <point x="634" y="4"/>
      <point x="781" y="116"/>
      <point x="781" y="325" type="curve"/>
      <point x="781" y="534"/>
      <point x="632" y="644"/>
      <point x="416" y="644" type="curve"/>
      <point x="196" y="644"/>
      <point x="43" y="535"/>
      <point x="43" y="323" type="curve"/>
      <point x="80" y="323"/>
      <point x="102" y="323"/>
    </contour>
    <contour>
      <point x="369" y="317" type="curve"/>
      <point x="392" y="288"/>
      <point x="453" y="172"/>
      <point x="476" y="142" type="curve"/>
      <point x="533" y="142"/>
      <point x="516" y="141"/>
      <point x="582" y="141" type="curve"/>
      <point x="558" y="173"/>
      <point x="499" y="281"/>
      <point x="477" y="312" type="curve"/>
      <point x="355" y="312"/>
      <point x="490" y="317"/>
    </contour>
    <contour>
      <point x="381" y="142" type="curve"/>
      <point x="381" y="251"/>
      <point x="381" y="397"/>
      <point x="381" y="506" type="curve"/>
      <point x="319" y="506"/>
      <point x="342" y="507"/>
      <point x="277" y="507" type="curve"/>
      <point x="277" y="398"/>
      <point x="277" y="251"/>
      <point x="277" y="142" type="curve"/>
      <point x="345" y="142"/>
      <point x="313" y="142"/>
    </contour>
    <contour>
      <point x="334" y="272" type="curve"/>
      <point x="353" y="272"/>
      <point x="374" y="272"/>
      <point x="393" y="272" type="curve"/>
      <point x="490" y="272"/>
      <point x="561" y="300"/>
      <point x="561" y="392" type="curve"/>
      <point x="561" y="470"/>
      <point x="499" y="507"/>
      <point x="416" y="507" type="curve"/>
      <point x="406" y="507"/>
      <point x="350" y="507"/>
      <point x="340" y="507" type="curve"/>
      <point x="277" y="441"/>
      <point x="386" y="507"/>
      <point x="277" y="425" type="curve"/>
      <point x="317" y="425"/>
      <point x="356" y="425"/>
      <point x="396" y="425" type="curve"/>
      <point x="430" y="425"/>
      <point x="458" y="418"/>
      <point x="458" y="388" type="curve"/>
      <point x="458" y="360"/>
      <point x="437" y="353"/>
      <point x="408" y="353" type="curve"/>
      <point x="383" y="353"/>
      <point x="358" y="353"/>
      <point x="334" y="353" type="curve"/>
      <point x="334" y="272"/>
      <point x="334" y="353"/>
    </contour>
  </outline>
</glyph>
<glyph name="macron" format="1">
  <advance width="350"/>
  <unicode hex="00AF"/>
  <outline>
    <contour>
      <point x="260" y="671" type="curve"/>
      <point x="182" y="671"/>
      <point x="104" y="671"/>
      <point x="26" y="671" type="curve"/>
      <point x="26" y="570"/>
      <point x="26" y="671"/>
      <point x="26" y="570" type="curve"/>
      <point x="104" y="570"/>
      <point x="182" y="570"/>
      <point x="260" y="570" type="curve"/>
      <point x="260" y="671"/>
      <point x="260" y="570"/>
    </contour>
    <contour>
      <point x="144" y="570" type="move" name="_top"/>
    </contour>
  </outline>
</glyph>
<glyph name="degree" format="1">
  <advance width="488"/>
  <unicode hex="00B0"/>
  <outline>
    <contour>
      <point x="454" y="535" type="curve"/>
      <point x="454" y="658"/>
      <point x="371" y="730"/>
      <point x="245" y="730" type="curve"/>
      <point x="118" y="730"/>
      <point x="35" y="659"/>
      <point x="35" y="536" type="curve"/>
      <point x="121" y="536"/>
      <point x="65" y="536"/>
      <point x="150" y="536" type="curve"/>
      <point x="150" y="594"/>
      <point x="183" y="634"/>
      <point x="243" y="634" type="curve"/>
      <point x="301" y="634"/>
      <point x="336" y="596"/>
      <point x="336" y="535" type="curve"/>
      <point x="336" y="473"/>
      <point x="304" y="432"/>
      <point x="245" y="432" type="curve"/>
      <point x="184" y="432"/>
      <point x="150" y="474"/>
      <point x="150" y="536" type="curve"/>
      <point x="65" y="536"/>
      <point x="121" y="536"/>
      <point x="35" y="536" type="curve"/>
      <point x="35" y="410"/>
      <point x="116" y="336"/>
      <point x="243" y="336" type="curve"/>
      <point x="371" y="336"/>
      <point x="454" y="409"/>
    </contour>
  </outline>
</glyph>
<glyph name="plusminus" format="1">
  <advance width="660"/>
  <unicode hex="00B1"/>
  <outline>
    <contour>
      <point x="48" y="34" type="line"/>
      <point x="613" y="34" type="line"/>
      <point x="613" y="145" type="line"/>
      <point x="48" y="145" type="line"/>
    </contour>
    <contour>
      <point x="48" y="258" type="curve"/>
      <point x="613" y="258" type="line"/>
      <point x="613" y="369"/>
      <point x="613" y="258"/>
      <point x="613" y="369" type="curve"/>
      <point x="48" y="369" type="line"/>
      <point x="48" y="258"/>
      <point x="48" y="369"/>
    </contour>
    <contour>
      <point x="395" y="34" type="curve"/>
      <point x="395" y="584" type="line"/>
      <point x="260" y="584"/>
      <point x="404" y="584"/>
      <point x="269" y="584" type="curve"/>
      <point x="269" y="34" type="line"/>
      <point x="404" y="34"/>
      <point x="260" y="34"/>
    </contour>
  </outline>
</glyph>
<glyph name="twosuperior" format="1">
  <advance width="479"/>
  <unicode hex="00B2"/>
  <outline>
    <contour>
      <point x="38" y="315" type="curve"/>
      <point x="192" y="315"/>
      <point x="321" y="315"/>
      <point x="435" y="315" type="curve"/>
      <point x="435" y="365"/>
      <point x="435" y="362"/>
      <point x="435" y="408" type="curve"/>
      <point x="308" y="408"/>
      <point x="166" y="408"/>
      <point x="38" y="408" type="curve"/>
      <point x="38" y="315"/>
      <point x="38" y="408"/>
    </contour>
    <contour>
      <point x="136" y="610" type="curve"/>
      <point x="160" y="643"/>
      <point x="184" y="663"/>
      <point x="223" y="663" type="curve"/>
      <point x="262" y="663"/>
      <point x="289" y="646"/>
      <point x="289" y="612" type="curve"/>
      <point x="289" y="576"/>
      <point x="262" y="559"/>
      <point x="234" y="536" type="curve"/>
      <point x="169" y="493"/>
      <point x="103" y="451"/>
      <point x="38" y="408" type="curve"/>
      <point x="40" y="317"/>
      <point x="41" y="408"/>
      <point x="42" y="317" type="curve"/>
      <point x="141" y="374"/>
      <point x="232" y="417"/>
      <point x="302" y="464" type="curve"/>
      <point x="362" y="510"/>
      <point x="411" y="544"/>
      <point x="411" y="616" type="curve"/>
      <point x="411" y="711"/>
      <point x="336" y="756"/>
      <point x="234" y="756" type="curve"/>
      <point x="151" y="756"/>
      <point x="89" y="729"/>
      <point x="51" y="657" type="curve"/>
      <point x="136" y="610"/>
      <point x="51" y="657"/>
    </contour>
    <contour>
      <point x="230" y="755" type="move" name="_top"/>
    </contour>
    <contour>
      <point x="237" y="316" type="move" name="_bottom"/>
    </contour>
  </outline>
</glyph>
<glyph name="threesuperior" format="1">
  <advance width="424"/>
  <unicode hex="00B3"/>
  <outline>
    <contour>
      <point x="95" y="629" type="curve"/>
      <point x="123" y="651"/>
      <point x="153" y="663"/>
      <point x="180" y="663" type="curve"/>
      <point x="219" y="663"/>
      <point x="247" y="651"/>
      <point x="247" y="619" type="curve"/>
      <point x="247" y="582"/>
      <point x="190" y="575"/>
      <point x="137" y="573" type="curve"/>
      <point x="137" y="496"/>
      <point x="137" y="573"/>
      <point x="137" y="496" type="curve"/>
      <point x="262" y="498"/>
      <point x="371" y="519"/>
      <point x="371" y="626" type="curve"/>
      <point x="371" y="719"/>
      <point x="294" y="753"/>
      <point x="193" y="753" type="curve"/>
      <point x="132" y="753"/>
      <point x="77" y="731"/>
      <point x="36" y="693" type="curve"/>
      <point x="95" y="629"/>
      <point x="36" y="693"/>
    </contour>
    <contour>
      <point x="34" y="346" type="curve"/>
      <point x="78" y="323"/>
      <point x="121" y="308"/>
      <point x="171" y="308" type="curve"/>
      <point x="294" y="306"/>
      <point x="389" y="338"/>
      <point x="387" y="446" type="curve"/>
      <point x="387" y="559"/>
      <point x="267" y="561"/>
      <point x="137" y="564" type="curve"/>
      <point x="137" y="495"/>
      <point x="137" y="564"/>
      <point x="137" y="495" type="curve"/>
      <point x="202" y="493"/>
      <point x="263" y="486"/>
      <point x="263" y="445" type="curve"/>
      <point x="263" y="408"/>
      <point x="227" y="395"/>
      <point x="183" y="396" type="curve"/>
      <point x="152" y="396"/>
      <point x="123" y="402"/>
      <point x="86" y="417" type="curve"/>
      <point x="34" y="346"/>
      <point x="86" y="417"/>
    </contour>
    <contour>
      <point x="205" y="754" type="move" name="_top"/>
    </contour>
    <contour>
      <point x="197" y="308" type="move" name="_bottom"/>
    </contour>
  </outline>
</glyph>
<glyph name="acute" format="1">
  <advance width="255"/>
  <unicode hex="00B4"/>
  <outline>
    <contour>
      <point x="88" y="589" type="line"/>
      <point x="246" y="755" type="line"/>
      <point x="74" y="755" type="line"/>
      <point x="-44" y="589" type="line"/>
    </contour>
    <contour>
      <point x="31" y="590" type="move" name="_top"/>
    </contour>
  </outline>
</glyph>
<glyph name="paragraph" format="1">
  <advance width="832"/>
  <unicode hex="00B6"/>
  <outline>
    <contour>
      <point x="473" y="620" type="curve"/>
      <point x="640" y="620"/>
      <point x="473" y="620"/>
      <point x="640" y="620" type="curve"/>
      <point x="640" y="722"/>
      <point x="640" y="620"/>
      <point x="640" y="722" type="curve"/>
      <point x="584" y="722"/>
      <point x="528" y="722"/>
      <point x="473" y="722" type="curve"/>
      <point x="473" y="620"/>
      <point x="473" y="722"/>
    </contour>
    <contour>
      <point x="450" y="385" type="curve"/>
      <point x="399" y="363"/>
      <point x="360" y="351"/>
      <point x="304" y="351" type="curve"/>
      <point x="221" y="351"/>
      <point x="163" y="394"/>
      <point x="163" y="476" type="curve"/>
      <point x="163" y="575"/>
      <point x="242" y="620"/>
      <point x="347" y="620" type="curve"/>
      <point x="388" y="620"/>
      <point x="429" y="620"/>
      <point x="469" y="620" type="curve"/>
      <point x="469" y="722"/>
      <point x="469" y="620"/>
      <point x="469" y="722" type="curve"/>
      <point x="423" y="722"/>
      <point x="376" y="722"/>
      <point x="328" y="722" type="curve"/>
      <point x="157" y="722"/>
      <point x="28" y="641"/>
      <point x="28" y="481" type="curve"/>
      <point x="28" y="326"/>
      <point x="151" y="254"/>
      <point x="316" y="251" type="curve"/>
      <point x="381" y="251"/>
      <point x="434" y="271"/>
      <point x="492" y="297" type="curve"/>
      <point x="450" y="385"/>
      <point x="492" y="298"/>
    </contour>
    <contour>
      <point x="541" y="0" type="curve"/>
      <point x="541" y="241"/>
      <point x="541" y="481"/>
      <point x="541" y="722" type="curve"/>
      <point x="406" y="722"/>
      <point x="541" y="722"/>
      <point x="406" y="722" type="curve"/>
      <point x="406" y="481"/>
      <point x="406" y="241"/>
      <point x="406" y="0" type="curve"/>
      <point x="541" y="0"/>
      <point x="406" y="0"/>
    </contour>
    <contour>
      <point x="768" y="0" type="curve"/>
      <point x="768" y="241"/>
      <point x="768" y="481"/>
      <point x="768" y="722" type="curve"/>
      <point x="633" y="722"/>
      <point x="768" y="722"/>
      <point x="633" y="722" type="curve"/>
      <point x="633" y="481"/>
      <point x="633" y="241"/>
      <point x="633" y="0" type="curve"/>
      <point x="768" y="0"/>
      <point x="633" y="0"/>
    </contour>
  </outline>
</glyph>
<glyph name="periodcentered" format="1">
  <advance width="237"/>
  <unicode hex="00B7"/>
  <outline>
    <contour>
      <point x="194" y="440" type="curve"/>
      <point x="194" y="485"/>
      <point x="162" y="507"/>
      <point x="117" y="507" type="curve"/>
      <point x="73" y="507"/>
      <point x="42" y="483"/>
      <point x="42" y="440" type="curve"/>
      <point x="193" y="440"/>
      <point x="44" y="440"/>
      <point x="194" y="440" type="curve"/>
      <point x="194" y="394"/>
      <point x="162" y="374"/>
      <point x="117" y="374" type="curve"/>
      <point x="72" y="374"/>
      <point x="42" y="396"/>
      <point x="42" y="440" type="curve"/>
      <point x="193" y="440"/>
      <point x="44" y="440"/>
    </contour>
  </outline>
</glyph>
<glyph name="cedilla" format="1">
  <advance width="334"/>
  <unicode hex="00B8"/>
  <outline>
    <contour>
      <point x="142" y="154" type="curve"/>
      <point x="128" y="132"/>
      <point x="71" y="40"/>
      <point x="57" y="18" type="curve"/>
      <point x="150" y="-63"/>
      <point x="57" y="18"/>
      <point x="150" y="-63" type="curve"/>
      <point x="167" y="-37"/>
      <point x="230" y="57"/>
      <point x="246" y="84" type="curve"/>
      <point x="142" y="154"/>
      <point x="246" y="84"/>
    </contour>
    <contour>
      <point x="150" y="-63" type="curve"/>
      <point x="156" y="-59"/>
      <point x="161" y="-56"/>
      <point x="168" y="-56" type="curve"/>
      <point x="179" y="-56"/>
      <point x="187" y="-61"/>
      <point x="187" y="-72" type="curve"/>
      <point x="187" y="-88"/>
      <point x="172" y="-94"/>
      <point x="154" y="-94" type="curve"/>
      <point x="131" y="-94"/>
      <point x="111" y="-87"/>
      <point x="84" y="-75" type="curve"/>
      <point x="41" y="-151"/>
      <point x="84" y="-75"/>
      <point x="41" y="-151" type="curve"/>
      <point x="77" y="-169"/>
      <point x="107" y="-178"/>
      <point x="148" y="-178" type="curve"/>
      <point x="232" y="-178"/>
      <point x="295" y="-148"/>
      <point x="295" y="-69" type="curve"/>
      <point x="295" y="3"/>
      <point x="242" y="41"/>
      <point x="167" y="41" type="curve"/>
      <point x="125" y="41"/>
      <point x="96" y="34"/>
      <point x="57" y="18" type="curve"/>
      <point x="150" y="-63"/>
      <point x="57" y="18"/>
    </contour>
    <contour>
      <point x="230" y="84" type="move" name="_bottom"/>
    </contour>
  </outline>
</glyph>
<glyph name="onesuperior" format="1">
  <advance width="312"/>
  <unicode hex="00B9"/>
  <outline>
    <contour>
      <point x="69" y="578" type="line"/>
      <point x="253" y="745" type="line"/>
      <point x="130" y="746" type="line"/>
      <point x="10" y="646" type="line"/>
    </contour>
    <contour>
      <point x="253" y="316" type="curve"/>
      <point x="253" y="746" type="line"/>
      <point x="130" y="746" type="line"/>
      <point x="130" y="316" type="line"/>
      <point x="218" y="316"/>
      <point x="169" y="316"/>
    </contour>
    <contour>
      <point x="181" y="745" type="move" name="_top"/>
    </contour>
    <contour>
      <point x="193" y="316" type="move" name="_bottom"/>
    </contour>
  </outline>
</glyph>
<glyph name="ordmasculine" format="1">
  <advance width="449"/>
  <unicode hex="00BA"/>
  <outline>
    <contour>
      <point x="122" y="601" type="curve"/>
      <point x="122" y="664"/>
      <point x="156" y="709"/>
      <point x="221" y="709" type="curve"/>
      <point x="289" y="709"/>
      <point x="325" y="665"/>
      <point x="325" y="600" type="curve"/>
      <point x="325" y="532"/>
      <point x="290" y="490"/>
      <point x="228" y="490" type="curve"/>
      <point x="158" y="490"/>
      <point x="122" y="532"/>
      <point x="122" y="601" type="curve"/>
      <point x="69" y="601"/>
      <point x="86" y="601"/>
      <point x="34" y="601" type="curve"/>
      <point x="34" y="485"/>
      <point x="107" y="420"/>
      <point x="224" y="420" type="curve"/>
      <point x="341" y="420"/>
      <point x="416" y="483"/>
      <point x="416" y="600" type="curve"/>
      <point x="416" y="713"/>
      <point x="343" y="779"/>
      <point x="225" y="779" type="curve"/>
      <point x="107" y="779"/>
      <point x="34" y="713"/>
      <point x="34" y="601" type="curve"/>
      <point x="86" y="601"/>
      <point x="69" y="601"/>
    </contour>
  </outline>
</glyph>
<glyph name="guillemotright" format="1">
  <advance width="562"/>
  <unicode hex="00BB"/>
  <outline>
    <contour>
      <point x="304" y="474" type="curve"/>
      <point x="355" y="444"/>
      <point x="474" y="376"/>
      <point x="526" y="346" type="curve"/>
      <point x="526" y="234"/>
      <point x="526" y="338"/>
      <point x="526" y="226" type="curve"/>
      <point x="474" y="256"/>
      <point x="355" y="328"/>
      <point x="304" y="358" type="curve"/>
      <point x="304" y="470"/>
      <point x="304" y="362"/>
    </contour>
    <contour>
      <point x="304" y="216" type="curve"/>
      <point x="355" y="246"/>
      <point x="474" y="316"/>
      <point x="526" y="346" type="curve"/>
      <point x="526" y="234"/>
      <point x="526" y="338"/>
      <point x="526" y="226" type="curve"/>
      <point x="474" y="196"/>
      <point x="355" y="130"/>
      <point x="304" y="100" type="curve"/>
      <point x="304" y="212"/>
      <point x="304" y="104"/>
    </contour>
    <contour>
      <point x="57" y="474" type="curve"/>
      <point x="109" y="444"/>
      <point x="228" y="376"/>
      <point x="279" y="346" type="curve"/>
      <point x="279" y="234"/>
      <point x="279" y="338"/>
      <point x="279" y="226" type="curve"/>
      <point x="228" y="256"/>
      <point x="109" y="328"/>
      <point x="57" y="358" type="curve"/>
      <point x="57" y="470"/>
      <point x="57" y="362"/>
    </contour>
    <contour>
      <point x="57" y="216" type="curve"/>
      <point x="108" y="246"/>
      <point x="228" y="316"/>
      <point x="279" y="346" type="curve"/>
      <point x="279" y="234"/>
      <point x="279" y="338"/>
      <point x="279" y="226" type="curve"/>
      <point x="228" y="196"/>
      <point x="108" y="130"/>
      <point x="57" y="100" type="curve"/>
      <point x="57" y="212"/>
      <point x="57" y="104"/>
    </contour>
  </outline>
</glyph>
<glyph name="onequarter" format="1">
  <advance width="1014"/>
  <unicode hex="00BC"/>
  <outline>
    <contour>
      <point x="348" y="-41" type="line"/>
      <point x="792" y="712" type="line"/>
      <point x="668" y="712" type="line"/>
      <point x="224" y="-41" type="line"/>
    </contour>
    <contour>
      <point x="82" y="544" type="line"/>
      <point x="266" y="711" type="line"/>
      <point x="143" y="712" type="line"/>
      <point x="23" y="612" type="line"/>
    </contour>
    <contour>
      <point x="266" y="282" type="curve"/>
      <point x="266" y="712" type="line"/>
      <point x="143" y="712" type="line"/>
      <point x="143" y="282" type="line"/>
      <point x="231" y="282"/>
      <point x="182" y="282"/>
    </contour>
    <contour>
      <point x="982" y="173" type="line"/>
      <point x="583" y="173" type="line"/>
      <point x="583" y="83" type="line"/>
      <point x="982" y="83" type="line"/>
    </contour>
    <contour>
      <point x="617" y="92" type="line"/>
      <point x="875" y="390" type="line"/>
      <point x="781" y="405" type="line"/>
      <point x="583" y="173" type="line"/>
    </contour>
    <contour>
      <point x="905" y="-41" type="line"/>
      <point x="905" y="405" type="line"/>
      <point x="781" y="405" type="line"/>
      <point x="781" y="-41" type="line"/>
    </contour>
  </outline>
</glyph>
<glyph name="onehalf" format="1">
  <advance width="1087"/>
  <unicode hex="00BD"/>
  <outline>
    <contour>
      <point x="366" y="-41" type="line"/>
      <point x="810" y="712" type="line"/>
      <point x="686" y="712" type="line"/>
      <point x="242" y="-41" type="line"/>
    </contour>
    <contour>
      <point x="82" y="544" type="line"/>
      <point x="266" y="711" type="line"/>
      <point x="143" y="712" type="line"/>
      <point x="23" y="612" type="line"/>
    </contour>
    <contour>
      <point x="266" y="282" type="curve"/>
      <point x="266" y="712" type="line"/>
      <point x="143" y="712" type="line"/>
      <point x="143" y="282" type="line"/>
      <point x="231" y="282"/>
      <point x="182" y="282"/>
    </contour>
    <contour>
      <point x="655" y="-42" type="curve"/>
      <point x="809" y="-42"/>
      <point x="938" y="-42"/>
      <point x="1052" y="-42" type="curve"/>
      <point x="1052" y="8"/>
      <point x="1052" y="4"/>
      <point x="1052" y="50" type="curve"/>
      <point x="925" y="50"/>
      <point x="783" y="50"/>
      <point x="655" y="50" type="curve"/>
      <point x="655" y="-42"/>
      <point x="655" y="50"/>
    </contour>
    <contour>
      <point x="753" y="253" type="curve"/>
      <point x="777" y="286"/>
      <point x="801" y="305"/>
      <point x="840" y="305" type="curve"/>
      <point x="879" y="305"/>
      <point x="906" y="288"/>
      <point x="906" y="254" type="curve"/>
      <point x="906" y="218"/>
      <point x="879" y="201"/>
      <point x="851" y="178" type="curve"/>
      <point x="785" y="135"/>
      <point x="720" y="93"/>
      <point x="655" y="50" type="curve"/>
      <point x="657" y="-40"/>
      <point x="658" y="50"/>
      <point x="659" y="-40" type="curve"/>
      <point x="758" y="16"/>
      <point x="849" y="59"/>
      <point x="919" y="107" type="curve"/>
      <point x="979" y="153"/>
      <point x="1028" y="186"/>
      <point x="1028" y="258" type="curve"/>
      <point x="1028" y="354"/>
      <point x="953" y="398"/>
      <point x="851" y="398" type="curve"/>
      <point x="768" y="398"/>
      <point x="706" y="372"/>
      <point x="668" y="299" type="curve"/>
      <point x="753" y="253"/>
      <point x="668" y="299"/>
    </contour>
  </outline>
</glyph>
<glyph name="threequarters" format="1">
  <advance width="1027"/>
  <unicode hex="00BE"/>
  <outline>
    <contour>
      <point x="375" y="-41" type="line"/>
      <point x="819" y="712" type="line"/>
      <point x="696" y="712" type="line"/>
      <point x="251" y="-41" type="line"/>
    </contour>
    <contour>
      <point x="93" y="586" type="curve"/>
      <point x="121" y="609"/>
      <point x="152" y="620"/>
      <point x="178" y="620" type="curve"/>
      <point x="217" y="620"/>
      <point x="245" y="609"/>
      <point x="245" y="577" type="curve"/>
      <point x="245" y="539"/>
      <point x="189" y="533"/>
      <point x="136" y="531" type="curve"/>
      <point x="136" y="454"/>
      <point x="136" y="531"/>
      <point x="136" y="454" type="curve"/>
      <point x="260" y="456"/>
      <point x="369" y="477"/>
      <point x="369" y="584" type="curve"/>
      <point x="369" y="677"/>
      <point x="292" y="711"/>
      <point x="191" y="711" type="curve"/>
      <point x="131" y="711"/>
      <point x="75" y="688"/>
      <point x="34" y="650" type="curve"/>
      <point x="93" y="586"/>
      <point x="34" y="650"/>
    </contour>
    <contour>
      <point x="32" y="304" type="curve"/>
      <point x="77" y="281"/>
      <point x="120" y="266"/>
      <point x="169" y="266" type="curve"/>
      <point x="292" y="263"/>
      <point x="387" y="296"/>
      <point x="385" y="404" type="curve"/>
      <point x="385" y="517"/>
      <point x="265" y="519"/>
      <point x="136" y="522" type="curve"/>
      <point x="136" y="453"/>
      <point x="136" y="522"/>
      <point x="136" y="453" type="curve"/>
      <point x="201" y="451"/>
      <point x="261" y="444"/>
      <point x="261" y="402" type="curve"/>
      <point x="261" y="365"/>
      <point x="226" y="353"/>
      <point x="181" y="354" type="curve"/>
      <point x="151" y="354"/>
      <point x="122" y="360"/>
      <point x="85" y="375" type="curve"/>
      <point x="32" y="304"/>
      <point x="85" y="375"/>
    </contour>
    <contour>
      <point x="1000" y="173" type="line"/>
      <point x="601" y="173" type="line"/>
      <point x="601" y="83" type="line"/>
      <point x="1000" y="83" type="line"/>
    </contour>
    <contour>
      <point x="635" y="92" type="line"/>
      <point x="893" y="390" type="line"/>
      <point x="800" y="405" type="line"/>
      <point x="601" y="173" type="line"/>
    </contour>
    <contour>
      <point x="923" y="-41" type="line"/>
      <point x="923" y="405" type="line"/>
      <point x="800" y="405" type="line"/>
      <point x="800" y="-41" type="line"/>
    </contour>
  </outline>
</glyph>
<glyph name="questiondown" format="1">
  <advance width="555"/>
  <unicode hex="00BF"/>
  <outline>
    <contour>
      <point x="360" y="343" type="curve"/>
      <point x="360" y="380"/>
      <point x="360" y="461"/>
      <point x="360" y="498" type="curve"/>
      <point x="230" y="498"/>
      <point x="360" y="498"/>
      <point x="230" y="498" type="curve"/>
      <point x="230" y="461"/>
      <point x="230" y="380"/>
      <point x="230" y="343" type="curve"/>
      <point x="360" y="343"/>
      <point x="230" y="343"/>
    </contour>
    <contour>
      <point x="446" y="142" type="line"/>
      <point x="410" y="105"/>
      <point x="360" y="77"/>
      <point x="298" y="77" type="curve"/>
      <point x="216" y="77"/>
      <point x="159" y="120"/>
      <point x="159" y="200" type="curve"/>
      <point x="159" y="292"/>
      <point x="237" y="343"/>
      <point x="346" y="343" type="curve"/>
      <point x="346" y="381"/>
      <point x="346" y="406"/>
      <point x="346" y="443" type="curve"/>
      <point x="163" y="443"/>
      <point x="30" y="358"/>
      <point x="30" y="200" type="curve"/>
      <point x="30" y="51"/>
      <point x="140" y="-30"/>
      <point x="292" y="-30" type="curve"/>
      <point x="385" y="-30"/>
      <point x="456" y="0"/>
      <point x="516" y="62" type="curve"/>
    </contour>
    <contour>
      <point x="218" y="684" type="curve"/>
      <point x="218" y="639"/>
      <point x="251" y="617"/>
      <point x="295" y="617" type="curve"/>
      <point x="339" y="617"/>
      <point x="369" y="641"/>
      <point x="369" y="684" type="curve"/>
      <point x="218" y="684"/>
      <point x="369" y="684"/>
      <point x="218" y="684" type="curve"/>
      <point x="218" y="730"/>
      <point x="250" y="749"/>
      <point x="295" y="749" type="curve"/>
      <point x="340" y="749"/>
      <point x="369" y="727"/>
      <point x="369" y="684" type="curve"/>
      <point x="218" y="684"/>
      <point x="369" y="684"/>
    </contour>
  </outline>
</glyph>
<glyph name="Aacute" format="1">
  <advance width="745"/>
  <unicode hex="00C1"/>
  <outline>
    <contour>
      <point x="540" y="302" type="curve"/>
      <point x="432" y="302"/>
      <point x="323" y="302"/>
      <point x="215" y="302" type="curve"/>
      <point x="159" y="195"/>
      <point x="215" y="302"/>
      <point x="159" y="195" type="curve"/>
      <point x="301" y="195"/>
      <point x="442" y="195"/>
      <point x="583" y="195" type="curve"/>
      <point x="540" y="302"/>
      <point x="583" y="195"/>
    </contour>
    <contour>
      <point x="734" y="0" type="curve"/>
      <point x="640" y="241"/>
      <point x="540" y="481"/>
      <point x="445" y="722" type="curve"/>
      <point x="322" y="722"/>
      <point x="445" y="722"/>
      <point x="322" y="722" type="curve"/>
      <point x="414" y="482"/>
      <point x="500" y="240"/>
      <point x="593" y="0" type="curve"/>
      <point x="734" y="0"/>
      <point x="593" y="0"/>
    </contour>
    <contour>
      <point x="143" y="0" type="curve"/>
      <point x="246" y="240"/>
      <point x="340" y="482"/>
      <point x="444" y="722" type="curve"/>
      <point x="321" y="722"/>
      <point x="444" y="722"/>
      <point x="321" y="722" type="curve"/>
      <point x="215" y="480"/>
      <point x="101" y="242"/>
      <point x="-4" y="0" type="curve"/>
      <point x="143" y="0"/>
      <point x="-4" y="0"/>
    </contour>
    <contour>
      <point x="438" y="785" type="line"/>
      <point x="597" y="951" type="line"/>
      <point x="424" y="951" type="line"/>
      <point x="306" y="785" type="line"/>
    </contour>
  </outline>
</glyph>
<glyph name="Atilde" format="1">
  <advance width="745"/>
  <unicode hex="00C3"/>
  <outline>
    <contour>
      <point x="540" y="302" type="curve"/>
      <point x="432" y="302"/>
      <point x="323" y="302"/>
      <point x="215" y="302" type="curve"/>
      <point x="159" y="195"/>
      <point x="215" y="302"/>
      <point x="159" y="195" type="curve"/>
      <point x="301" y="195"/>
      <point x="442" y="195"/>
      <point x="583" y="195" type="curve"/>
      <point x="540" y="302"/>
      <point x="583" y="195"/>
    </contour>
    <contour>
      <point x="734" y="0" type="curve"/>
      <point x="640" y="241"/>
      <point x="540" y="481"/>
      <point x="445" y="722" type="curve"/>
      <point x="322" y="722"/>
      <point x="445" y="722"/>
      <point x="322" y="722" type="curve"/>
      <point x="414" y="482"/>
      <point x="500" y="240"/>
      <point x="593" y="0" type="curve"/>
      <point x="734" y="0"/>
      <point x="593" y="0"/>
    </contour>
    <contour>
      <point x="143" y="0" type="curve"/>
      <point x="246" y="240"/>
      <point x="340" y="482"/>
      <point x="444" y="722" type="curve"/>
      <point x="321" y="722"/>
      <point x="444" y="722"/>
      <point x="321" y="722" type="curve"/>
      <point x="215" y="480"/>
      <point x="101" y="242"/>
      <point x="-4" y="0" type="curve"/>
      <point x="143" y="0"/>
      <point x="-4" y="0"/>
    </contour>
    <contour>
      <point x="524" y="963" type="curve"/>
      <point x="510" y="925"/>
      <point x="493" y="899"/>
      <point x="467" y="899" type="curve"/>
      <point x="435" y="899"/>
      <point x="417" y="909"/>
      <point x="393" y="929" type="curve"/>
      <point x="357" y="957"/>
      <point x="331" y="970"/>
      <point x="287" y="970" type="curve"/>
      <point x="209" y="970"/>
      <point x="165" y="914"/>
      <point x="137" y="836" type="curve"/>
      <point x="237" y="784"/>
      <point x="137" y="836"/>
      <point x="237" y="784" type="curve"/>
      <point x="255" y="829"/>
      <point x="274" y="850"/>
      <point x="302" y="850" type="curve"/>
      <point x="331" y="850"/>
      <point x="347" y="839"/>
      <point x="368" y="821" type="curve"/>
      <point x="408" y="790"/>
      <point x="434" y="778"/>
      <point x="482" y="778" type="curve"/>
      <point x="562" y="778"/>
      <point x="602" y="835"/>
      <point x="630" y="913" type="curve"/>
      <point x="524" y="962"/>
      <point x="630" y="913"/>
    </contour>
  </outline>
</glyph>
<glyph name="Adieresis" format="1">
  <advance width="745"/>
  <unicode hex="00C4"/>
  <outline>
    <contour>
      <point x="540" y="302" type="curve"/>
      <point x="432" y="302"/>
      <point x="323" y="302"/>
      <point x="215" y="302" type="curve"/>
      <point x="159" y="195"/>
      <point x="215" y="302"/>
      <point x="159" y="195" type="curve"/>
      <point x="301" y="195"/>
      <point x="442" y="195"/>
      <point x="583" y="195" type="curve"/>
      <point x="540" y="302"/>
      <point x="583" y="195"/>
    </contour>
    <contour>
      <point x="734" y="0" type="curve"/>
      <point x="640" y="241"/>
      <point x="540" y="481"/>
      <point x="445" y="722" type="curve"/>
      <point x="322" y="722"/>
      <point x="445" y="722"/>
      <point x="322" y="722" type="curve"/>
      <point x="414" y="482"/>
      <point x="500" y="240"/>
      <point x="593" y="0" type="curve"/>
      <point x="734" y="0"/>
      <point x="593" y="0"/>
    </contour>
    <contour>
      <point x="143" y="0" type="curve"/>
      <point x="246" y="240"/>
      <point x="340" y="482"/>
      <point x="444" y="722" type="curve"/>
      <point x="321" y="722"/>
      <point x="444" y="722"/>
      <point x="321" y="722" type="curve"/>
      <point x="215" y="480"/>
      <point x="101" y="242"/>
      <point x="-4" y="0" type="curve"/>
      <point x="143" y="0"/>
      <point x="-4" y="0"/>
    </contour>
    <contour>
      <point x="353" y="848" type="curve"/>
      <point x="353" y="893"/>
      <point x="320" y="914"/>
      <point x="276" y="914" type="curve"/>
      <point x="231" y="914"/>
      <point x="201" y="890"/>
      <point x="201" y="848" type="curve"/>
      <point x="351" y="848"/>
      <point x="203" y="848"/>
      <point x="353" y="848" type="curve"/>
      <point x="353" y="802"/>
      <point x="321" y="782"/>
      <point x="275" y="782" type="curve"/>
      <point x="230" y="782"/>
      <point x="201" y="804"/>
      <point x="201" y="848" type="curve"/>
      <point x="351" y="848"/>
      <point x="203" y="848"/>
    </contour>
    <contour>
      <point x="562" y="848" type="curve"/>
      <point x="562" y="893"/>
      <point x="529" y="914"/>
      <point x="485" y="914" type="curve"/>
      <point x="440" y="914"/>
      <point x="410" y="890"/>
      <point x="410" y="848" type="curve"/>
      <point x="560" y="848"/>
      <point x="412" y="848"/>
      <point x="562" y="848" type="curve"/>
      <point x="562" y="802"/>
      <point x="530" y="782"/>
      <point x="484" y="782" type="curve"/>
      <point x="439" y="782"/>
      <point x="410" y="804"/>
      <point x="410" y="848" type="curve"/>
      <point x="560" y="848"/>
      <point x="412" y="848"/>
    </contour>
  </outline>
</glyph>
<glyph name="Aring" format="1">
  <advance width="745"/>
  <unicode hex="00C5"/>
  <outline>
    <contour>
      <point x="540" y="302" type="curve"/>
      <point x="432" y="302"/>
      <point x="323" y="302"/>
      <point x="215" y="302" type="curve"/>
      <point x="159" y="195"/>
      <point x="215" y="302"/>
      <point x="159" y="195" type="curve"/>
      <point x="301" y="195"/>
      <point x="442" y="195"/>
      <point x="583" y="195" type="curve"/>
      <point x="540" y="302"/>
      <point x="583" y="195"/>
    </contour>
    <contour>
      <point x="734" y="0" type="curve"/>
      <point x="640" y="241"/>
      <point x="540" y="481"/>
      <point x="445" y="722" type="curve"/>
      <point x="322" y="722"/>
      <point x="445" y="722"/>
      <point x="322" y="722" type="curve"/>
      <point x="414" y="482"/>
      <point x="500" y="240"/>
      <point x="593" y="0" type="curve"/>
      <point x="734" y="0"/>
      <point x="593" y="0"/>
    </contour>
    <contour>
      <point x="143" y="0" type="curve"/>
      <point x="246" y="240"/>
      <point x="340" y="482"/>
      <point x="444" y="722" type="curve"/>
      <point x="321" y="722"/>
      <point x="444" y="722"/>
      <point x="321" y="722" type="curve"/>
      <point x="215" y="480"/>
      <point x="101" y="242"/>
      <point x="-4" y="0" type="curve"/>
      <point x="143" y="0"/>
      <point x="-4" y="0"/>
    </contour>
    <contour>
      <point x="211" y="928" type="curve"/>
      <point x="211" y="833"/>
      <point x="282" y="783"/>
      <point x="382" y="783" type="curve"/>
      <point x="483" y="783"/>
      <point x="555" y="832"/>
      <point x="555" y="928" type="curve"/>
      <point x="555" y="1024"/>
      <point x="482" y="1072"/>
      <point x="379" y="1072" type="curve"/>
      <point x="280" y="1072"/>
      <point x="211" y="1023"/>
      <point x="211" y="928" type="curve"/>
      <point x="327" y="928"/>
      <point x="207" y="928"/>
      <point x="322" y="928" type="curve"/>
      <point x="322" y="963"/>
      <point x="342" y="984"/>
      <point x="379" y="984" type="curve"/>
      <point x="418" y="984"/>
      <point x="441" y="967"/>
      <point x="441" y="928" type="curve"/>
      <point x="441" y="891"/>
      <point x="419" y="872"/>
      <point x="382" y="872" type="curve"/>
      <point x="344" y="872"/>
      <point x="322" y="891"/>
      <point x="322" y="928" type="curve"/>
      <point x="207" y="928"/>
      <point x="327" y="928"/>
    </contour>
  </outline>
</glyph>
<glyph name="AE" format="1">
  <advance width="1003"/>
  <unicode hex="00C6"/>
  <outline>
    <contour>
      <point x="483" y="283" type="curve"/>
      <point x="375" y="283"/>
      <point x="317" y="283"/>
      <point x="209" y="283" type="curve"/>
      <point x="153" y="176"/>
      <point x="209" y="283"/>
      <point x="153" y="176" type="curve"/>
      <point x="294" y="176"/>
      <point x="385" y="176"/>
      <point x="526" y="176" type="curve"/>
      <point x="483" y="283"/>
      <point x="526" y="176"/>
    </contour>
    <contour>
      <point x="135" y="0" type="curve"/>
      <point x="588" y="722" type="line"/>
      <point x="465" y="722"/>
      <point x="587" y="722"/>
      <point x="464" y="722" type="curve"/>
      <point x="-13" y="0" type="line"/>
      <point x="134" y="0"/>
      <point x="-13" y="0"/>
    </contour>
    <contour>
      <point x="537" y="322" type="curve"/>
      <point x="651" y="322"/>
      <point x="765" y="322"/>
      <point x="879" y="322" type="curve"/>
      <point x="879" y="424"/>
      <point x="879" y="322"/>
      <point x="879" y="424" type="curve"/>
      <point x="765" y="424"/>
      <point x="651" y="424"/>
      <point x="537" y="424" type="curve"/>
      <point x="537" y="322"/>
      <point x="537" y="424"/>
    </contour>
    <contour>
      <point x="521" y="620" type="curve"/>
      <point x="662" y="620"/>
      <point x="803" y="620"/>
      <point x="945" y="620" type="curve"/>
      <point x="945" y="722"/>
      <point x="945" y="620"/>
      <point x="945" y="722" type="curve"/>
      <point x="803" y="722"/>
      <point x="662" y="722"/>
      <point x="521" y="722" type="curve"/>
      <point x="521" y="620"/>
      <point x="521" y="722"/>
    </contour>
    <contour>
      <point x="600" y="0" type="curve"/>
      <point x="600" y="722" type="line"/>
      <point x="465" y="722"/>
      <point x="600" y="722"/>
      <point x="465" y="722" type="curve"/>
      <point x="465" y="481"/>
      <point x="465" y="241"/>
      <point x="465" y="0" type="curve"/>
      <point x="600" y="0"/>
      <point x="465" y="0"/>
    </contour>
    <contour>
      <point x="521" y="0" type="curve"/>
      <point x="674" y="0"/>
      <point x="827" y="0"/>
      <point x="980" y="0" type="curve"/>
      <point x="980" y="102"/>
      <point x="980" y="0"/>
      <point x="980" y="102" type="curve"/>
      <point x="827" y="102"/>
      <point x="674" y="102"/>
      <point x="521" y="102" type="curve"/>
      <point x="521" y="0"/>
      <point x="521" y="102"/>
    </contour>
  </outline>
</glyph>
<glyph name="Ccedilla" format="1">
  <advance width="714"/>
  <unicode hex="00C7"/>
  <outline>
    <contour>
      <point x="697" y="654" type="curve"/>
      <point x="617" y="696"/>
      <point x="530" y="727"/>
      <point x="431" y="727" type="curve"/>
      <point x="189" y="727"/>
      <point x="41" y="589"/>
      <point x="41" y="344" type="curve"/>
      <point x="41" y="119"/>
      <point x="180" y="-5"/>
      <point x="407" y="-5" type="curve"/>
      <point x="535" y="-5"/>
      <point x="617" y="26"/>
      <point x="704" y="93" type="curve"/>
      <point x="641" y="176"/>
      <point x="704" y="93"/>
      <point x="641" y="176" type="curve"/>
      <point x="563" y="125"/>
      <point x="502" y="102"/>
      <point x="413" y="102" type="curve"/>
      <point x="259" y="102"/>
      <point x="176" y="194"/>
      <point x="176" y="349" type="curve"/>
      <point x="176" y="517"/>
      <point x="263" y="621"/>
      <point x="425" y="621" type="curve"/>
      <point x="498" y="621"/>
      <point x="564" y="605"/>
      <point x="635" y="569" type="curve"/>
      <point x="697" y="654"/>
      <point x="635" y="569"/>
    </contour>
    <contour>
      <point x="355" y="75" type="curve"/>
      <point x="341" y="53"/>
      <point x="284" y="-39"/>
      <point x="270" y="-61" type="curve"/>
      <point x="362" y="-142"/>
      <point x="270" y="-61"/>
      <point x="362" y="-142" type="curve"/>
      <point x="379" y="-116"/>
      <point x="442" y="-22"/>
      <point x="459" y="5" type="curve"/>
      <point x="355" y="75"/>
      <point x="459" y="5"/>
    </contour>
    <contour>
      <point x="362" y="-142" type="curve"/>
      <point x="368" y="-138"/>
      <point x="373" y="-135"/>
      <point x="381" y="-135" type="curve"/>
      <point x="392" y="-135"/>
      <point x="400" y="-140"/>
      <point x="400" y="-151" type="curve"/>
      <point x="400" y="-167"/>
      <point x="385" y="-173"/>
      <point x="367" y="-173" type="curve"/>
      <point x="343" y="-173"/>
      <point x="324" y="-166"/>
      <point x="296" y="-154" type="curve"/>
      <point x="253" y="-230"/>
      <point x="296" y="-154"/>
      <point x="253" y="-230" type="curve"/>
      <point x="289" y="-248"/>
      <point x="320" y="-257"/>
      <point x="360" y="-257" type="curve"/>
      <point x="444" y="-257"/>
      <point x="507" y="-227"/>
      <point x="507" y="-148" type="curve"/>
      <point x="507" y="-76"/>
      <point x="454" y="-38"/>
      <point x="379" y="-38" type="curve"/>
      <point x="338" y="-38"/>
      <point x="308" y="-45"/>
      <point x="270" y="-61" type="curve"/>
      <point x="362" y="-142"/>
      <point x="270" y="-61"/>
    </contour>
  </outline>
</glyph>
<glyph name="Egrave" format="1">
  <advance width="618"/>
  <unicode hex="00C8"/>
  <outline>
    <contour>
      <point x="152" y="322" type="curve"/>
      <point x="266" y="322"/>
      <point x="380" y="322"/>
      <point x="494" y="322" type="curve"/>
      <point x="494" y="424"/>
      <point x="494" y="322"/>
      <point x="494" y="424" type="curve"/>
      <point x="380" y="424"/>
      <point x="266" y="424"/>
      <point x="152" y="424" type="curve"/>
      <point x="152" y="322"/>
      <point x="152" y="424"/>
    </contour>
    <contour>
      <point x="136" y="620" type="curve"/>
      <point x="278" y="620"/>
      <point x="418" y="620"/>
      <point x="560" y="620" type="curve"/>
      <point x="560" y="722"/>
      <point x="560" y="620"/>
      <point x="560" y="722" type="curve"/>
      <point x="418" y="722"/>
      <point x="278" y="722"/>
      <point x="136" y="722" type="curve"/>
      <point x="136" y="620"/>
      <point x="136" y="722"/>
    </contour>
    <contour>
      <point x="215" y="0" type="curve"/>
      <point x="215" y="722" type="line"/>
      <point x="80" y="722"/>
      <point x="215" y="722"/>
      <point x="80" y="722" type="curve"/>
      <point x="80" y="481"/>
      <point x="80" y="241"/>
      <point x="80" y="0" type="curve"/>
      <point x="215" y="0"/>
      <point x="80" y="0"/>
    </contour>
    <contour>
      <point x="136" y="0" type="curve"/>
      <point x="289" y="0"/>
      <point x="442" y="0"/>
      <point x="595" y="0" type="curve"/>
      <point x="595" y="102"/>
      <point x="595" y="0"/>
      <point x="595" y="102" type="curve"/>
      <point x="442" y="102"/>
      <point x="289" y="102"/>
      <point x="136" y="102" type="curve"/>
      <point x="136" y="0"/>
      <point x="136" y="102"/>
    </contour>
    <contour>
      <point x="369" y="786" type="line"/>
      <point x="249" y="952" type="line"/>
      <point x="77" y="952" type="line"/>
      <point x="235" y="786" type="line"/>
    </contour>
  </outline>
</glyph>
<glyph name="Eacute" format="1">
  <advance width="611"/>
  <unicode hex="00C9"/>
  <outline>
    <contour>
      <point x="145" y="322" type="curve"/>
      <point x="259" y="322"/>
      <point x="373" y="322"/>
      <point x="487" y="322" type="curve"/>
      <point x="487" y="424"/>
      <point x="487" y="322"/>
      <point x="487" y="424" type="curve"/>
      <point x="373" y="424"/>
      <point x="259" y="424"/>
      <point x="145" y="424" type="curve"/>
      <point x="145" y="322"/>
      <point x="145" y="424"/>
    </contour>
    <contour>
      <point x="129" y="620" type="curve"/>
      <point x="270" y="620"/>
      <point x="411" y="620"/>
      <point x="552" y="620" type="curve"/>
      <point x="552" y="722"/>
      <point x="552" y="620"/>
      <point x="552" y="722" type="curve"/>
      <point x="411" y="722"/>
      <point x="270" y="722"/>
      <point x="129" y="722" type="curve"/>
      <point x="129" y="620"/>
      <point x="129" y="722"/>
    </contour>
    <contour>
      <point x="208" y="0" type="curve"/>
      <point x="208" y="722" type="line"/>
      <point x="72" y="722"/>
      <point x="208" y="722"/>
      <point x="72" y="722" type="curve"/>
      <point x="72" y="481"/>
      <point x="72" y="241"/>
      <point x="72" y="0" type="curve"/>
      <point x="208" y="0"/>
      <point x="72" y="0"/>
    </contour>
    <contour>
      <point x="129" y="0" type="curve"/>
      <point x="282" y="0"/>
      <point x="434" y="0"/>
      <point x="587" y="0" type="curve"/>
      <point x="587" y="102"/>
      <point x="587" y="0"/>
      <point x="587" y="102" type="curve"/>
      <point x="434" y="102"/>
      <point x="282" y="102"/>
      <point x="129" y="102" type="curve"/>
      <point x="129" y="0"/>
      <point x="129" y="102"/>
    </contour>
    <contour>
      <point x="346" y="785" type="line"/>
      <point x="504" y="951" type="line"/>
      <point x="332" y="951" type="line"/>
      <point x="214" y="785" type="line"/>
    </contour>
  </outline>
</glyph>
<glyph name="Ecircumflex" format="1">
  <advance width="580"/>
  <unicode hex="00CA"/>
  <outline>
    <contour>
      <point x="127" y="322" type="curve"/>
      <point x="240" y="322"/>
      <point x="355" y="322"/>
      <point x="469" y="322" type="curve"/>
      <point x="469" y="424"/>
      <point x="469" y="322"/>
      <point x="469" y="424" type="curve"/>
      <point x="355" y="424"/>
      <point x="240" y="424"/>
      <point x="127" y="424" type="curve"/>
      <point x="127" y="322"/>
      <point x="127" y="424"/>
    </contour>
    <contour>
      <point x="111" y="620" type="curve"/>
      <point x="252" y="620"/>
      <point x="393" y="620"/>
      <point x="534" y="620" type="curve"/>
      <point x="534" y="722"/>
      <point x="534" y="620"/>
      <point x="534" y="722" type="curve"/>
      <point x="393" y="722"/>
      <point x="252" y="722"/>
      <point x="111" y="722" type="curve"/>
      <point x="111" y="620"/>
      <point x="111" y="722"/>
    </contour>
    <contour>
      <point x="190" y="0" type="curve"/>
      <point x="190" y="722" type="line"/>
      <point x="54" y="722"/>
      <point x="190" y="722"/>
      <point x="54" y="722" type="curve"/>
      <point x="54" y="481"/>
      <point x="54" y="241"/>
      <point x="54" y="0" type="curve"/>
      <point x="190" y="0"/>
      <point x="54" y="0"/>
    </contour>
    <contour>
      <point x="111" y="0" type="curve"/>
      <point x="264" y="0"/>
      <point x="416" y="0"/>
      <point x="569" y="0" type="curve"/>
      <point x="569" y="102"/>
      <point x="569" y="0"/>
      <point x="569" y="102" type="curve"/>
      <point x="416" y="102"/>
      <point x="264" y="102"/>
      <point x="111" y="102" type="curve"/>
      <point x="111" y="0"/>
      <point x="111" y="102"/>
    </contour>
    <contour>
      <point x="175" y="786" type="line"/>
      <point x="333" y="952" type="line"/>
      <point x="160" y="952" type="line"/>
      <point x="43" y="786" type="line"/>
    </contour>
    <contour>
      <point x="499" y="786" type="line"/>
      <point x="379" y="952" type="line"/>
      <point x="207" y="952" type="line"/>
      <point x="365" y="786" type="line"/>
    </contour>
  </outline>
</glyph>
<glyph name="Edieresis" format="1">
  <advance width="609"/>
  <unicode hex="00CB"/>
  <outline>
    <contour>
      <point x="143" y="322" type="curve"/>
      <point x="257" y="322"/>
      <point x="371" y="322"/>
      <point x="485" y="322" type="curve"/>
      <point x="485" y="424"/>
      <point x="485" y="322"/>
      <point x="485" y="424" type="curve"/>
      <point x="371" y="424"/>
      <point x="257" y="424"/>
      <point x="143" y="424" type="curve"/>
      <point x="143" y="322"/>
      <point x="143" y="424"/>
    </contour>
    <contour>
      <point x="127" y="620" type="curve"/>
      <point x="268" y="620"/>
      <point x="409" y="620"/>
      <point x="550" y="620" type="curve"/>
      <point x="550" y="722"/>
      <point x="550" y="620"/>
      <point x="550" y="722" type="curve"/>
      <point x="409" y="722"/>
      <point x="268" y="722"/>
      <point x="127" y="722" type="curve"/>
      <point x="127" y="620"/>
      <point x="127" y="722"/>
    </contour>
    <contour>
      <point x="206" y="0" type="curve"/>
      <point x="206" y="722" type="line"/>
      <point x="70" y="722"/>
      <point x="206" y="722"/>
      <point x="70" y="722" type="curve"/>
      <point x="70" y="481"/>
      <point x="70" y="241"/>
      <point x="70" y="0" type="curve"/>
      <point x="206" y="0"/>
      <point x="70" y="0"/>
    </contour>
    <contour>
      <point x="127" y="0" type="curve"/>
      <point x="280" y="0"/>
      <point x="432" y="0"/>
      <point x="585" y="0" type="curve"/>
      <point x="585" y="102"/>
      <point x="585" y="0"/>
      <point x="585" y="102" type="curve"/>
      <point x="432" y="102"/>
      <point x="280" y="102"/>
      <point x="127" y="102" type="curve"/>
      <point x="127" y="0"/>
      <point x="127" y="102"/>
    </contour>
    <contour>
      <point x="258" y="848" type="curve"/>
      <point x="258" y="893"/>
      <point x="226" y="914"/>
      <point x="181" y="914" type="curve"/>
      <point x="136" y="914"/>
      <point x="106" y="890"/>
      <point x="106" y="848" type="curve"/>
      <point x="257" y="848"/>
      <point x="108" y="848"/>
      <point x="258" y="848" type="curve"/>
      <point x="258" y="802"/>
      <point x="226" y="782"/>
      <point x="181" y="782" type="curve"/>
      <point x="136" y="782"/>
      <point x="106" y="804"/>
      <point x="106" y="848" type="curve"/>
      <point x="257" y="848"/>
      <point x="108" y="848"/>
    </contour>
    <contour>
      <point x="467" y="848" type="curve"/>
      <point x="467" y="893"/>
      <point x="435" y="914"/>
      <point x="390" y="914" type="curve"/>
      <point x="345" y="914"/>
      <point x="315" y="890"/>
      <point x="315" y="848" type="curve"/>
      <point x="466" y="848"/>
      <point x="317" y="848"/>
      <point x="467" y="848" type="curve"/>
      <point x="467" y="802"/>
      <point x="435" y="782"/>
      <point x="390" y="782" type="curve"/>
      <point x="345" y="782"/>
      <point x="315" y="804"/>
      <point x="315" y="848" type="curve"/>
      <point x="466" y="848"/>
      <point x="317" y="848"/>
    </contour>
  </outline>
</glyph>
<glyph name="Igrave" format="1">
  <advance width="300"/>
  <unicode hex="00CC"/>
  <outline>
    <contour>
      <point x="221" y="0" type="curve"/>
      <point x="221" y="241"/>
      <point x="221" y="481"/>
      <point x="221" y="722" type="curve"/>
      <point x="86" y="722"/>
      <point x="221" y="722"/>
      <point x="86" y="722" type="curve"/>
      <point x="86" y="481"/>
      <point x="86" y="241"/>
      <point x="86" y="0" type="curve"/>
      <point x="221" y="0"/>
      <point x="86" y="0"/>
    </contour>
    <contour>
      <point x="227" y="786" type="line"/>
      <point x="108" y="952" type="line"/>
      <point x="-65" y="952" type="line"/>
      <point x="94" y="786" type="line"/>
    </contour>
  </outline>
</glyph>
<glyph name="Iacute" format="1">
  <advance width="301"/>
  <unicode hex="00CD"/>
  <outline>
    <contour>
      <point x="215" y="0" type="curve"/>
      <point x="215" y="241"/>
      <point x="215" y="481"/>
      <point x="215" y="722" type="curve"/>
      <point x="79" y="722"/>
      <point x="215" y="722"/>
      <point x="79" y="722" type="curve"/>
      <point x="79" y="481"/>
      <point x="79" y="241"/>
      <point x="79" y="0" type="curve"/>
      <point x="215" y="0"/>
      <point x="79" y="0"/>
    </contour>
    <contour>
      <point x="205" y="785" type="line"/>
      <point x="364" y="951" type="line"/>
      <point x="191" y="951" type="line"/>
      <point x="74" y="785" type="line"/>
    </contour>
  </outline>
</glyph>
<glyph name="Icircumflex" format="1">
  <advance width="331"/>
  <unicode hex="00CE"/>
  <outline>
    <contour>
      <point x="236" y="0" type="curve"/>
      <point x="236" y="241"/>
      <point x="236" y="481"/>
      <point x="236" y="722" type="curve"/>
      <point x="101" y="722"/>
      <point x="236" y="722"/>
      <point x="101" y="722" type="curve"/>
      <point x="101" y="481"/>
      <point x="101" y="241"/>
      <point x="101" y="0" type="curve"/>
      <point x="236" y="0"/>
      <point x="101" y="0"/>
    </contour>
    <contour>
      <point x="74" y="786" type="line"/>
      <point x="232" y="952" type="line"/>
      <point x="60" y="952" type="line"/>
      <point x="-58" y="786" type="line"/>
    </contour>
    <contour>
      <point x="398" y="786" type="line"/>
      <point x="278" y="952" type="line"/>
      <point x="106" y="952" type="line"/>
      <point x="264" y="786" type="line"/>
    </contour>
  </outline>
</glyph>
<glyph name="Idieresis" format="1">
  <advance width="308"/>
  <unicode hex="00CF"/>
  <outline>
    <contour>
      <point x="225" y="0" type="curve"/>
      <point x="225" y="241"/>
      <point x="225" y="481"/>
      <point x="225" y="722" type="curve"/>
      <point x="89" y="722"/>
      <point x="225" y="722"/>
      <point x="89" y="722" type="curve"/>
      <point x="89" y="481"/>
      <point x="89" y="241"/>
      <point x="89" y="0" type="curve"/>
      <point x="225" y="0"/>
      <point x="89" y="0"/>
    </contour>
    <contour>
      <point x="130" y="848" type="curve"/>
      <point x="130" y="893"/>
      <point x="97" y="914"/>
      <point x="53" y="914" type="curve"/>
      <point x="8" y="914"/>
      <point x="-22" y="890"/>
      <point x="-22" y="848" type="curve"/>
      <point x="128" y="848"/>
      <point x="-20" y="848"/>
      <point x="130" y="848" type="curve"/>
      <point x="130" y="802"/>
      <point x="98" y="782"/>
      <point x="52" y="782" type="curve"/>
      <point x="7" y="782"/>
      <point x="-22" y="804"/>
      <point x="-22" y="848" type="curve"/>
      <point x="128" y="848"/>
      <point x="-20" y="848"/>
    </contour>
    <contour>
      <point x="339" y="848" type="curve"/>
      <point x="339" y="893"/>
      <point x="306" y="914"/>
      <point x="262" y="914" type="curve"/>
      <point x="217" y="914"/>
      <point x="187" y="890"/>
      <point x="187" y="848" type="curve"/>
      <point x="337" y="848"/>
      <point x="189" y="848"/>
      <point x="339" y="848" type="curve"/>
      <point x="339" y="802"/>
      <point x="307" y="782"/>
      <point x="261" y="782" type="curve"/>
      <point x="216" y="782"/>
      <point x="187" y="804"/>
      <point x="187" y="848" type="curve"/>
      <point x="337" y="848"/>
      <point x="189" y="848"/>
    </contour>
  </outline>
</glyph>
<glyph name="Eth" format="1">
  <advance width="793"/>
  <unicode hex="00D0"/>
  <outline>
    <contour>
      <point x="90" y="722" type="curve"/>
      <point x="90" y="481"/>
      <point x="90" y="241"/>
      <point x="90" y="0" type="curve"/>
      <point x="225" y="0"/>
      <point x="90" y="0"/>
      <point x="225" y="0" type="curve"/>
      <point x="225" y="241"/>
      <point x="225" y="481"/>
      <point x="225" y="722" type="curve"/>
      <point x="90" y="722"/>
      <point x="225" y="722"/>
    </contour>
    <contour>
      <point x="160" y="0" type="curve"/>
      <point x="227" y="0"/>
      <point x="294" y="0"/>
      <point x="362" y="0" type="curve"/>
      <point x="609" y="0"/>
      <point x="752" y="114"/>
      <point x="752" y="354" type="curve"/>
      <point x="752" y="602"/>
      <point x="609" y="722"/>
      <point x="356" y="722" type="curve"/>
      <point x="291" y="722"/>
      <point x="226" y="722"/>
      <point x="160" y="722" type="curve"/>
      <point x="160" y="621"/>
      <point x="160" y="721"/>
      <point x="160" y="620" type="curve"/>
      <point x="224" y="620"/>
      <point x="286" y="620"/>
      <point x="350" y="620" type="curve"/>
      <point x="527" y="620"/>
      <point x="617" y="527"/>
      <point x="617" y="351" type="curve"/>
      <point x="617" y="188"/>
      <point x="535" y="102"/>
      <point x="373" y="102" type="curve"/>
      <point x="302" y="102"/>
      <point x="232" y="102"/>
      <point x="160" y="102" type="curve"/>
      <point x="160" y="1"/>
      <point x="160" y="101"/>
    </contour>
    <contour>
      <point x="29" y="307" type="curve"/>
      <point x="151" y="307"/>
      <point x="273" y="307"/>
      <point x="395" y="307" type="curve"/>
      <point x="395" y="419"/>
      <point x="395" y="307"/>
      <point x="395" y="419" type="curve"/>
      <point x="273" y="419"/>
      <point x="151" y="419"/>
      <point x="29" y="419" type="curve"/>
      <point x="29" y="307"/>
      <point x="29" y="419"/>
    </contour>
  </outline>
</glyph>
<glyph name="Ntilde" format="1">
  <advance width="854"/>
  <unicode hex="00D1"/>
  <outline>
    <contour>
      <point x="780" y="0" type="curve"/>
      <point x="595" y="240"/>
      <point x="412" y="482"/>
      <point x="228" y="722" type="curve"/>
      <point x="73" y="722"/>
      <point x="227" y="722"/>
      <point x="72" y="722" type="curve"/>
      <point x="257" y="482"/>
      <point x="440" y="240"/>
      <point x="625" y="0" type="curve"/>
      <point x="780" y="0"/>
      <point x="625" y="0"/>
    </contour>
    <contour>
      <point x="647" y="722" type="curve"/>
      <point x="647" y="481"/>
      <point x="647" y="241"/>
      <point x="647" y="0" type="curve"/>
      <point x="782" y="0"/>
      <point x="647" y="0"/>
      <point x="782" y="0" type="curve"/>
      <point x="782" y="241"/>
      <point x="782" y="481"/>
      <point x="782" y="722" type="curve"/>
      <point x="647" y="722"/>
      <point x="782" y="722"/>
    </contour>
    <contour>
      <point x="208" y="0" type="curve"/>
      <point x="208" y="241"/>
      <point x="208" y="481"/>
      <point x="208" y="722" type="curve"/>
      <point x="73" y="722"/>
      <point x="208" y="722"/>
      <point x="73" y="722" type="curve"/>
      <point x="73" y="481"/>
      <point x="73" y="241"/>
      <point x="73" y="0" type="curve"/>
      <point x="208" y="0"/>
      <point x="73" y="0"/>
    </contour>
    <contour>
      <point x="570" y="963" type="curve"/>
      <point x="556" y="925"/>
      <point x="539" y="899"/>
      <point x="512" y="899" type="curve"/>
      <point x="480" y="899"/>
      <point x="463" y="909"/>
      <point x="438" y="929" type="curve"/>
      <point x="403" y="957"/>
      <point x="377" y="970"/>
      <point x="333" y="970" type="curve"/>
      <point x="255" y="970"/>
      <point x="211" y="914"/>
      <point x="182" y="836" type="curve"/>
      <point x="282" y="784"/>
      <point x="183" y="836"/>
      <point x="283" y="784" type="curve"/>
      <point x="301" y="829"/>
      <point x="320" y="850"/>
      <point x="348" y="850" type="curve"/>
      <point x="377" y="850"/>
      <point x="393" y="839"/>
      <point x="414" y="821" type="curve"/>
      <point x="454" y="790"/>
      <point x="480" y="778"/>
      <point x="527" y="778" type="curve"/>
      <point x="608" y="778"/>
      <point x="647" y="835"/>
      <point x="676" y="913" type="curve"/>
      <point x="570" y="962"/>
      <point x="675" y="913"/>
    </contour>
  </outline>
</glyph>
<glyph name="Ocircumflex" format="1">
  <advance width="809"/>
  <unicode hex="00D4"/>
  <outline>
    <contour>
      <point x="176" y="360" type="curve" name="FullCurve"/>
      <point x="176" y="514"/>
      <point x="248" y="620"/>
      <point x="400" y="620" type="curve" name="FullCurve"/>
      <point x="552" y="620"/>
      <point x="634" y="518"/>
      <point x="634" y="363" type="curve" name="FullCurve"/>
      <point x="634" y="209"/>
      <point x="560" y="103"/>
      <point x="408" y="103" type="curve" name="FullCurve"/>
      <point x="255" y="103"/>
      <point x="176" y="204"/>
      <point x="176" y="360" type="curve" name="FullCurve"/>
      <point x="41" y="360"/>
      <point x="176" y="360"/>
      <point x="41" y="360" type="curve" name="FullCurve"/>
      <point x="41" y="135"/>
      <point x="177" y="-5"/>
      <point x="402" y="-5" type="curve" name="FullCurve"/>
      <point x="630" y="-5"/>
      <point x="769" y="136"/>
      <point x="769" y="363" type="curve" name="FullCurve"/>
      <point x="769" y="587"/>
      <point x="634" y="727"/>
      <point x="409" y="727" type="curve" name="FullCurve"/>
      <point x="180" y="727"/>
      <point x="41" y="587"/>
      <point x="41" y="360" type="curve" name="FullCurve"/>
      <point x="176" y="360"/>
      <point x="41" y="360"/>
    </contour>
    <contour>
      <point x="312" y="786" type="line"/>
      <point x="470" y="952" type="line"/>
      <point x="298" y="952" type="line"/>
      <point x="180" y="786" type="line"/>
    </contour>
    <contour>
      <point x="636" y="786" type="line"/>
      <point x="517" y="952" type="line"/>
      <point x="344" y="952" type="line"/>
      <point x="502" y="786" type="line"/>
    </contour>
  </outline>
</glyph>
<glyph name="Otilde" format="1">
  <advance width="809"/>
  <unicode hex="00D5"/>
  <outline>
    <contour>
      <point x="176" y="360" type="curve" name="FullCurve"/>
      <point x="176" y="514"/>
      <point x="248" y="620"/>
      <point x="400" y="620" type="curve" name="FullCurve"/>
      <point x="552" y="620"/>
      <point x="634" y="518"/>
      <point x="634" y="363" type="curve" name="FullCurve"/>
      <point x="634" y="209"/>
      <point x="560" y="103"/>
      <point x="408" y="103" type="curve" name="FullCurve"/>
      <point x="255" y="103"/>
      <point x="176" y="204"/>
      <point x="176" y="360" type="curve" name="FullCurve"/>
      <point x="41" y="360"/>
      <point x="176" y="360"/>
      <point x="41" y="360" type="curve" name="FullCurve"/>
      <point x="41" y="135"/>
      <point x="177" y="-5"/>
      <point x="402" y="-5" type="curve" name="FullCurve"/>
      <point x="630" y="-5"/>
      <point x="769" y="136"/>
      <point x="769" y="363" type="curve" name="FullCurve"/>
      <point x="769" y="587"/>
      <point x="634" y="727"/>
      <point x="409" y="727" type="curve" name="FullCurve"/>
      <point x="180" y="727"/>
      <point x="41" y="587"/>
      <point x="41" y="360" type="curve" name="FullCurve"/>
      <point x="176" y="360"/>
      <point x="41" y="360"/>
    </contour>
    <contour>
      <point x="551" y="963" type="curve"/>
      <point x="537" y="925"/>
      <point x="520" y="899"/>
      <point x="493" y="899" type="curve"/>
      <point x="461" y="899"/>
      <point x="444" y="909"/>
      <point x="419" y="929" type="curve"/>
      <point x="384" y="957"/>
      <point x="358" y="970"/>
      <point x="314" y="970" type="curve"/>
      <point x="236" y="970"/>
      <point x="192" y="914"/>
      <point x="163" y="836" type="curve"/>
      <point x="263" y="784"/>
      <point x="164" y="836"/>
      <point x="264" y="784" type="curve"/>
      <point x="282" y="829"/>
      <point x="301" y="850"/>
      <point x="329" y="850" type="curve"/>
      <point x="358" y="850"/>
      <point x="374" y="839"/>
      <point x="395" y="821" type="curve"/>
      <point x="435" y="790"/>
      <point x="461" y="778"/>
      <point x="508" y="778" type="curve"/>
      <point x="589" y="778"/>
      <point x="628" y="835"/>
      <point x="657" y="913" type="curve"/>
      <point x="551" y="962"/>
      <point x="656" y="913"/>
    </contour>
  </outline>
</glyph>
<glyph name="Odieresis" format="1">
  <advance width="809"/>
  <unicode hex="00D6"/>
  <outline>
    <contour>
      <point x="176" y="360" type="curve" name="FullCurve"/>
      <point x="176" y="514"/>
      <point x="248" y="620"/>
      <point x="400" y="620" type="curve" name="FullCurve"/>
      <point x="552" y="620"/>
      <point x="634" y="518"/>
      <point x="634" y="363" type="curve" name="FullCurve"/>
      <point x="634" y="209"/>
      <point x="560" y="103"/>
      <point x="408" y="103" type="curve" name="FullCurve"/>
      <point x="255" y="103"/>
      <point x="176" y="204"/>
      <point x="176" y="360" type="curve" name="FullCurve"/>
      <point x="41" y="360"/>
      <point x="176" y="360"/>
      <point x="41" y="360" type="curve" name="FullCurve"/>
      <point x="41" y="135"/>
      <point x="177" y="-5"/>
      <point x="402" y="-5" type="curve" name="FullCurve"/>
      <point x="630" y="-5"/>
      <point x="769" y="136"/>
      <point x="769" y="363" type="curve" name="FullCurve"/>
      <point x="769" y="587"/>
      <point x="634" y="727"/>
      <point x="409" y="727" type="curve" name="FullCurve"/>
      <point x="180" y="727"/>
      <point x="41" y="587"/>
      <point x="41" y="360" type="curve" name="FullCurve"/>
      <point x="176" y="360"/>
      <point x="41" y="360"/>
    </contour>
    <contour>
      <point x="380" y="848" type="curve"/>
      <point x="380" y="893"/>
      <point x="347" y="914"/>
      <point x="302" y="914" type="curve"/>
      <point x="258" y="914"/>
      <point x="228" y="890"/>
      <point x="228" y="848" type="curve"/>
      <point x="378" y="848"/>
      <point x="229" y="848"/>
      <point x="380" y="848" type="curve"/>
      <point x="380" y="802"/>
      <point x="347" y="782"/>
      <point x="302" y="782" type="curve"/>
      <point x="257" y="782"/>
      <point x="228" y="804"/>
      <point x="228" y="848" type="curve"/>
      <point x="378" y="848"/>
      <point x="229" y="848"/>
    </contour>
    <contour>
      <point x="589" y="848" type="curve"/>
      <point x="589" y="893"/>
      <point x="556" y="914"/>
      <point x="511" y="914" type="curve"/>
      <point x="467" y="914"/>
      <point x="437" y="890"/>
      <point x="437" y="848" type="curve"/>
      <point x="587" y="848"/>
      <point x="438" y="848"/>
      <point x="589" y="848" type="curve"/>
      <point x="589" y="802"/>
      <point x="556" y="782"/>
      <point x="511" y="782" type="curve"/>
      <point x="466" y="782"/>
      <point x="437" y="804"/>
      <point x="437" y="848" type="curve"/>
      <point x="587" y="848"/>
      <point x="438" y="848"/>
    </contour>
  </outline>
</glyph>
<glyph name="multiply" format="1">
  <advance width="597"/>
  <unicode hex="00D7"/>
  <outline>
    <contour>
      <point x="119" y="50" type="line"/>
      <point x="555" y="495" type="line"/>
      <point x="478" y="573" type="line"/>
      <point x="41" y="128" type="line"/>
    </contour>
    <contour>
      <point x="556" y="126" type="line"/>
      <point x="119" y="572" type="line"/>
      <point x="42" y="494" type="line"/>
      <point x="479" y="49" type="line"/>
    </contour>
  </outline>
</glyph>
<glyph name="Oslash" format="1">
  <advance width="809"/>
  <unicode hex="00D8"/>
  <outline>
    <contour>
      <point x="208" y="-65" type="line"/>
      <point x="684" y="737" type="line"/>
      <point x="595" y="781" type="line"/>
      <point x="127" y="-13" type="line"/>
    </contour>
    <contour>
      <point x="176" y="360" type="curve" name="FullCurve"/>
      <point x="176" y="514"/>
      <point x="248" y="620"/>
      <point x="400" y="620" type="curve" name="FullCurve"/>
      <point x="552" y="620"/>
      <point x="634" y="518"/>
      <point x="634" y="363" type="curve" name="FullCurve"/>
      <point x="634" y="209"/>
      <point x="560" y="103"/>
      <point x="408" y="103" type="curve" name="FullCurve"/>
      <point x="255" y="103"/>
      <point x="176" y="204"/>
      <point x="176" y="360" type="curve" name="FullCurve"/>
      <point x="41" y="360"/>
      <point x="176" y="360"/>
      <point x="41" y="360" type="curve" name="FullCurve"/>
      <point x="41" y="135"/>
      <point x="177" y="-5"/>
      <point x="402" y="-5" type="curve" name="FullCurve"/>
      <point x="630" y="-5"/>
      <point x="769" y="136"/>
      <point x="769" y="363" type="curve" name="FullCurve"/>
      <point x="769" y="587"/>
      <point x="634" y="727"/>
      <point x="409" y="727" type="curve" name="FullCurve"/>
      <point x="180" y="727"/>
      <point x="41" y="587"/>
      <point x="41" y="360" type="curve" name="FullCurve"/>
      <point x="176" y="360"/>
      <point x="41" y="360"/>
    </contour>
  </outline>
</glyph>
<glyph name="Ucircumflex" format="1">
  <advance width="778"/>
  <unicode hex="00DB"/>
  <outline>
    <contour>
      <point x="66" y="722" type="curve"/>
      <point x="66" y="584"/>
      <point x="66" y="415"/>
      <point x="66" y="277" type="curve"/>
      <point x="66" y="80"/>
      <point x="180" y="-5"/>
      <point x="386" y="-5" type="curve"/>
      <point x="596" y="-5"/>
      <point x="712" y="85"/>
      <point x="712" y="287" type="curve"/>
      <point x="712" y="422"/>
      <point x="712" y="588"/>
      <point x="712" y="722" type="curve"/>
      <point x="590" y="722"/>
      <point x="711" y="722"/>
      <point x="589" y="722" type="curve"/>
      <point x="589" y="581"/>
      <point x="589" y="416"/>
      <point x="589" y="275" type="curve"/>
      <point x="589" y="160"/>
      <point x="518" y="107"/>
      <point x="397" y="107" type="curve"/>
      <point x="261" y="107"/>
      <point x="189" y="165"/>
      <point x="189" y="297" type="curve"/>
      <point x="189" y="428"/>
      <point x="189" y="591"/>
      <point x="189" y="722" type="curve"/>
      <point x="67" y="722"/>
      <point x="188" y="722"/>
    </contour>
    <contour>
      <point x="293" y="786" type="line"/>
      <point x="452" y="952" type="line"/>
      <point x="279" y="952" type="line"/>
      <point x="162" y="786" type="line"/>
    </contour>
    <contour>
      <point x="617" y="786" type="line"/>
      <point x="498" y="952" type="line"/>
      <point x="326" y="952" type="line"/>
      <point x="484" y="786" type="line"/>
    </contour>
  </outline>
</glyph>
